<svg width="22" height="22" viewBox="0 0 22 22" fill="none" xmlns="http://www.w3.org/2000/svg">
<g clip-path="url(#clip0_113_68)">
<path d="M18.3335 11C18.3333 9.36552 17.7871 7.7779 16.7815 6.4893C15.7759 5.2007 14.3687 4.28498 12.7832 3.88756C11.1977 3.49015 9.52492 3.6338 8.03042 4.29573C6.53592 4.95765 5.3054 6.0999 4.53426 7.54108C3.76312 8.98227 3.49556 10.6398 3.77407 12.2504C4.05259 13.861 4.86121 15.3324 6.07153 16.431C7.28185 17.5295 8.82449 18.1922 10.4545 18.3138C12.0845 18.4355 13.7084 18.009 15.0683 17.1023L16.0858 18.6276C14.5809 19.6339 12.8105 20.1696 11.0002 20.1667C5.93741 20.1667 1.8335 16.0628 1.8335 11C1.8335 5.93729 5.93741 1.83337 11.0002 1.83337C16.0629 1.83337 20.1668 5.93729 20.1668 11V12.375C20.1669 13.0614 19.9469 13.7297 19.5391 14.2818C19.1313 14.8338 18.5572 15.2406 17.9011 15.4422C17.2451 15.6439 16.5416 15.6298 15.8942 15.4021C15.2467 15.1745 14.6893 14.7451 14.3038 14.1772C13.692 14.8134 12.9095 15.2594 12.0504 15.4616C11.1913 15.6638 10.292 15.6136 9.46068 15.3172C8.62935 15.0207 7.90131 14.4904 7.36403 13.7902C6.82674 13.09 6.50307 12.2495 6.4319 11.3697C6.36073 10.49 6.54509 9.60841 6.96282 8.83091C7.38055 8.0534 8.01389 7.41305 8.78675 6.98678C9.55961 6.56052 10.4391 6.36647 11.3196 6.42795C12.2001 6.48943 13.0441 6.80383 13.7502 7.33337H15.5835V12.375C15.5835 12.7397 15.7284 13.0895 15.9862 13.3473C16.2441 13.6052 16.5938 13.75 16.9585 13.75C17.3232 13.75 17.6729 13.6052 17.9308 13.3473C18.1886 13.0895 18.3335 12.7397 18.3335 12.375V11ZM11.0002 8.25004C10.2708 8.25004 9.57134 8.53977 9.05562 9.0555C8.53989 9.57122 8.25016 10.2707 8.25016 11C8.25016 11.7294 8.53989 12.4289 9.05562 12.9446C9.57134 13.4603 10.2708 13.75 11.0002 13.75C11.7295 13.75 12.429 13.4603 12.9447 12.9446C13.4604 12.4289 13.7502 11.7294 13.7502 11C13.7502 10.2707 13.4604 9.57122 12.9447 9.0555C12.429 8.53977 11.7295 8.25004 11.0002 8.25004Z" fill="black"/>
</g>
<defs>
<clipPath id="clip0_113_68">
<rect width="22" height="22" fill="white"/>
</clipPath>
</defs>
</svg>
