<svg width="236" height="236" viewBox="0 0 236 236" fill="none" xmlns="http://www.w3.org/2000/svg">
<g filter="url(#filter0_d_7_250)">
<mask id="mask0_7_250" style="mask-type:luminance" maskUnits="userSpaceOnUse" x="0" y="0" width="236" height="236">
<path d="M236 0H0V236H236V0Z" fill="white"/>
</mask>
<g mask="url(#mask0_7_250)">
<path opacity="0.64" d="M116.159 181.272C146.802 181.272 171.643 176.274 171.643 170.109C171.643 163.944 146.802 158.946 116.159 158.946C85.5164 158.946 60.6755 163.944 60.6755 170.109C60.6755 176.274 85.5164 181.272 116.159 181.272Z" fill="#68CCE9"/>
<path d="M89.5617 168.315C90.3405 165.79 92.7241 164.445 96.5945 163.312C99.0489 162.604 102.164 162.274 107.049 161.282C109.433 160.81 111.109 159.866 111.109 159.866V162.58C111.109 162.58 94.9425 165.766 92.4173 169.944C91.1901 171.997 91.5677 177.024 97.3497 177.543C95.5797 177.802 92.6769 177.354 91.1193 175.773C89.1841 173.814 88.6649 171.194 89.5617 168.315Z" fill="#282323" stroke="black" stroke-miterlimit="10" stroke-linecap="round" stroke-linejoin="round"/>
<path d="M111.109 162.58C111.109 162.58 101.433 164.374 96.2643 166.592C91.7331 168.551 91.8747 170.581 91.7567 172.658C91.6859 173.861 92.5355 176.835 95.9811 177.354C100.087 177.968 104.925 177.307 111.109 173.366C111.109 163.713 111.109 162.58 111.109 162.58Z" fill="#442C2A"/>
<path opacity="0.37" d="M91.7567 172.658C91.8511 170.982 91.7803 169.33 94.1403 167.725C94.0459 168.315 94.0223 168.882 93.9987 169.472C93.9279 170.675 96.8307 169.118 100.276 169.613C103.863 170.156 105.987 174.262 111.109 171.501C111.109 172.091 111.109 172.705 111.109 173.342C104.925 177.283 100.087 177.92 95.9811 177.33C92.5355 176.835 91.6859 173.838 91.7567 172.658Z" fill="#442C2A"/>
<path d="M111.109 162.58C111.109 162.58 101.433 164.374 96.2643 166.592C91.7331 168.551 91.8747 170.581 91.7567 172.658C91.6859 173.861 92.5355 176.835 95.9811 177.354C100.087 177.968 104.925 177.307 111.109 173.366C111.109 163.713 111.109 162.58 111.109 162.58Z" stroke="black" stroke-miterlimit="10" stroke-linecap="round" stroke-linejoin="round"/>
<path d="M102.141 168.126C101.362 168.551 101.551 172.681 103.439 173.248" stroke="black" stroke-miterlimit="10" stroke-linecap="round" stroke-linejoin="round"/>
<path d="M105.091 167.82C104.288 168.952 104.855 171.619 106.294 172.28" stroke="black" stroke-miterlimit="10" stroke-linecap="round" stroke-linejoin="round"/>
<path d="M107.805 166.876C107.002 168.008 107.569 170.675 109.008 171.336" stroke="black" stroke-miterlimit="10" stroke-linecap="round" stroke-linejoin="round"/>
<path d="M135.653 154.651C130.555 158.191 123.31 160.22 115.734 160.22C108.182 160.22 100.914 158.191 95.816 154.651C93.4796 153.022 89.562 149.624 89.562 145.093C89.562 140.562 93.4796 137.163 95.816 135.535C100.914 131.995 108.159 129.965 115.734 129.965C123.286 129.965 130.555 131.995 135.653 135.535C137.989 137.163 141.907 140.562 141.907 145.093C141.907 149.624 137.989 153.022 135.653 154.651Z" fill="#151E28"/>
<path d="M158.993 148.869C158.899 149.341 158.804 149.789 158.663 150.261C154.981 163.69 137.234 173.885 115.876 173.885C94.4707 173.885 76.6763 163.642 73.0655 150.167C72.9711 149.789 72.8767 149.412 72.8059 149.034C72.7115 148.326 72.7351 147.618 72.8767 146.91C73.7499 142.945 78.5643 140.656 83.6383 141.789C86.9659 142.52 89.5619 144.574 90.7183 147.004C90.8363 147.524 91.0251 148.043 91.2375 148.538C92.4647 151.37 94.9191 153.494 96.5711 154.674C101.504 158.214 108.56 160.244 115.876 160.244C123.216 160.244 130.248 158.214 135.181 154.674C136.856 153.471 139.334 151.323 140.538 148.491C140.727 148.043 140.892 147.547 141.01 147.075C142.143 144.621 144.762 142.568 148.114 141.812C153.188 140.68 158.002 142.992 158.875 146.934C159.04 147.547 159.064 148.208 158.993 148.869Z" fill="#2A3749"/>
<path opacity="0.67" d="M158.875 146.886C158.852 146.768 158.828 146.674 158.781 146.556C158.71 146.934 158.616 147.335 158.498 147.712C154.863 161.141 137.092 171.336 115.758 171.336C94.3527 171.336 76.5583 161.094 72.9475 147.618C72.9003 147.476 72.8767 147.335 72.8295 147.17C72.7351 147.783 72.7115 148.397 72.8059 148.987C72.8767 149.364 72.9711 149.742 73.0655 150.12C76.6763 163.595 94.4707 173.838 115.876 173.838C137.234 173.838 154.981 163.642 158.663 150.214C158.781 149.766 158.899 149.294 158.993 148.822C159.064 148.208 159.04 147.547 158.875 146.886Z" fill="#151E28"/>
<path d="M158.993 148.869C158.899 149.341 158.804 149.789 158.663 150.261C154.981 163.69 137.234 173.885 115.876 173.885C94.4707 173.885 76.6763 163.642 73.0655 150.167C72.9711 149.789 72.8767 149.412 72.8059 149.034C72.7115 148.326 72.7351 147.618 72.8767 146.91C73.7499 142.945 78.5643 140.656 83.6383 141.789C86.9659 142.52 89.5619 144.574 90.7183 147.004C90.8363 147.524 91.0251 148.043 91.2375 148.538C92.4647 151.37 94.9191 153.494 96.5711 154.674C101.504 158.214 108.56 160.244 115.876 160.244C123.216 160.244 130.248 158.214 135.181 154.674C136.856 153.471 139.334 151.323 140.538 148.491C140.727 148.043 140.892 147.547 141.01 147.075C142.143 144.621 144.762 142.568 148.113 141.812C153.187 140.68 158.002 142.992 158.875 146.934C159.04 147.547 159.064 148.208 158.993 148.869Z" stroke="black" stroke-miterlimit="10" stroke-linecap="round" stroke-linejoin="round"/>
<path d="M116.159 153.022C127.903 153.022 137.423 149.789 137.423 145.801C137.423 141.812 127.903 138.579 116.159 138.579C104.416 138.579 94.8955 141.812 94.8955 145.801C94.8955 149.789 104.416 153.022 116.159 153.022Z" fill="#9B2121"/>
<path d="M116.159 153.022C127.903 153.022 137.423 149.789 137.423 145.801C137.423 141.812 127.903 138.579 116.159 138.579C104.416 138.579 94.8955 141.812 94.8955 145.801C94.8955 149.789 104.416 153.022 116.159 153.022Z" stroke="black" stroke-miterlimit="10" stroke-linecap="round" stroke-linejoin="round"/>
<path d="M140.373 130.036H91.3791C87.6267 130.036 84.7239 126.756 85.1959 123.027L87.3671 105.681C87.9807 100.725 92.1815 97.0196 97.1847 97.0196H134.614C139.594 97.0196 143.795 100.725 144.432 105.681L146.603 123.027C147.028 126.756 144.125 130.036 140.373 130.036Z" fill="#F1534D"/>
<path d="M140.373 130.036H91.3791C87.6267 130.036 84.7239 126.756 85.1959 123.027L87.3671 105.681C87.9807 100.725 92.1815 97.0196 97.1847 97.0196H134.614C139.594 97.0196 143.795 100.725 144.432 105.681L146.603 123.027C147.028 126.756 144.125 130.036 140.373 130.036Z" stroke="black" stroke-miterlimit="10" stroke-linecap="round" stroke-linejoin="round"/>
<path d="M96.6893 111.675L96.2173 117.599" stroke="black" stroke-miterlimit="10" stroke-linecap="round" stroke-linejoin="round"/>
<path d="M135.417 111.675L135.889 117.599" stroke="black" stroke-miterlimit="10" stroke-linecap="round" stroke-linejoin="round"/>
<path d="M140.373 130.036H91.3791C87.6267 130.036 84.7239 126.756 85.1959 123.027L87.3671 105.681C87.9807 100.725 92.1815 97.0196 97.1847 97.0196H134.614C139.594 97.0196 143.795 100.725 144.432 105.681L146.603 123.027C147.028 126.756 144.125 130.036 140.373 130.036Z" fill="#F1534D"/>
<g opacity="0.24">
<path opacity="0.24" d="M87.3435 107.522C87.9571 102.566 92.1579 98.8604 97.1611 98.8604H134.591C139.57 98.8604 143.771 102.566 144.408 107.522L146.556 124.726C146.627 124.183 146.65 123.617 146.579 123.027L144.408 105.681C143.795 100.725 139.594 97.0196 134.591 97.0196H97.1611C92.1815 97.0196 87.9807 100.725 87.3435 105.681L85.1723 123.027C85.1015 123.593 85.1015 124.16 85.1959 124.726L87.3435 107.522Z" fill="#9B2121"/>
<path opacity="0.24" d="M99.3323 98.8604C99.3323 98.8604 102.235 99.3796 102.471 100.984C102.66 102.282 102.636 103.132 103.132 103.651C103.628 104.17 104.784 105.232 107.12 105.232C105.822 103.934 105.799 99.3796 105.445 99.3796C105.114 99.3796 104.265 97.114 104.265 97.114L103.132 96.5948C103.156 96.5948 98.9783 97.114 99.3323 98.8604Z" fill="#9B2121"/>
<path opacity="0.24" d="M130.343 98.8604C130.343 98.8604 127.44 99.3796 127.204 100.984C127.015 102.282 127.039 103.132 126.543 103.651C126.048 104.147 124.891 105.232 122.555 105.232C123.853 103.934 123.877 99.3796 124.231 99.3796C124.561 99.3796 125.411 97.114 125.411 97.114L126.543 96.5948C126.52 96.5948 130.697 97.114 130.343 98.8604Z" fill="#9B2121"/>
</g>
<path d="M140.373 130.036H91.3791C87.6267 130.036 84.7239 126.756 85.1959 123.027L87.3671 105.681C87.9807 100.725 92.1815 97.0196 97.1847 97.0196H134.614C139.594 97.0196 143.795 100.725 144.432 105.681L146.603 123.027C147.028 126.756 144.125 130.036 140.373 130.036Z" stroke="black" stroke-miterlimit="10" stroke-linecap="round" stroke-linejoin="round"/>
<path d="M96.689 111.675L96.217 117.599" stroke="black" stroke-miterlimit="10" stroke-linecap="round" stroke-linejoin="round"/>
<path d="M135.417 111.675L135.889 117.599" stroke="black" stroke-miterlimit="10" stroke-linecap="round" stroke-linejoin="round"/>
<path d="M109.575 87.1548L101.81 86.7536L98.1759 87.1548C98.1759 87.1548 95.7451 88.972 95.7451 89.4676C95.7451 89.9632 95.9811 93.9988 95.9811 93.9988C95.9811 93.9988 101.716 94.7776 102.33 95.3676C102.943 95.9576 106.578 99.356 106.578 99.356L110.094 97.9872L111.935 93.0784L109.575 87.1548Z" fill="#9B2121"/>
<path d="M108.206 84.1578H99.2378C95.627 84.1578 92.677 87.0842 92.677 90.7186C92.677 94.3294 95.6034 97.2794 99.2378 97.2794H100.418C102.329 97.2794 103.863 98.8134 103.863 100.725V101.079C103.863 103.368 105.728 105.233 108.017 105.233V100.985C108.064 100.985 108.111 101.032 108.111 101.079V100.725C108.111 96.477 104.666 93.0314 100.418 93.0314H99.2378C97.9634 93.0314 96.925 91.993 96.925 90.7186C96.925 89.4442 97.9634 88.4058 99.2378 88.4058H108.206V84.1578Z" fill="#F1534D"/>
<path d="M107.663 98.058C106.577 95.1316 103.745 93.0076 100.441 93.0076H99.2612C97.9868 93.0076 96.9484 91.9692 96.9484 90.6948C96.9484 89.4204 97.9868 88.382 99.2612 88.382H108.229V84.134H99.2612C95.6504 84.134 92.7004 87.0604 92.7004 90.6948C92.7004 94.3056 95.6268 97.2556 99.2612 97.2556H100.441C102.353 97.2556 103.887 98.7896 103.887 100.701V101.055C103.887 103.344 105.751 105.209 108.04 105.209" stroke="black" stroke-miterlimit="10" stroke-linecap="round" stroke-linejoin="round"/>
<path d="M119.841 87.1548L127.605 86.7536L131.24 87.1548C131.24 87.1548 133.67 88.972 133.67 89.4676C133.67 89.9632 133.434 93.9988 133.434 93.9988C133.434 93.9988 127.7 94.7776 127.086 95.3676C126.472 95.9812 122.838 99.356 122.838 99.356L119.322 97.9872L117.481 93.0784L119.841 87.1548Z" fill="#9B2121"/>
<path d="M121.209 84.1576H130.177C133.788 84.1576 136.738 87.084 136.738 90.7184C136.738 94.3292 133.812 97.2792 130.177 97.2792H128.997C127.086 97.2792 125.552 98.8132 125.552 100.725V101.079C125.552 103.368 123.687 105.232 121.398 105.232V100.984C121.351 100.984 121.304 101.032 121.304 101.079V100.725C121.304 96.4768 124.749 93.0312 128.997 93.0312H130.177C131.452 93.0312 132.49 91.9928 132.49 90.7184C132.49 89.444 131.452 88.4056 130.177 88.4056H121.209V84.1576Z" fill="#F1534D"/>
<path d="M121.776 98.058C122.861 95.1316 125.693 93.0076 128.997 93.0076H130.177C131.452 93.0076 132.49 91.9692 132.49 90.6948C132.49 89.4204 131.452 88.382 130.177 88.382H121.209V84.134H130.177C133.788 84.134 136.738 87.0604 136.738 90.6948C136.738 94.3056 133.812 97.2556 130.177 97.2556H128.997C127.086 97.2556 125.552 98.7896 125.552 100.701V101.055C125.552 103.344 123.687 105.209 121.398 105.209" stroke="black" stroke-miterlimit="10" stroke-linecap="round" stroke-linejoin="round"/>
<path d="M115.144 101.881C120.227 101.881 124.348 97.7604 124.348 92.6772C124.348 87.594 120.227 83.4732 115.144 83.4732C110.061 83.4732 105.94 87.594 105.94 92.6772C105.94 97.7604 110.061 101.881 115.144 101.881Z" fill="#F46262"/>
<path d="M106.342 89.9632C108.89 91.5916 111.911 92.5592 115.144 92.5592C118.378 92.5592 121.398 91.6152 123.947 89.9632C122.791 86.1872 119.298 83.4496 115.144 83.4496C111.014 83.4732 107.498 86.2108 106.342 89.9632Z" fill="#F1534D"/>
<path d="M115.144 101.881C120.227 101.881 124.348 97.7604 124.348 92.6772C124.348 87.594 120.227 83.4732 115.144 83.4732C110.061 83.4732 105.94 87.594 105.94 92.6772C105.94 97.7604 110.061 101.881 115.144 101.881Z" stroke="black" stroke-miterlimit="10" stroke-linecap="round" stroke-linejoin="round"/>
<path d="M115.144 98.0108C112.147 98.0108 109.716 95.58 109.716 92.5828V88.5236C109.716 87.7684 110.33 87.1548 111.085 87.1548H119.227C119.982 87.1548 120.596 87.7684 120.596 88.5236V92.5828C120.572 95.58 118.142 98.0108 115.144 98.0108Z" fill="#FFC897"/>
<path d="M119.227 87.1548H111.085C110.33 87.1548 109.716 87.8156 109.716 88.618V91.9456C111.416 92.5828 113.233 92.9368 115.144 92.9368C117.056 92.9368 118.873 92.5828 120.572 91.9456V88.618C120.572 87.8156 119.959 87.1548 119.227 87.1548Z" fill="#E5A973"/>
<path d="M115.144 98.0108C112.147 98.0108 109.716 95.58 109.716 92.5828V88.5236C109.716 87.7684 110.33 87.1548 111.085 87.1548H119.227C119.982 87.1548 120.596 87.7684 120.596 88.5236V92.5828C120.572 95.58 118.142 98.0108 115.144 98.0108Z" stroke="black" stroke-miterlimit="10" stroke-linecap="round" stroke-linejoin="round"/>
<path d="M121.021 159.158H115.97V175.277H121.021V159.158Z" fill="#607691"/>
<path d="M121.021 159.158H115.97V175.277H121.021V159.158Z" stroke="black" stroke-miterlimit="10" stroke-linecap="round" stroke-linejoin="round"/>
<path d="M91.214 148.491C91.0016 147.996 90.8364 147.5 90.6948 146.957C90.9544 147.476 91.1196 147.972 91.214 148.491Z" stroke="black" stroke-miterlimit="10" stroke-linecap="round" stroke-linejoin="round"/>
<path d="M140.562 148.444C140.656 147.948 140.821 147.476 141.034 147.028C140.916 147.524 140.75 147.996 140.562 148.444Z" stroke="black" stroke-miterlimit="10" stroke-linecap="round" stroke-linejoin="round"/>
<path d="M140.491 147.311H91.2849C89.5385 147.311 88.0517 146.013 87.8157 144.267L84.7477 120.242C84.4881 118.165 86.1165 116.301 88.2169 116.301H143.559C145.659 116.301 147.288 118.142 147.028 120.242L143.96 144.267C143.724 145.99 142.237 147.311 140.491 147.311Z" fill="#B5B5B5"/>
<path opacity="0.21" d="M143.937 142.756C143.724 144.503 142.237 145.801 140.467 145.801H91.2849C89.5385 145.801 88.0517 144.503 87.8157 142.756L84.7949 119.086C84.7241 119.463 84.7005 119.841 84.7477 120.242L87.8157 144.267C88.0281 146.013 89.5149 147.311 91.2849 147.311H140.491C142.237 147.311 143.724 146.013 143.96 144.267L147.028 120.242C147.075 119.841 147.052 119.463 146.981 119.086L143.937 142.756Z" fill="#7E7E7E"/>
<path opacity="0.21" d="M84.7713 120.454C85.0545 118.85 86.4705 117.575 88.1933 117.575H143.535C145.282 117.575 146.674 118.826 146.957 120.454L146.981 120.218C147.241 118.142 145.612 116.277 143.512 116.277H88.2169C86.1165 116.277 84.4881 118.118 84.7477 120.218L84.7713 120.454Z" fill="#7E7E7E"/>
<path d="M140.491 147.311H91.2849C89.5385 147.311 88.0517 146.013 87.8157 144.267L84.7477 120.242C84.4881 118.165 86.1165 116.301 88.2169 116.301H143.559C145.659 116.301 147.288 118.142 147.028 120.242L143.96 144.267C143.724 145.99 142.237 147.311 140.491 147.311Z" stroke="black" stroke-miterlimit="10" stroke-linecap="round" stroke-linejoin="round"/>
<path opacity="0.66" d="M118.213 130.343C117.151 130.343 116.301 129.493 116.301 128.431C116.301 128.36 116.301 128.29 116.325 128.219C116.136 128.195 115.947 128.172 115.758 128.172C114.035 128.172 112.619 129.588 112.619 131.31C112.619 133.033 114.035 134.449 115.758 134.449C117.481 134.449 118.897 133.033 118.897 131.31C118.897 130.956 118.826 130.602 118.732 130.272C118.567 130.296 118.401 130.343 118.213 130.343Z" fill="#B5B5B5"/>
<path d="M142.568 168.315C141.789 165.79 139.405 164.445 135.535 163.312C133.08 162.604 129.965 162.274 125.08 161.282C122.696 160.81 121.021 159.866 121.021 159.866V162.58C121.021 162.58 137.187 165.766 139.712 169.944C140.939 171.997 140.562 177.024 134.78 177.543C136.55 177.802 139.452 177.354 141.01 175.773C142.945 173.814 143.464 171.194 142.568 168.315Z" fill="#282323" stroke="black" stroke-miterlimit="10" stroke-linecap="round" stroke-linejoin="round"/>
<path d="M121.021 162.58C121.021 162.58 130.697 164.374 135.865 166.592C140.396 168.551 140.255 170.581 140.373 172.658C140.444 173.861 139.594 176.835 136.148 177.354C132.042 177.968 127.204 177.307 121.021 173.366C121.021 163.713 121.021 162.58 121.021 162.58Z" fill="#442C2A"/>
<path opacity="0.37" d="M140.373 172.658C140.278 170.982 140.349 169.33 137.989 167.725C138.084 168.315 138.107 168.882 138.131 169.472C138.202 170.675 137.352 173.649 133.906 174.168C130.319 174.711 126.142 174.262 121.021 171.501C121.021 172.091 121.021 172.705 121.021 173.342C127.204 177.283 132.042 177.92 136.148 177.33C139.618 176.835 140.444 173.838 140.373 172.658Z" fill="#442C2A"/>
<path d="M121.021 162.58C121.021 162.58 130.697 164.374 135.865 166.592C140.396 168.551 140.255 170.581 140.373 172.658C140.444 173.861 139.594 176.835 136.148 177.354C132.042 177.968 127.204 177.307 121.021 173.366C121.021 163.713 121.021 162.58 121.021 162.58Z" stroke="black" stroke-miterlimit="10" stroke-linecap="round" stroke-linejoin="round"/>
<path d="M129.989 168.126C130.767 168.551 130.579 172.681 128.691 173.248" stroke="black" stroke-miterlimit="10" stroke-linecap="round" stroke-linejoin="round"/>
<path d="M127.039 167.82C127.841 168.952 127.275 171.619 125.835 172.28" stroke="black" stroke-miterlimit="10" stroke-linecap="round" stroke-linejoin="round"/>
<path d="M124.325 166.876C125.127 168.008 124.561 170.675 123.121 171.336" stroke="black" stroke-miterlimit="10" stroke-linecap="round" stroke-linejoin="round"/>
<path d="M106.861 102.825V115.38" stroke="black" stroke-width="1.5" stroke-miterlimit="10" stroke-linecap="round" stroke-linejoin="round"/>
<path d="M122.791 102.825V111.675" stroke="black" stroke-width="1.5" stroke-miterlimit="10" stroke-linecap="round" stroke-linejoin="round"/>
<path d="M122.791 114.342C123.873 114.342 124.75 113.465 124.75 112.383C124.75 111.301 123.873 110.424 122.791 110.424C121.709 110.424 120.832 111.301 120.832 112.383C120.832 113.465 121.709 114.342 122.791 114.342Z" fill="black"/>
<path d="M122.791 112.95C123.234 112.95 123.593 112.59 123.593 112.147C123.593 111.704 123.234 111.345 122.791 111.345C122.347 111.345 121.988 111.704 121.988 112.147C121.988 112.59 122.347 112.95 122.791 112.95Z" fill="#7E7E7E"/>
<path d="M115.144 91.1432C106.931 91.1432 100.252 84.488 100.252 76.2516V58.9764H130.036V76.2516C130.036 84.4644 123.38 91.1432 115.144 91.1432Z" fill="#FFC897"/>
<path d="M115.144 89.09C106.931 89.09 100.252 82.4348 100.252 74.1984V76.2516C100.252 84.4644 106.908 91.1432 115.144 91.1432C123.357 91.1432 130.036 84.488 130.036 76.2516V74.1984C130.036 82.4112 123.38 89.09 115.144 89.09Z" fill="#E5A973"/>
<path d="M115.144 91.1432C106.931 91.1432 100.252 84.488 100.252 76.2516V58.9764H130.036V76.2516C130.036 84.4644 123.38 91.1432 115.144 91.1432Z" stroke="black" stroke-miterlimit="10" stroke-linecap="round" stroke-linejoin="round"/>
<path d="M130.154 60.6992C130.107 59.8968 130.059 59.0708 130.036 58.2684C120.124 58.7404 110.165 58.6696 100.276 57.7964C100.205 58.7168 100.158 59.6372 100.087 60.5576C100.536 60.9588 101.008 61.3836 101.456 61.7848C101.834 61.9736 102.329 62.2332 102.778 62.4692C104.76 63.5076 107.521 64.8292 110.165 65.3484C111.132 65.5372 112.147 65.6316 113.185 65.608C117.646 65.5608 121.398 63.7908 122.979 63.0592C123.215 62.9412 123.404 62.8468 123.522 62.8232C123.617 62.776 123.711 62.7524 123.853 62.7524C124.136 62.7524 124.466 62.8232 124.867 62.894C125.387 63.012 126 63.13 126.685 63.0828C127.463 63.0356 128.171 62.7996 128.856 62.3512C129.257 61.7848 129.705 61.242 130.154 60.6992Z" fill="#E5A973"/>
<path d="M122.979 51.7312C122.979 51.7312 111.061 43.8724 101.197 52.6516C99.3559 54.28 98.6243 56.6164 98.6243 58.764V70.1392H100.276V61.8792C100.276 61.2656 100.701 60.7936 101.22 60.7936C102.07 60.7936 106.672 63.248 110.566 63.9324C116.442 64.9472 121.799 62.2332 122.956 61.832C124.938 61.124 126.543 63.5784 129.045 60.8172H129.139C129.658 60.8172 130.083 61.3128 130.083 61.9028V70.1628H131.735V58.8348C131.688 56.05 128.478 49.0644 122.979 51.7312Z" fill="#231A17"/>
<g opacity="0.34">
<path opacity="0.34" d="M100.253 68.5816H98.6006V70.1392H100.253V68.5816Z" fill="#231A17"/>
<path opacity="0.34" d="M131.688 68.5816H130.036V70.1392H131.688V68.5816Z" fill="#231A17"/>
</g>
<path d="M122.979 51.7312C122.979 51.7312 111.061 43.8724 101.197 52.6516C99.3559 54.28 98.6243 56.6164 98.6243 58.764V70.1392H100.276V61.8792C100.276 61.2656 100.701 60.7936 101.22 60.7936C102.07 60.7936 106.672 63.248 110.566 63.9324C116.442 64.9472 121.799 62.2332 122.956 61.832C124.938 61.124 126.543 63.5784 129.045 60.8172H129.139C129.658 60.8172 130.083 61.3128 130.083 61.9028V70.1628H131.735V58.8348C131.688 56.05 128.478 49.0644 122.979 51.7312Z" stroke="black" stroke-miterlimit="10" stroke-linecap="round" stroke-linejoin="round"/>
<path d="M112.902 59.4012C112.902 59.4012 100.111 60.2272 97.397 53.4304" stroke="black" stroke-miterlimit="10" stroke-linecap="round" stroke-linejoin="round"/>
<path d="M114.719 57.7728C114.719 57.7728 102.4 56.994 99.1907 50.1972" stroke="black" stroke-miterlimit="10" stroke-linecap="round" stroke-linejoin="round"/>
<path d="M130.036 68.2984V76.0392C131.688 76.0392 133.009 74.3164 133.009 72.1688C133.009 70.0212 131.688 68.2984 130.036 68.2984Z" fill="#FFC897"/>
<path d="M130.036 68.7232V75.5908C131.003 74.9536 131.664 73.6556 131.664 72.1452C131.664 70.6584 131.003 69.3604 130.036 68.7232Z" fill="#E5A973"/>
<path d="M130.036 68.2984V76.0392C131.688 76.0392 133.009 74.3164 133.009 72.1688C133.009 70.0212 131.688 68.2984 130.036 68.2984Z" stroke="black" stroke-miterlimit="10" stroke-linecap="round" stroke-linejoin="round"/>
<path d="M100.276 68.2984V76.0392C98.6242 76.0392 97.3026 74.3164 97.3026 72.1688C97.279 70.0212 98.6242 68.2984 100.276 68.2984Z" fill="#FFC897"/>
<path d="M100.276 68.8648C99.4267 69.5492 98.8367 70.7764 98.8367 72.1688C98.8367 73.5612 99.4031 74.7884 100.276 75.4728V68.8648Z" fill="#E5A973"/>
<path d="M100.276 68.2984V76.0392C98.6242 76.0392 97.3026 74.3164 97.3026 72.1688C97.279 70.0212 98.6242 68.2984 100.276 68.2984Z" stroke="black" stroke-miterlimit="10" stroke-linecap="round" stroke-linejoin="round"/>
<path d="M114.531 74.5996L113.54 77.8328C113.54 78.1868 114.696 77.9036 115.876 78.1868" stroke="black" stroke-miterlimit="10" stroke-linecap="round" stroke-linejoin="round"/>
<path d="M120.1 80.6412C120.454 83.0956 117.292 85.2668 114.814 84.8184" stroke="black" stroke-width="0.75" stroke-miterlimit="10" stroke-linecap="round" stroke-linejoin="round"/>
<path d="M109.787 71.862C110.334 71.862 110.778 71.3864 110.778 70.8C110.778 70.2135 110.334 69.738 109.787 69.738C109.239 69.738 108.796 70.2135 108.796 70.8C108.796 71.3864 109.239 71.862 109.787 71.862Z" stroke="black" stroke-width="0.5" stroke-miterlimit="10" stroke-linecap="round" stroke-linejoin="round"/>
<path d="M109.787 71.862C110.334 71.862 110.778 71.3864 110.778 70.8C110.778 70.2135 110.334 69.738 109.787 69.738C109.239 69.738 108.796 70.2135 108.796 70.8C108.796 71.3864 109.239 71.862 109.787 71.862Z" fill="black"/>
<path d="M106.365 68.558C106.861 67.968 108.017 67.5668 109.386 67.5668C110.471 67.5668 111.415 67.8264 112.005 68.2276" stroke="black" stroke-width="0.75" stroke-miterlimit="10" stroke-linecap="round" stroke-linejoin="round"/>
<path d="M120.643 71.862C121.19 71.862 121.634 71.3864 121.634 70.8C121.634 70.2135 121.19 69.738 120.643 69.738C120.096 69.738 119.652 70.2135 119.652 70.8C119.652 71.3864 120.096 71.862 120.643 71.862Z" stroke="black" stroke-width="0.5" stroke-miterlimit="10" stroke-linecap="round" stroke-linejoin="round"/>
<path d="M120.643 71.862C121.19 71.862 121.634 71.3864 121.634 70.8C121.634 70.2135 121.19 69.738 120.643 69.738C120.096 69.738 119.652 70.2135 119.652 70.8C119.652 71.3864 120.096 71.862 120.643 71.862Z" fill="black"/>
<path d="M124.065 68.558C123.569 67.968 122.413 67.5668 121.044 67.5668C119.959 67.5668 119.015 67.8264 118.425 68.2276" stroke="black" stroke-width="0.75" stroke-miterlimit="10" stroke-linecap="round" stroke-linejoin="round"/>
</g>
</g>
<defs>
<filter id="filter0_d_7_250" x="56.6755" y="47.9962" width="118.967" height="141.275" filterUnits="userSpaceOnUse" color-interpolation-filters="sRGB">
<feFlood flood-opacity="0" result="BackgroundImageFix"/>
<feColorMatrix in="SourceAlpha" type="matrix" values="0 0 0 0 0 0 0 0 0 0 0 0 0 0 0 0 0 0 127 0" result="hardAlpha"/>
<feOffset dy="4"/>
<feGaussianBlur stdDeviation="2"/>
<feComposite in2="hardAlpha" operator="out"/>
<feColorMatrix type="matrix" values="0 0 0 0 0 0 0 0 0 0 0 0 0 0 0 0 0 0 0.25 0"/>
<feBlend mode="normal" in2="BackgroundImageFix" result="effect1_dropShadow_7_250"/>
<feBlend mode="normal" in="SourceGraphic" in2="effect1_dropShadow_7_250" result="shape"/>
</filter>
</defs>
</svg>
