<svg width="23" height="23" viewBox="0 0 23 23" fill="none" xmlns="http://www.w3.org/2000/svg">
<g clip-path="url(#clip0_113_76)">
<path d="M8.62484 0.958374V2.87504H14.3748V0.958374H16.2915V2.87504H20.1248C20.379 2.87504 20.6228 2.97601 20.8025 3.15573C20.9822 3.33545 21.0832 3.57921 21.0832 3.83337V19.1667C21.0832 19.4209 20.9822 19.6646 20.8025 19.8444C20.6228 20.0241 20.379 20.125 20.1248 20.125H2.87484C2.62067 20.125 2.37692 20.0241 2.19719 19.8444C2.01747 19.6646 1.9165 19.4209 1.9165 19.1667V3.83337C1.9165 3.57921 2.01747 3.33545 2.19719 3.15573C2.37692 2.97601 2.62067 2.87504 2.87484 2.87504H6.70817V0.958374H8.62484ZM19.1665 9.58337H3.83317V18.2084H19.1665V9.58337ZM14.4093 10.672L15.7644 12.0271L11.0207 16.7709L7.632 13.3822L8.989 12.0271L11.0216 14.0607L14.4093 10.672ZM6.70817 4.79171H3.83317V7.66671H19.1665V4.79171H16.2915V5.75004H14.3748V4.79171H8.62484V5.75004H6.70817V4.79171Z" fill="black"/>
</g>
<defs>
<clipPath id="clip0_113_76">
<rect width="23" height="23" fill="white"/>
</clipPath>
</defs>
</svg>
