<svg width="37" height="37" viewBox="0 0 37 37" fill="none" xmlns="http://www.w3.org/2000/svg">
<path d="M24.7021 14.4115H32.3981L27.4941 9.50437C25.9152 7.92551 23.9486 6.79011 21.7918 6.21231C19.635 5.63451 17.3641 5.63468 15.2074 6.2128C13.0507 6.79092 11.0842 7.92661 9.50562 9.50571C7.927 11.0848 6.79192 13.0517 6.21447 15.2085M4.60188 30.2845V22.5885M4.60188 22.5885H12.2979M4.60188 22.5885L9.50438 27.4956C11.0832 29.0745 13.0499 30.2099 15.2067 30.7877C17.3635 31.3655 19.6344 31.3653 21.7911 30.7872C23.9477 30.2091 25.9142 29.0734 27.4929 27.4943C29.0715 25.9152 30.2066 23.9483 30.784 21.7915M32.3981 6.7155V14.4084" stroke="black" stroke-width="1.5" stroke-linecap="round" stroke-linejoin="round"/>
</svg>
