<svg width="29" height="29" viewBox="0 0 29 29" fill="none" xmlns="http://www.w3.org/2000/svg">
<g clip-path="url(#clip0_110_298)">
<path d="M24.1666 24.1667C24.1666 24.4871 24.0393 24.7945 23.8127 25.0211C23.5861 25.2477 23.2787 25.375 22.9583 25.375H6.04158C5.72112 25.375 5.41377 25.2477 5.18716 25.0211C4.96056 24.7945 4.83325 24.4871 4.83325 24.1667V13.2917H1.20825L13.6867 1.94784C13.9092 1.74542 14.1991 1.63324 14.4999 1.63324C14.8007 1.63324 15.0907 1.74542 15.3131 1.94784L27.7916 13.2917H24.1666V24.1667ZM10.3819 16.6847L9.18446 17.3758L10.3928 19.4699L11.5927 18.7775C12.074 19.2326 12.6555 19.5683 13.2904 19.7575V21.141H15.7095V19.7563C16.3442 19.5674 16.9257 19.2322 17.4072 18.7775L18.6058 19.4687L19.8166 17.3758L18.6191 16.6847C18.772 16.0411 18.772 15.3707 18.6191 14.7272L19.8166 14.0348L18.6082 11.9408L17.4084 12.6331C16.9262 12.1781 16.3438 11.8429 15.7083 11.6544V10.2708H13.2892V11.6532C12.6543 11.8424 12.0728 12.178 11.5915 12.6331L10.3928 11.9408L9.18325 14.036L10.3807 14.7272C10.2278 15.3707 10.2278 16.0411 10.3807 16.6847H10.3819ZM14.4999 17.5184C14.2618 17.5186 14.026 17.4718 13.806 17.3809C13.5859 17.2899 13.386 17.1565 13.2175 16.9882C13.049 16.82 12.9153 16.6202 12.8241 16.4003C12.7328 16.1804 12.6858 15.9446 12.6856 15.7065C12.6854 15.4684 12.7322 15.2326 12.8232 15.0126C12.9141 14.7926 13.0475 14.5926 13.2158 14.4241C13.384 14.2556 13.5838 14.122 13.8037 14.0307C14.0237 13.9394 14.2594 13.8924 14.4975 13.8922C14.9782 13.8919 15.4394 14.0825 15.7795 14.4222C16.1196 14.7619 16.3109 15.2228 16.3112 15.7035C16.3115 16.1842 16.1209 16.6454 15.7812 16.9855C15.4415 17.3256 14.9806 17.5169 14.4999 17.5172V17.5184Z" fill="black"/>
</g>
<defs>
<clipPath id="clip0_110_298">
<rect width="29" height="29" fill="white"/>
</clipPath>
</defs>
</svg>
