<svg width="24" height="24" viewBox="0 0 24 24" fill="none" xmlns="http://www.w3.org/2000/svg">
<path d="M4.26007 10.147C3.98502 12.2526 3.82112 14.3712 3.76907 16.494C6.64786 17.6965 9.40423 19.1734 12.0001 20.904C14.5962 19.1733 17.3529 17.6965 20.2321 16.494C20.18 14.3712 20.0161 12.2526 19.7411 10.147M19.7411 10.147C20.6161 9.853 21.5031 9.581 22.3991 9.333C19.1356 7.04524 15.6521 5.08888 12.0001 3.493C8.34806 5.08922 4.86447 7.04591 1.60107 9.334C2.49436 9.58059 3.38069 9.8517 4.25907 10.147C6.92773 11.0441 9.51701 12.162 12.0001 13.489C14.4828 12.1621 17.0728 11.0442 19.7411 10.147ZM6.75007 15C6.94899 15 7.13975 14.921 7.2804 14.7803C7.42106 14.6397 7.50007 14.4489 7.50007 14.25C7.50007 14.0511 7.42106 13.8603 7.2804 13.7197C7.13975 13.579 6.94899 13.5 6.75007 13.5C6.55116 13.5 6.3604 13.579 6.21974 13.7197C6.07909 13.8603 6.00007 14.0511 6.00007 14.25C6.00007 14.4489 6.07909 14.6397 6.21974 14.7803C6.3604 14.921 6.55116 15 6.75007 15ZM6.75007 15V11.325C8.44681 10.2703 10.1994 9.30826 12.0001 8.443M4.99307 19.993C5.55105 19.4364 5.99351 18.775 6.29504 18.0469C6.59656 17.3187 6.75121 16.5381 6.75007 15.75V14.25" stroke="black" stroke-width="1.5" stroke-linecap="round" stroke-linejoin="round"/>
</svg>
