<svg width="160" height="129" viewBox="0 0 160 129" fill="none" xmlns="http://www.w3.org/2000/svg">
<g filter="url(#filter0_d_110_114)">
<path d="M79.875 120.455C121.779 120.455 155.75 117.276 155.75 113.355C155.75 109.434 121.779 106.255 79.875 106.255C37.9705 106.255 4 109.434 4 113.355C4 117.276 37.9705 120.455 79.875 120.455Z" fill="#E5E5E5"/>
<path d="M110 104.68C112.225 104.68 114.025 102.88 114.025 100.655V94.505C114.025 92.28 112.225 90.48 110 90.48C107.775 90.48 105.975 92.28 105.975 94.505V100.655C105.975 102.88 107.775 104.68 110 104.68Z" stroke="#4D4D61" stroke-width="0.75" stroke-miterlimit="10" stroke-linecap="round" stroke-linejoin="round"/>
<path d="M110 104.68C112.225 104.68 114.025 102.88 114.025 100.655V94.505C114.025 92.28 112.225 90.48 110 90.48C107.775 90.48 105.975 92.28 105.975 94.505V100.655C105.975 102.88 107.775 104.68 110 104.68Z" fill="#4D4D61"/>
<path d="M107.1 102.105V95.955C107.1 93.73 108.9 91.93 111.125 91.93C112.1 91.93 112.975 92.28 113.675 92.83C113.05 91.43 111.65 90.455 110 90.455C107.775 90.455 105.975 92.255 105.975 94.48V100.63C105.975 101.905 106.55 103.03 107.475 103.755C107.225 103.28 107.1 102.705 107.1 102.105Z" fill="#56566D"/>
<path d="M109.95 92.105C111.179 92.105 112.175 91.747 112.175 91.305C112.175 90.8633 111.179 90.505 109.95 90.505C108.721 90.505 107.725 90.8633 107.725 91.305C107.725 91.747 108.721 92.105 109.95 92.105Z" fill="#4D4D61"/>
<path d="M110 91.305C110.825 91.305 111.5 90.63 111.5 89.805V82.88C111.5 82.18 110.925 81.605 110.225 81.605H109.8C109.1 81.605 108.525 82.18 108.525 82.88V89.805C108.5 90.63 109.175 91.305 110 91.305Z" fill="#4D4D61"/>
<path d="M110 91.305C110.825 91.305 111.5 90.63 111.5 89.805V82.855C111.5 82.155 110.95 81.605 110.25 81.605H109.775C109.075 81.605 108.525 82.155 108.525 82.855V89.805C108.5 90.63 109.175 91.305 110 91.305Z" stroke="#4D4D61" stroke-width="0.75" stroke-miterlimit="10" stroke-linecap="round" stroke-linejoin="round"/>
<path d="M78.5 30.055H74.225C73.425 30.055 72.775 29.405 72.775 28.605C72.775 27.805 73.425 27.155 74.225 27.155H76.025C77.45 27.155 78.6 26.005 78.6 24.58C78.6 23.155 77.45 22.005 76.025 22.005H70.375C70.15 22.005 69.95 21.805 69.95 21.58C69.95 21.355 70.15 21.155 70.375 21.155H71C71.25 21.155 71.45 20.955 71.45 20.705C71.45 20.455 71.25 20.255 71 20.255H66.575C66.275 20.255 66.025 20.505 66.025 20.805C66.025 21.105 66.275 21.355 66.575 21.355H68.3C68.8 21.355 69.225 21.78 69.225 22.28C69.225 22.78 68.8 23.205 68.3 23.205H67.475C66.3 23.205 65.325 24.155 65.325 25.355C65.325 26.555 66.275 27.505 67.475 27.505H69.225C69.625 27.505 69.95 27.83 69.95 28.23C69.95 28.63 69.625 28.955 69.225 28.955H68.55C67.775 28.955 67.15 29.58 67.15 30.355C67.15 31.13 67.775 31.755 68.55 31.755H77.675C78.175 31.755 78.6 32.18 78.575 32.68L78.55 33.38H80.375V31.93C80.325 30.88 79.5 30.055 78.5 30.055ZM72.575 24.63C72.575 24.405 72.75 24.205 73 24.205H75.475C75.7 24.205 75.9 24.38 75.9 24.63C75.9 24.855 75.725 25.055 75.475 25.055H73C72.75 25.03 72.575 24.855 72.575 24.63Z" fill="#E5E5E5"/>
<path d="M65.25 20.155H64.5C64.225 20.155 64 19.93 64 19.655C64 19.38 64.225 19.155 64.5 19.155H65.25C65.525 19.155 65.75 19.38 65.75 19.655C65.75 19.93 65.525 20.155 65.25 20.155Z" fill="#E5E5E5"/>
<path d="M125.425 76.43L124.375 74.705C124.15 74.33 124.275 73.83 124.65 73.58C125.025 73.355 125.525 73.48 125.775 73.855L126.825 75.58C127.05 75.955 126.925 76.455 126.55 76.705C126.15 76.955 125.65 76.83 125.425 76.43Z" fill="#4D4D61"/>
<path d="M127.425 75.78L125.725 74.705C125.35 74.455 125.225 73.955 125.475 73.58C125.725 73.205 126.225 73.08 126.6 73.33L128.3 74.405C128.675 74.655 128.8 75.155 128.55 75.53C128.325 75.905 127.825 76.005 127.425 75.78Z" fill="#4D4D61"/>
<path d="M128.8 74.43L126.8 74.155C126.35 74.105 126.05 73.68 126.1 73.23C126.15 72.78 126.575 72.48 127.025 72.53L129.025 72.805C129.475 72.855 129.775 73.28 129.725 73.73C129.65 74.18 129.25 74.48 128.8 74.43Z" fill="#4D4D61"/>
<path d="M129.5 72.78L127.5 73.055C127.05 73.13 126.65 72.805 126.575 72.355C126.5 71.905 126.825 71.505 127.275 71.43L129.275 71.155C129.725 71.08 130.125 71.405 130.2 71.855C130.25 72.305 129.95 72.705 129.5 72.78Z" fill="#4D4D61"/>
<path d="M129.8 71.08L127.875 71.68C127.45 71.805 127 71.58 126.85 71.13C126.725 70.705 126.95 70.255 127.4 70.105L129.325 69.505C129.75 69.38 130.2 69.605 130.35 70.055C130.45 70.505 130.225 70.955 129.8 71.08Z" fill="#4D4D61"/>
<path d="M129.85 69.33L127.975 70.055C127.55 70.205 127.075 70.005 126.925 69.58C126.775 69.155 126.975 68.68 127.4 68.53L129.275 67.805C129.7 67.655 130.175 67.855 130.325 68.28C130.475 68.705 130.275 69.155 129.85 69.33Z" fill="#4D4D61"/>
<path d="M129.8 67.58L128 68.505C127.6 68.705 127.1 68.555 126.9 68.155C126.7 67.755 126.85 67.255 127.25 67.055L129.05 66.13C129.45 65.93 129.95 66.08 130.15 66.48C130.35 66.88 130.2 67.38 129.8 67.58Z" fill="#4D4D61"/>
<path d="M129.65 66.405L127.85 67.33C127.45 67.53 126.95 67.38 126.75 66.98C126.55 66.58 126.7 66.08 127.1 65.88L128.9 64.955C129.3 64.755 129.8 64.905 130 65.305C130.2 65.705 130.05 66.205 129.65 66.405Z" fill="#4D4D61"/>
<path d="M81.6501 34.905C79.8251 34.905 78.3501 36.38 78.3501 38.205C78.3501 40.03 79.8251 41.505 81.6501 41.505C83.4751 41.505 84.9501 40.03 84.9501 38.205C84.9501 36.38 83.4751 34.905 81.6501 34.905ZM81.6501 40.23C80.5501 40.23 79.6501 39.33 79.6501 38.23C79.6501 37.13 80.5501 36.23 81.6501 36.23C82.7501 36.23 83.6501 37.13 83.6501 38.23C83.6501 39.33 82.7501 40.23 81.6501 40.23Z" stroke="#4D4D61" stroke-width="0.75" stroke-miterlimit="10" stroke-linecap="round" stroke-linejoin="round"/>
<path d="M84.375 36.48H84.025H81.525C80.775 36.48 80.275 37.28 80.65 37.955C81.175 38.955 82.25 39.655 83.475 39.655H83.8V43.405H87.225V39.305C87.2 37.755 85.925 36.48 84.375 36.48Z" fill="#F7E3CB"/>
<path d="M84.375 36.48H84.0249H82.95C84.525 36.48 85.8 37.755 85.8 39.33V43.43H87.225V39.33C87.2 37.755 85.925 36.48 84.375 36.48Z" fill="#EDD6BC"/>
<path d="M84.3751 36.48H84.0251H81.1501C80.6251 36.48 80.2751 36.98 80.4251 37.455C80.8501 38.73 82.0501 39.655 83.4501 39.655H83.7751V43.405H87.2001V39.305C87.2001 37.755 85.9251 36.48 84.3751 36.48Z" stroke="#4D4D61" stroke-width="0.75" stroke-miterlimit="10" stroke-linecap="round" stroke-linejoin="round"/>
<path d="M74.75 42.93H79.55C80.6 42.93 81.475 42.08 81.475 41.005V33.53H72.825V41.005C72.825 42.055 73.675 42.93 74.75 42.93Z" fill="#FFD680"/>
<path d="M72.825 40.23H73.95C75.5 40.23 76.725 38.98 76.725 37.455V36.38L77.3 36.83" stroke="#4D4D61" stroke-width="0.5" stroke-miterlimit="10" stroke-linecap="round" stroke-linejoin="round"/>
<path d="M78.9499 33.505V40.98C78.9499 42.03 78.0999 42.905 77.0249 42.905H79.5249C80.5749 42.905 81.4499 42.055 81.4499 40.98V33.505H78.9499Z" fill="#EABD6C"/>
<path d="M74.75 42.93H79.55C80.6 42.93 81.475 42.08 81.475 41.005V33.53H72.825V41.005C72.825 42.055 73.675 42.93 74.75 42.93Z" stroke="#4D4D61" stroke-width="0.75" stroke-miterlimit="10" stroke-linecap="round" stroke-linejoin="round"/>
<path d="M96.05 43.68L97.3 46.255L99.15 44.98L96.05 43.68Z" fill="#CA4361"/>
<path d="M96.05 43.68L97.3 46.255L99.15 44.98L96.05 43.68Z" stroke="#4D4D61" stroke-width="0.5" stroke-miterlimit="10" stroke-linecap="round" stroke-linejoin="round"/>
<path d="M100.298 102.46L103.718 100.336L89.459 77.3785L86.0398 79.5022L100.298 102.46Z" fill="#F7E3CB"/>
<path d="M100.298 102.46L103.718 100.336L89.459 77.3785L86.0398 79.5022L100.298 102.46Z" stroke="#4D4D61" stroke-width="0.75" stroke-miterlimit="10" stroke-linecap="round" stroke-linejoin="round"/>
<path d="M48.7749 95.705L75.2499 74.405L77.7999 77.48L51.3249 98.805L48.7749 95.705Z" fill="#F7E3CB"/>
<path d="M51.675 93.38L54.1 96.58L56.5 94.705L54.075 91.43L51.675 93.38Z" fill="#EDD6BC"/>
<path d="M48.7749 95.705L75.2499 74.405L77.7999 77.48L51.3249 98.805L48.7749 95.705Z" stroke="#4D4D61" stroke-width="0.75" stroke-miterlimit="10" stroke-linecap="round" stroke-linejoin="round"/>
<path d="M105.75 43.68L103.85 41.48C103.05 40.555 101.65 40.455 100.725 41.23C99.7749 42.03 99.6749 43.455 100.475 44.38L102.375 46.58C105.375 50.055 105 55.33 101.5 58.33C98.0249 61.33 92.7499 60.955 89.7499 57.455C88.4499 55.93 87.7249 54.005 87.7249 52.005V42.955H83.2749V52.03C83.2749 55.105 84.3749 58.055 86.3749 60.38C90.9999 65.73 99.0749 66.33 104.425 61.705C109.775 57.13 110.35 49.03 105.75 43.68Z" stroke="#4D4D61" stroke-width="0.75" stroke-miterlimit="10" stroke-linecap="round" stroke-linejoin="round"/>
<path d="M98.575 44.98C98.575 44.98 101.45 47.855 103.3 50.455C105.125 53.03 106.475 56.455 106.475 57.13C107.525 57.805 107.8 58.18 107.975 58.005C108.15 57.83 108.15 56.83 108.15 55.955C108.15 55.055 100.025 44.005 98.575 44.98Z" fill="#CA4361"/>
<path d="M98.575 44.98C98.575 44.98 101.45 47.855 103.3 50.455C105.125 53.03 106.475 56.455 106.475 57.13C107.525 57.805 107.8 58.18 107.975 58.005C108.15 57.83 108.15 56.83 108.15 55.955C108.15 55.055 100.025 44.005 98.575 44.98Z" stroke="#4D4D61" stroke-width="0.5" stroke-miterlimit="10" stroke-linecap="round" stroke-linejoin="round"/>
<path d="M107.325 103.03L87.7999 108.955C87.4499 109.055 87.0749 108.855 86.9499 108.505L86.9249 108.455C86.8249 108.105 87.0249 107.73 87.3749 107.605L106.9 101.68C107.25 101.58 107.625 101.78 107.75 102.13L107.775 102.18C107.875 102.555 107.675 102.93 107.325 103.03Z" fill="#595D5C"/>
<path d="M107.325 103.03L87.7999 108.955C87.4499 109.055 87.0749 108.855 86.9499 108.505L86.9249 108.455C86.8249 108.105 87.0249 107.73 87.3749 107.605L106.9 101.68C107.25 101.58 107.625 101.78 107.75 102.13L107.775 102.18C107.875 102.555 107.675 102.93 107.325 103.03Z" stroke="#4D4D61" stroke-width="0.75" stroke-miterlimit="10" stroke-linecap="round" stroke-linejoin="round"/>
<path d="M104.2 98.005L104.125 98.03C103.7 98.78 102.8 99.455 101.65 99.805C100.8 100.055 99.9501 100.105 99.2501 99.93C98.6251 99.78 97.9751 99.755 97.3501 99.93L89.6501 102.08C88.7251 102.33 88.0001 103.03 87.6251 104.005L86.8001 106.155C86.5251 106.88 87.1501 107.705 87.8251 107.505L106.725 101.755L105.925 99.155C105.675 98.33 104.9 97.83 104.2 98.005Z" fill="#9B8462"/>
<path d="M87.625 104.03L87.5 104.38C88.15 104.88 89.025 105.08 89.9 104.83L101.7 101.23C102.825 100.88 103.525 99.88 103.55 98.755C103.075 99.205 102.425 99.58 101.675 99.805C100.825 100.055 99.975 100.105 99.275 99.93C98.65 99.78 98 99.755 97.375 99.93L89.675 102.08C88.725 102.33 88 103.03 87.625 104.03Z" fill="#E1C885"/>
<path d="M104.2 98.005L104.125 98.03C103.7 98.78 102.8 99.455 101.65 99.805C100.8 100.055 99.9501 100.105 99.2501 99.93C98.6251 99.78 97.9751 99.755 97.3501 99.93L89.6501 102.08C88.7251 102.33 88.0001 103.03 87.6251 104.005L86.8001 106.155C86.5251 106.88 87.1501 107.705 87.8251 107.505L106.725 101.755L105.925 99.155C105.675 98.33 104.9 97.83 104.2 98.005Z" stroke="#4D4D61" stroke-width="0.75" stroke-miterlimit="10" stroke-linecap="round" stroke-linejoin="round"/>
<path d="M97.3501 102.18L98.6751 99.83L97.6751 99.855L97.3501 102.18Z" stroke="#4D4D61" stroke-width="0.75" stroke-miterlimit="10" stroke-linecap="round" stroke-linejoin="round"/>
<path d="M93.625 38.505C104.275 45.155 111.6 55.88 114.05 68.03H117.5C115.55 55.63 108.525 44.58 98.05 37.53" fill="#F7E3CB"/>
<path d="M114.4 80.98L117.175 79.18H103.15L105.925 80.98C108.525 82.655 111.825 82.655 114.4 80.98Z" stroke="#4D4D61" stroke-width="0.75" stroke-miterlimit="10" stroke-linecap="round" stroke-linejoin="round"/>
<path d="M114.4 80.98L117.175 79.18H103.15L105.925 80.98C108.525 82.655 111.825 82.655 114.4 80.98Z" fill="#4D4D61"/>
<path d="M97.25 37.905C100.125 36.705 102.175 33.855 102.175 30.53V27.83H102.725C104.625 27.83 106.175 26.28 106.175 24.38C106.175 22.48 104.85 20.705 102.925 20.705L102 20.78L102.15 16.53C102.15 12.105 98.5749 8.53 94.1499 8.53C89.7249 8.53 86.1499 12.105 86.1499 16.53V20.905H83.7749C83.0499 20.905 82.45 21.505 82.45 22.23C82.45 24.18 84.025 25.78 86 25.78H86.175V30.53C86.175 34.755 89.475 38.23 93.625 38.505" fill="#F7E3CB"/>
<path d="M122.725 74.355H95.7499C95.6499 74.355 95.5749 74.355 95.4749 74.38C93.3999 74.53 91.7749 76.355 91.9249 78.505C92.0499 80.43 93.6499 82.005 95.5999 82.105C96.3749 82.13 97.0999 81.955 97.6999 81.605C100.25 80.13 103.1 79.23 106.075 79.23H122.725C124.05 79.23 125.125 78.155 125.125 76.83C125.15 75.455 124.05 74.355 122.725 74.355Z" fill="#CA4361"/>
<path d="M96.0749 79.83C95.9249 77.68 97.5499 75.88 99.6249 75.705C99.6999 75.705 99.7999 75.68 99.8999 75.68H124.9C124.5 74.88 123.7 74.355 122.75 74.355H95.7499C95.6499 74.355 95.5749 74.355 95.4749 74.38C93.3999 74.53 91.7749 76.355 91.9249 78.505C92.0499 80.43 93.6499 82.005 95.5999 82.105C96.0499 82.13 96.4749 82.08 96.8749 81.955C96.4249 81.33 96.1249 80.605 96.0749 79.83Z" fill="#D35375"/>
<path d="M122.725 74.355H95.7499C95.6499 74.355 95.5749 74.355 95.4749 74.38C93.3999 74.53 91.7749 76.355 91.9249 78.505C92.0499 80.43 93.6499 82.005 95.5999 82.105C96.3749 82.13 97.0999 81.955 97.6999 81.605C100.25 80.13 103.1 79.23 106.075 79.23H122.725C124.05 79.23 125.125 78.155 125.125 76.83C125.15 75.455 124.05 74.355 122.725 74.355Z" stroke="#4D4D61" stroke-width="0.75" stroke-miterlimit="10" stroke-linecap="round" stroke-linejoin="round"/>
<path d="M119.62 106.826L120.301 105.106L112.864 102.16L112.183 103.88L119.62 106.826Z" fill="#4D4D61"/>
<path d="M101.075 106.805L100.4 105.105L106.975 102.505C107.45 102.33 107.975 102.555 108.175 103.03C108.35 103.505 108.125 104.03 107.65 104.23L101.075 106.805Z" fill="#4D4D61"/>
<path d="M106.075 25.08L104.925 31.23C104.45 33.705 102.175 35.405 99.6749 35.105H99.6499L102.6 22.68L106.075 25.08Z" fill="#A3886C"/>
<path d="M106.075 25.08L104.925 31.23C104.45 33.705 102.175 35.405 99.6749 35.105H99.6499L102.6 22.68L106.075 25.08Z" stroke="#4D4D61" stroke-width="0.75" stroke-miterlimit="10" stroke-linecap="round" stroke-linejoin="round"/>
<path d="M86.15 26.205V25.63C86.15 24.83 85.45 24.23 84.675 24.38L83.75 24.705L86.15 26.205Z" fill="#EDD6BC"/>
<path d="M102.6 20.905H102.15V16.63C100.225 19.605 97.2251 23.53 97.2251 23.53V28.63V28.905C97.2251 32.83 94.05 36.005 90.125 36.005H88.3C89.75 37.555 91.825 38.53 94.125 38.53C98.55 38.53 102.125 34.955 102.125 30.53V27.83H102.675C104.65 27.83 106.225 26.18 106.125 24.205C106.075 22.33 104.45 20.905 102.6 20.905Z" fill="#EDD6BC"/>
<path d="M98.05 37.53C100.5 36.155 102.175 33.555 102.175 30.53V27.83H102.725C104.625 27.83 106.175 26.28 106.175 24.38C106.175 22.48 104.85 20.705 102.925 20.705L102 20.78L102.15 16.53C102.15 12.105 98.5749 8.53 94.1499 8.53C89.7249 8.53 86.1499 12.105 86.1499 16.53V20.905H83.7749C83.0499 20.905 82.45 21.505 82.45 22.23C82.45 24.18 84.025 25.78 86 25.78H86.175V30.53C86.175 34.755 89.475 38.23 93.625 38.505" stroke="#4D4D61" stroke-width="0.75" stroke-miterlimit="10" stroke-linecap="round" stroke-linejoin="round"/>
<path d="M89.2749 19.655C89.5512 19.655 89.7749 19.431 89.7749 19.155C89.7749 18.8787 89.5512 18.655 89.2749 18.655C88.9989 18.655 88.7749 18.8787 88.7749 19.155C88.7749 19.431 88.9989 19.655 89.2749 19.655Z" stroke="#4D4D61" stroke-width="0.5" stroke-miterlimit="10"/>
<path d="M94 24.255V28.305C94 30.88 91.9 32.98 89.325 32.98C87.575 32.98 86.175 31.555 86.175 29.83" stroke="#4D4D61" stroke-width="0.5" stroke-miterlimit="10" stroke-linecap="round" stroke-linejoin="round"/>
<path d="M93.55 24.03L94.45 24.505" stroke="#4D4D61" stroke-width="0.5" stroke-miterlimit="10" stroke-linecap="round" stroke-linejoin="round"/>
<path d="M90.2999 14.455L89.3999 16.205L92.9249 18.355L93.1499 16.855L90.2999 14.455Z" fill="#B0977A"/>
<path d="M90.2999 14.455L90.0249 15.005C90.9999 15.28 91.7249 16.13 91.7249 17.18C91.7249 17.33 91.6999 17.48 91.6749 17.605L92.9249 18.38L93.1499 16.88L90.2999 14.455Z" fill="#A3886C"/>
<path d="M90.2999 14.455L89.3999 16.205L92.9249 18.355L93.1499 16.855L90.2999 14.455Z" stroke="#4D4D61" stroke-width="0.5" stroke-miterlimit="10" stroke-linecap="round" stroke-linejoin="round"/>
<path d="M107.475 12.13C108.325 12.655 108.7 12.805 109.525 12.805C108.1 10.805 107.75 6.87997 105.625 4.40497C104.675 3.27997 103.6 2.05498 101.55 1.42998C98.025 0.379976 94.7 1.55497 94.275 1.77997C91.7 3.15497 89.125 6.30498 89.875 9.00498C89.95 9.30498 89.7 9.50498 89.875 9.72998C92.7 7.57998 97.15 8.22998 99.25 11.13C100.925 13.43 100.475 17.18 98.85 19.33C98.375 19.805 98.175 21.405 97.475 23.005L99.35 21.855C101.275 20.68 104.175 21.03 105.775 22.63C106.05 23.105 106.225 23.605 106.3 24.105C106.5 23.98 106.75 23.83 107.05 23.58C108.9 22.03 109.225 19.68 109.3 19.08C109.85 15.53 107.875 12.58 107.475 12.13Z" fill="#B0977A"/>
<path d="M109.55 12.83C108.125 10.83 107.775 6.90498 105.65 4.42998C104.825 3.45498 103.9 2.37998 102.3 1.72998C104.05 3.75498 105.125 6.40498 105.125 9.30498C105.125 13.855 102.5 17.78 98.675 19.68C98.325 20.355 98.1 21.705 97.5 23.055L99.375 21.905C101.3 20.73 104.2 21.08 105.8 22.68C106.075 23.155 106.25 23.655 106.325 24.155C106.525 24.03 106.775 23.88 107.075 23.63C108.925 22.08 109.25 19.73 109.325 19.13C109.825 15.555 107.825 12.58 107.45 12.155C108.35 12.68 108.725 12.83 109.55 12.83Z" fill="#A3886C"/>
<path d="M107.475 12.13C108.325 12.655 108.7 12.805 109.525 12.805C108.1 10.805 107.75 6.87997 105.625 4.40497C104.675 3.27997 103.6 2.05498 101.55 1.42998C98.025 0.379976 94.7 1.55497 94.275 1.77997C91.7 3.15497 89.125 6.30498 89.875 9.00498C89.95 9.30498 89.7 9.50498 89.875 9.72998C92.7 7.57998 97.15 8.22998 99.25 11.13C100.925 13.43 100.475 17.18 98.85 19.33C98.375 19.805 98.175 21.405 97.475 23.005L100.3 21.305C102.175 20.155 104.65 20.755 105.775 22.655C106.05 23.13 106.225 23.63 106.3 24.13C106.5 24.005 106.75 23.855 107.05 23.605C108.9 22.055 109.225 19.705 109.3 19.105C109.85 15.53 107.875 12.58 107.475 12.13Z" stroke="#4D4D61" stroke-width="0.75" stroke-miterlimit="10" stroke-linecap="round" stroke-linejoin="round"/>
<path d="M101.125 23.18L104.1 25.305" stroke="#4D4D61" stroke-width="0.5" stroke-miterlimit="10" stroke-linecap="round" stroke-linejoin="round"/>
<path d="M103.725 22.68L101.6 25.655" stroke="#4D4D61" stroke-width="0.5" stroke-miterlimit="10" stroke-linecap="round" stroke-linejoin="round"/>
<path d="M86.7249 24.83L86.9999 25.08C86.9999 25.08 87.4999 24.555 88.1499 24.83C87.9749 24.48 86.5249 24.305 86.7249 24.83Z" stroke="#4D4D61" stroke-width="0.5" stroke-miterlimit="10" stroke-linecap="round" stroke-linejoin="round"/>
<path d="M93.625 38.505C104.275 45.155 111.6 55.88 114.05 68.03H117.5C115.55 55.63 108.525 44.58 98.05 37.53" stroke="#4D4D61" stroke-width="0.75" stroke-miterlimit="10" stroke-linecap="round" stroke-linejoin="round"/>
<path d="M81.0405 73.541L96.357 98.1977L101.475 95.0182L86.1588 70.3615L81.0405 73.541Z" fill="#475C80"/>
<path opacity="0.57" d="M84.075 78.605L95.1 96.18C95.8 95.73 97.925 96.705 97.475 96.005L87.3999 80.93C86.9499 80.23 85.025 78.405 84.3 78.855L84.075 78.605Z" fill="#6987AF"/>
<path d="M83.6 77.655C83.6 77.655 88.325 76.18 89.95 76.48C88.3 73.305 87.7 72.68 87.7 72.68L81.375 74.73L83.6 77.655Z" fill="#4D4D61"/>
<path d="M81.0405 73.541L96.357 98.1977L101.475 95.0182L86.1588 70.3615L81.0405 73.541Z" stroke="#4D4D61" stroke-width="0.75" stroke-miterlimit="10" stroke-linecap="round" stroke-linejoin="round"/>
<path d="M71.9 75.505L52.625 91.405L56.45 96.055L74.05 81.53C79.7 76.855 86.825 74.305 94.15 74.305H115.975C117.625 74.305 118.975 72.955 118.975 71.305V68.305H91.975C84.65 68.28 77.55 70.83 71.9 75.505Z" fill="#475C80"/>
<path opacity="0.57" d="M53.825 90.405L55.525 92.78L75.65 74.755L74.625 73.48C73.675 74.105 72.775 74.78 71.9 75.505L53.825 90.405Z" fill="#6987AF"/>
<path opacity="0.57" d="M87.6251 69.83L110.15 70.13C111.325 70.13 115.275 69.43 115.275 68.255H92.0251C89.6251 68.255 82.0751 69.43 79.3001 70.93C78.5751 71.33 84.2501 69.83 87.6251 69.83Z" fill="#6987AF"/>
<path d="M71.9 75.505L52.625 91.405L56.45 96.055L74.05 81.53C79.7 76.855 86.825 74.305 94.15 74.305H115.975C117.625 74.305 118.975 72.955 118.975 71.305V68.305H91.975C84.65 68.28 77.55 70.83 71.9 75.505Z" stroke="#4D4D61" stroke-width="0.75" stroke-miterlimit="10" stroke-linecap="round" stroke-linejoin="round"/>
<path d="M119 68.03C117.275 56.78 111.45 46.505 102.775 39.23L97.3 43.03C105.075 49.38 110.45 58.23 112.5 68.03H119Z" fill="#E5E5E5"/>
<path d="M112.5 68.03H115.25C113.125 57.68 107.525 48.305 99.45 41.53L97.3 43.03C105.075 49.355 110.45 58.23 112.5 68.03Z" fill="white"/>
<path d="M119 68.03C117.275 56.78 111.45 46.505 102.775 39.23L97.3 43.03C105.075 49.38 110.45 58.23 112.5 68.03H119Z" stroke="#4D4D61" stroke-width="0.75" stroke-miterlimit="10" stroke-linecap="round" stroke-linejoin="round"/>
<path d="M79.0501 50.68C79.0501 50.68 76.9751 52.405 77.1501 48.855C77.2251 47.23 79.3501 47.28 79.3501 47.28L79.5751 48.805L79.0501 50.68Z" fill="#B0977A"/>
<path d="M79.0501 50.68C79.0501 50.68 76.9751 52.405 77.1501 48.855C77.2251 47.23 79.3501 47.28 79.3501 47.28L79.5751 48.805L79.0501 50.68Z" stroke="#4D4D61" stroke-width="0.75" stroke-miterlimit="10" stroke-linecap="round" stroke-linejoin="round"/>
<path d="M85.1751 46.83C84.1751 48.23 82.6251 49.13 80.9001 49.305C79.6001 49.43 79.6251 46.43 77.6001 49.98C76.8001 50.405 75.8501 49.555 75.4251 49.055C75.3001 48.905 75.3001 48.68 75.4501 48.555C75.8251 48.23 76.5251 47.455 76.8501 46.105C77.0751 44.805 77.5001 43.855 78.5251 44.405C79.4251 44.88 85.0251 44.205 85.1751 46.83Z" fill="#EDD6BC"/>
<path d="M85.175 46.83C84.175 48.23 82.625 49.13 80.9 49.305C79.6 49.43 79.625 46.43 77.6 49.98C76.8 50.405 75.875 49.555 75.425 49.08C75.275 48.93 75.3 48.68 75.45 48.555C75.85 48.205 76.525 47.455 76.825 46.105C77.05 44.805 77.475 43.855 78.5 44.405C79.425 44.88 85.025 44.205 85.175 46.83Z" stroke="#4D4D61" stroke-width="0.75" stroke-miterlimit="10" stroke-linecap="round" stroke-linejoin="round"/>
<path d="M85.8999 49.78C85.8999 49.78 85.175 47.68 83.225 46.68C83.025 47.455 82.025 48.23 81.05 48.505L81.6 49.455C82.025 50.23 81.675 51.205 80.85 51.48C80.125 51.73 79.35 51.38 79.05 50.68L77.825 46.955C77.825 46.955 80.225 46.08 80.95 45.33C81.45 44.83 82.625 42.955 82.625 42.955C82.625 42.955 84.7999 43.48 86.2749 44.955C87.4999 46.18 88.6 48.255 88.6 48.255L85.8999 49.78Z" fill="#EDD6BC"/>
<path d="M80.5 51.38L79.275 47.655C79.275 47.655 81.675 46.78 82.4 46.03C82.9 45.53 84.075 43.655 84.075 43.655C84.075 43.655 84.4 43.73 84.9 43.93C83.725 43.23 82.6 42.955 82.6 42.955C82.6 42.955 81.425 44.83 80.925 45.33C80.175 46.055 77.8 46.955 77.8 46.955L79.025 50.68C79.275 51.305 79.925 51.655 80.575 51.53C80.55 51.48 80.525 51.43 80.5 51.38Z" fill="#F7E3CB"/>
<path d="M84.675 47.38C84.65 47.48 84.6 47.58 84.55 47.68C85.5 48.68 85.9 49.78 85.9 49.78L86.75 49.305C86.325 48.655 85.65 47.88 84.675 47.38Z" fill="#F7E3CB"/>
<path d="M85.8999 49.78C85.8999 49.78 85.175 47.68 83.225 46.68C83.025 47.455 82.025 48.23 81.05 48.505L81.6 49.455C82.025 50.23 81.675 51.205 80.85 51.48C80.125 51.73 79.35 51.38 79.05 50.68L77.825 46.955C77.825 46.955 80.225 46.08 80.95 45.33C81.45 44.83 82.625 42.955 82.625 42.955C82.625 42.955 84.7999 43.48 86.2749 44.955C87.4999 46.18 88.6 48.255 88.6 48.255L85.8999 49.78Z" stroke="#4D4D61" stroke-width="0.75" stroke-miterlimit="10" stroke-linecap="round" stroke-linejoin="round"/>
<path d="M79.05 49.98L79.8 49.755C79.8 49.755 80.175 50.13 80.175 50.48C80.175 50.83 79.3 51.105 79.3 51.105C79.3 51.105 78.725 50.28 79.05 49.98Z" stroke="#4D4D61" stroke-width="0.5" stroke-miterlimit="10" stroke-linecap="round" stroke-linejoin="round"/>
<path d="M76.125 47.905L76.725 48.405C76.725 48.405 76.625 48.93 76.325 49.105C76.05 49.28 75.325 48.73 75.325 48.73C75.325 48.73 75.7 47.805 76.125 47.905Z" stroke="#4D4D61" stroke-width="0.5" stroke-miterlimit="10" stroke-linecap="round" stroke-linejoin="round"/>
<path d="M89.0249 47.705L95.3999 59.93C96.3249 61.705 97.85 63.08 99.725 63.83C104 65.53 108.85 63.43 110.55 59.155C112.25 54.88 110.15 50.03 105.875 48.33L103.175 47.255C102.025 46.805 101.475 45.48 101.925 44.355C102.375 43.23 103.675 42.68 104.825 43.13L107.525 44.205C114.1 46.805 117.3 54.255 114.7 60.805C112.1 67.38 104.65 70.58 98.1 67.98C95.25 66.855 92.9 64.73 91.475 62.005L85.2 49.98L89.0249 47.705Z" fill="#E5E5E5"/>
<path d="M90.75 51.005L89.025 47.705L85.175 49.98L86.875 53.23L90.75 51.005Z" fill="#E5E5E5"/>
<path d="M85.175 49.98L91.45 62.005C91.675 62.43 91.925 62.855 92.2 63.255C92.05 62.38 92.95 64.255 92.95 64.255L86.55 49.13L85.175 49.98Z" fill="white"/>
<path d="M90.75 51.005L89.025 47.705L85.175 49.98L86.875 53.23L90.75 51.005Z" stroke="#4D4D61" stroke-width="0.75" stroke-miterlimit="10" stroke-linecap="round" stroke-linejoin="round"/>
<path d="M102.25 45.78C102.7 44.655 104 44.105 105.15 44.555L107.85 45.63C111.7 47.155 114.4 50.355 115.45 54.08C114.75 49.78 111.875 45.93 107.55 44.205L104.85 43.13C103.7 42.68 102.425 43.23 101.95 44.355C101.675 45.03 101.75 45.78 102.125 46.355C102.125 46.155 102.175 45.98 102.25 45.78Z" fill="white"/>
<path d="M89.3499 48.33L94.5749 60.255C95.8999 62.655 97.5249 64.53 99.3749 65.255C103.65 66.955 109.125 64.855 110.825 60.58C111.55 58.73 111.575 56.7797 111.025 55.0297C111.2 56.3797 111.05 57.8047 110.5 59.1547C108.8 63.4297 103.95 65.53 99.6749 63.83C97.8249 63.08 96.2749 61.705 95.3499 59.93L89.0249 47.705" fill="white"/>
<path d="M89.0249 47.705L95.3999 59.93C96.3249 61.705 97.85 63.08 99.725 63.83C104 65.53 108.85 63.43 110.55 59.155C112.25 54.88 110.15 50.03 105.875 48.33L103.175 47.255C102.025 46.805 101.475 45.48 101.925 44.355C102.375 43.23 103.675 42.68 104.825 43.13L107.525 44.205C114.1 46.805 117.3 54.255 114.7 60.805C112.1 67.38 104.65 70.58 98.1 67.98C95.25 66.855 92.9 64.73 91.475 62.005L85.2 49.98L89.0249 47.705Z" stroke="#4D4D61" stroke-width="0.75" stroke-miterlimit="10" stroke-linecap="round" stroke-linejoin="round"/>
<path d="M102.875 38.53L98.8501 45.505L94.3 42.505L101.025 37.78L102.875 38.53Z" fill="#E5E5E5"/>
<path d="M99.5 38.855L94.3 42.505L96.3501 43.855C96.3751 43.83 96.4 43.83 96.425 43.805C98.7 42.555 100 40.43 99.5 38.855Z" fill="white"/>
<path d="M102.875 38.53L98.8501 45.505L94.3 42.505L101.025 37.78L102.875 38.53Z" stroke="#4D4D61" stroke-width="0.75" stroke-miterlimit="10" stroke-linecap="round" stroke-linejoin="round"/>
<path d="M97.325 111.805C100.031 111.805 102.225 109.611 102.225 106.905C102.225 104.199 100.031 102.005 97.325 102.005C94.6188 102.005 92.425 104.199 92.425 106.905C92.425 109.611 94.6188 111.805 97.325 111.805Z" fill="#56566D"/>
<path opacity="0.44" d="M94.4999 109.355C94.4999 106.655 96.6999 104.455 99.3999 104.455C100.3 104.455 101.15 104.705 101.875 105.13C101.15 103.305 99.3749 102.005 97.2999 102.005C94.5999 102.005 92.3999 104.205 92.3999 106.905C92.3999 108.705 93.3749 110.28 94.8249 111.13C94.6249 110.58 94.4999 109.98 94.4999 109.355Z" fill="#66667C"/>
<path d="M97.325 111.805C100.031 111.805 102.225 109.611 102.225 106.905C102.225 104.199 100.031 102.005 97.325 102.005C94.6188 102.005 92.425 104.199 92.425 106.905C92.425 109.611 94.6188 111.805 97.325 111.805Z" stroke="#4D4D61" stroke-width="0.75" stroke-miterlimit="10" stroke-linecap="round" stroke-linejoin="round"/>
<path d="M97.3249 109.33C98.6642 109.33 99.7499 108.244 99.7499 106.905C99.7499 105.565 98.6642 104.48 97.3249 104.48C95.9857 104.48 94.8999 105.565 94.8999 106.905C94.8999 108.244 95.9857 109.33 97.3249 109.33Z" stroke="#4D4D61" stroke-width="0.75" stroke-miterlimit="10" stroke-linecap="round" stroke-linejoin="round"/>
<path d="M97.3249 109.33C98.6642 109.33 99.7499 108.244 99.7499 106.905C99.7499 105.565 98.6642 104.48 97.3249 104.48C95.9857 104.48 94.8999 105.565 94.8999 106.905C94.8999 108.244 95.9857 109.33 97.3249 109.33Z" fill="#4D4D61"/>
<path d="M103.025 104.48C102.2 104.48 101.45 104.13 100.875 103.53C99.975 102.58 98.725 102.005 97.325 102.005C95.95 102.005 94.725 102.555 93.825 103.48C93.2 104.105 92.4 104.48 91.525 104.48H91.5C92.45 102.205 94.7 100.605 97.325 100.605C99.95 100.605 102.2 102.205 103.15 104.48H103.025Z" fill="#CA4361"/>
<path d="M95.8 100.78C93.85 101.255 92.275 102.655 91.5 104.48H91.525C92.375 104.48 93.175 104.155 93.75 103.555C94.25 103.03 95.275 102.605 96.1 102.355C96.825 102.13 96.875 101.08 96.15 100.83C96.075 100.78 95.925 100.755 95.8 100.78Z" fill="#D35375"/>
<path d="M103.025 104.48C102.2 104.48 101.45 104.13 100.875 103.53C99.975 102.58 98.725 102.005 97.325 102.005C95.95 102.005 94.725 102.555 93.825 103.48C93.2 104.105 92.4 104.48 91.525 104.48H91.5C92.45 102.205 94.7 100.605 97.325 100.605C99.95 100.605 102.2 102.205 103.15 104.48H103.025Z" stroke="#4D4D61" stroke-width="0.75" stroke-miterlimit="10" stroke-linecap="round" stroke-linejoin="round"/>
<path d="M123.6 111.805C126.306 111.805 128.5 109.611 128.5 106.905C128.5 104.199 126.306 102.005 123.6 102.005C120.894 102.005 118.7 104.199 118.7 106.905C118.7 109.611 120.894 111.805 123.6 111.805Z" fill="#56566D"/>
<path opacity="0.44" d="M120.95 109.355C120.95 106.655 123.15 104.455 125.85 104.455C126.75 104.455 127.6 104.705 128.325 105.13C127.6 103.305 125.825 102.005 123.75 102.005C121.05 102.005 118.85 104.205 118.85 106.905C118.85 108.705 119.825 110.28 121.275 111.13C121.075 110.58 120.95 109.98 120.95 109.355Z" fill="#66667C"/>
<path d="M123.6 111.805C126.306 111.805 128.5 109.611 128.5 106.905C128.5 104.199 126.306 102.005 123.6 102.005C120.894 102.005 118.7 104.199 118.7 106.905C118.7 109.611 120.894 111.805 123.6 111.805Z" stroke="#4D4D61" stroke-width="0.75" stroke-miterlimit="10" stroke-linecap="round" stroke-linejoin="round"/>
<path d="M35.225 66.505H31.825V113.18H35.225V66.505Z" stroke="#4D4D61" stroke-width="0.75" stroke-miterlimit="10" stroke-linecap="round" stroke-linejoin="round"/>
<path d="M35.225 66.505H31.825V113.18H35.225V66.505Z" fill="#4D4D61"/>
<path d="M123.6 109.33C124.939 109.33 126.025 108.244 126.025 106.905C126.025 105.565 124.939 104.48 123.6 104.48C122.261 104.48 121.175 105.565 121.175 106.905C121.175 108.244 122.261 109.33 123.6 109.33Z" stroke="#4D4D61" stroke-width="0.75" stroke-miterlimit="10" stroke-linecap="round" stroke-linejoin="round"/>
<path d="M129.3 104.48C128.475 104.48 127.725 104.13 127.15 103.53C126.25 102.58 125 102.005 123.6 102.005C122.225 102.005 121 102.555 120.1 103.48C119.475 104.105 118.675 104.48 117.8 104.48H117.775C118.725 102.205 120.975 100.605 123.6 100.605C126.225 100.605 128.475 102.205 129.425 104.48H129.3Z" fill="#CA4361"/>
<path d="M123.6 109.33C124.939 109.33 126.025 108.244 126.025 106.905C126.025 105.565 124.939 104.48 123.6 104.48C122.261 104.48 121.175 105.565 121.175 106.905C121.175 108.244 122.261 109.33 123.6 109.33Z" fill="#4D4D61"/>
<path d="M129.3 104.48C128.475 104.48 127.725 104.13 127.15 103.53C126.25 102.58 125 102.005 123.6 102.005C122.225 102.005 121 102.555 120.1 103.48C119.475 104.105 118.675 104.48 117.8 104.48H117.775C118.725 102.205 120.975 100.605 123.6 100.605C126.225 100.605 128.475 102.205 129.425 104.48H129.3Z" stroke="#4D4D61" stroke-width="0.75" stroke-miterlimit="10" stroke-linecap="round" stroke-linejoin="round"/>
<path d="M89.3251 61.855H15.9251C15.3251 61.855 14.8501 61.38 14.8501 60.78V58.755C14.8501 58.155 15.3251 57.68 15.9251 57.68H89.3251C89.9251 57.68 90.4001 58.155 90.4001 58.755V60.78C90.4001 61.38 89.9251 61.855 89.3251 61.855Z" fill="#B98C78"/>
<path d="M42.85 59.98C32.175 59.98 22.575 60.705 16 61.855H69.725C63.125 60.705 53.525 59.98 42.85 59.98Z" fill="#C9A08F"/>
<path d="M89.3251 61.855H15.9251C15.3251 61.855 14.8501 61.38 14.8501 60.78V58.755C14.8501 58.155 15.3251 57.68 15.9251 57.68H89.3251C89.9251 57.68 90.4001 58.155 90.4001 58.755V60.78C90.4001 61.38 89.9251 61.855 89.3251 61.855Z" stroke="#4D4D61" stroke-width="0.75" stroke-miterlimit="10" stroke-linecap="round" stroke-linejoin="round"/>
<path d="M81.3999 67.205H23.8249C22.3499 67.205 21.1499 66.005 21.1499 64.53C21.1499 63.055 22.3499 61.855 23.8249 61.855H81.3999C82.8749 61.855 84.0749 63.055 84.0749 64.53C84.0749 66.005 82.8749 67.205 81.3999 67.205Z" stroke="#4D4D61" stroke-width="0.75" stroke-miterlimit="10" stroke-linecap="round" stroke-linejoin="round"/>
<path d="M81.3999 67.205H23.8249C22.3499 67.205 21.1499 66.005 21.1499 64.53C21.1499 63.055 22.3499 61.855 23.8249 61.855H81.3999C82.8749 61.855 84.0749 63.055 84.0749 64.53C84.0749 66.005 82.8749 67.205 81.3999 67.205Z" fill="#4D4D61"/>
<path d="M45.125 65.955C36.9 65.955 29.85 66.48 26.75 67.205H63.5C60.4 66.455 53.35 65.955 45.125 65.955Z" fill="#575770"/>
<path d="M46.1499 53.605C47.0474 53.605 47.7749 52.8772 47.7749 51.98C47.7749 51.0825 47.0474 50.355 46.1499 50.355C45.2524 50.355 44.5249 51.0825 44.5249 51.98C44.5249 52.8772 45.2524 53.605 46.1499 53.605Z" fill="#83ABBA"/>
<path d="M46.1499 53.605C47.0474 53.605 47.7749 52.8772 47.7749 51.98C47.7749 51.0825 47.0474 50.355 46.1499 50.355C45.2524 50.355 44.5249 51.0825 44.5249 51.98C44.5249 52.8772 45.2524 53.605 46.1499 53.605Z" stroke="#4D4D61" stroke-width="0.75" stroke-miterlimit="10" stroke-linecap="round" stroke-linejoin="round"/>
<path d="M45.6749 51.33L45.7999 51.305L39.6749 17.28L39.5499 17.305C38.3749 17.53 37.5749 18.655 37.7999 19.83L43.1499 49.58C43.3499 50.755 44.4749 51.53 45.6749 51.33Z" fill="#92B4C3"/>
<path d="M43.05 49.055C43.05 45.18 42.7 40.98 41.925 36.655C41.125 32.13 39.95 27.88 38.55 24.13L43.05 49.055Z" fill="#ACD3E5"/>
<path d="M45.6749 51.33L45.7999 51.305L39.6749 17.28L39.5499 17.305C38.3749 17.53 37.5749 18.655 37.7999 19.83L43.1499 49.58C43.3499 50.755 44.4749 51.53 45.6749 51.33Z" stroke="#4D4D61" stroke-width="0.75" stroke-miterlimit="10" stroke-linecap="round" stroke-linejoin="round"/>
<path d="M75.1749 66.705H71.7749V113.38H75.1749V66.705Z" stroke="#4D4D61" stroke-width="0.75" stroke-miterlimit="10" stroke-linecap="round" stroke-linejoin="round"/>
<path d="M75.1749 66.705H71.7749V113.38H75.1749V66.705Z" fill="#4D4D61"/>
<path d="M49.2999 55.93H80.5499C82.0749 55.93 83.3249 54.68 83.3249 53.155V51.98H46.5249V53.155C46.5249 54.68 47.7749 55.93 49.2999 55.93Z" fill="#92B4C3"/>
<path d="M80.5499 55.055H49.2999C47.7749 55.055 46.5249 53.805 46.5249 52.28V53.155C46.5249 54.68 47.7749 55.93 49.2999 55.93H80.5499C82.0749 55.93 83.3249 54.68 83.3249 53.155V52.28C83.3249 53.805 82.0749 55.055 80.5499 55.055Z" fill="#83ABBA"/>
<path d="M49.2999 55.93H80.5499C82.0749 55.93 83.3249 54.68 83.3249 53.155V51.98H46.5249V53.155C46.5249 54.68 47.7749 55.93 49.2999 55.93Z" stroke="#4D4D61" stroke-width="0.75" stroke-miterlimit="10" stroke-linecap="round" stroke-linejoin="round"/>
<path d="M51.1492 57.6597H78.6992V55.9097H51.1492V57.6597Z" stroke="#4D4D61" stroke-width="0.75" stroke-miterlimit="10" stroke-linecap="round" stroke-linejoin="round"/>
<path d="M51.1492 57.6597H78.6992V55.9097H51.1492V57.6597Z" fill="#4D4D61"/>
<path d="M64.9746 53.9202H67.4496V53.0952H64.9746V53.9202Z" stroke="#4D4D61" stroke-width="0.5" stroke-miterlimit="10" stroke-linecap="round" stroke-linejoin="round"/>
<path d="M61.4473 53.9202H63.9223V53.0952H61.4473V53.9202Z" stroke="#4D4D61" stroke-width="0.5" stroke-miterlimit="10" stroke-linecap="round" stroke-linejoin="round"/>
<path d="M49.75 53.955C49.9985 53.955 50.2 53.7537 50.2 53.505C50.2 53.2565 49.9985 53.055 49.75 53.055C49.5015 53.055 49.3 53.2565 49.3 53.505C49.3 53.7537 49.5015 53.955 49.75 53.955Z" stroke="#4D4D61" stroke-width="0.5" stroke-miterlimit="10" stroke-linecap="round" stroke-linejoin="round"/>
<path d="M137.875 39.155C138.25 36.28 136.2 33.6552 133.3 33.3802C130.525 33.1052 128.075 35.155 127.7 37.93L124.275 63.405C124.125 64.555 124.925 65.6052 126.075 65.7552L129.1 66.155C130.25 66.305 131.3 65.505 131.45 64.355L131.95 60.6052C132.875 53.7302 134.575 46.9302 137.475 40.6302C137.65 40.1802 137.8 39.68 137.875 39.155Z" fill="#CA4361"/>
<path d="M130.925 60.605L130.425 64.355C130.3 65.23 129.65 65.93 128.825 66.105L129.1 66.13C130.25 66.28 131.3 65.48 131.45 64.33L131.95 60.58C132.875 53.705 134.575 46.905 137.475 40.605C137.675 40.155 137.825 39.655 137.9 39.155C138.275 36.28 136.225 33.655 133.325 33.38C133 33.355 132.65 33.355 132.35 33.38C135.25 33.68 137.3 36.305 136.925 39.155C136.85 39.68 136.7 40.155 136.5 40.605" fill="#D35375"/>
<path d="M127.7 37.93L125.05 57.68C127.35 51.105 129.575 44.03 129.575 38.53C129.575 34.805 134.1 33.555 135.35 34.805C134.525 33.28 131.9 33.13 130.475 33.955C128.925 34.83 127.85 36.705 127.7 37.93Z" fill="#D35375"/>
<path d="M137.875 39.155C138.25 36.28 136.2 33.6552 133.3 33.3802C130.525 33.1052 128.075 35.155 127.7 37.93L124.275 63.405C124.125 64.555 124.925 65.6052 126.075 65.7552L129.1 66.155C130.25 66.305 131.3 65.505 131.45 64.355L131.95 60.6052C132.875 53.7302 134.575 46.9302 137.475 40.6302C137.65 40.1802 137.8 39.68 137.875 39.155Z" stroke="#4D4D61" stroke-width="0.75" stroke-miterlimit="10" stroke-linecap="round" stroke-linejoin="round"/>
<path d="M52.1251 103.83L34.9751 92.7798C34.6501 92.5798 34.5751 92.1548 34.7751 91.8548L34.8001 91.805C35.0001 91.48 35.4251 91.4048 35.7251 91.6048L52.8751 102.655C53.2001 102.855 53.2751 103.28 53.0751 103.58L53.0501 103.63C52.8751 103.93 52.4501 104.03 52.1251 103.83Z" fill="#595D5C"/>
<path d="M52.1251 103.83L34.9751 92.7798C34.6501 92.5798 34.5751 92.1548 34.7751 91.8548L34.8001 91.805C35.0001 91.48 35.4251 91.4048 35.7251 91.6048L52.8751 102.655C53.2001 102.855 53.2751 103.28 53.0751 103.58L53.0501 103.63C52.8751 103.93 52.4501 104.03 52.1251 103.83Z" stroke="#4D4D61" stroke-width="0.75" stroke-miterlimit="10" stroke-linecap="round" stroke-linejoin="round"/>
<path d="M53.9501 98.205L53.8751 98.155C53.0251 98.305 51.9251 98.055 50.9251 97.405C50.1751 96.93 49.6001 96.28 49.2751 95.655C48.9751 95.08 48.5751 94.555 48.0501 94.205L41.4251 89.73C40.6501 89.205 39.6251 89.105 38.6501 89.43L36.5001 90.18C35.7751 90.43 35.5501 91.455 36.1251 91.83L52.7251 102.53L54.2001 100.23C54.6501 99.505 54.5501 98.605 53.9501 98.205Z" fill="#9B8462"/>
<path opacity="0.74" d="M38.65 89.43L38.3 89.555C38.325 90.38 38.75 91.18 39.5 91.68L49.875 98.355C50.85 98.98 52.1 98.88 52.95 98.18C52.3 98.105 51.6 97.855 50.925 97.43C50.175 96.955 49.6 96.305 49.275 95.68C48.975 95.105 48.575 94.58 48.05 94.23L41.425 89.755C40.65 89.18 39.625 89.08 38.65 89.43Z" fill="#E1C885"/>
<path d="M53.9501 98.205L53.8751 98.155C53.0251 98.305 51.9251 98.055 50.9251 97.405C50.1751 96.93 49.6001 96.28 49.2751 95.655C48.9751 95.08 48.5751 94.555 48.0501 94.205L41.4251 89.73C40.6501 89.205 39.6251 89.105 38.6501 89.43L36.5001 90.18C35.7751 90.43 35.5501 91.455 36.1251 91.83L52.7251 102.53L54.2001 100.23C54.6501 99.505 54.5501 98.605 53.9501 98.205Z" stroke="#4D4D61" stroke-width="0.75" stroke-miterlimit="10" stroke-linecap="round" stroke-linejoin="round"/>
<path d="M46.3501 95.655L48.9751 95.155L48.3001 94.405L46.3501 95.655Z" stroke="#4D4D61" stroke-width="0.75" stroke-miterlimit="10" stroke-linecap="round" stroke-linejoin="round"/>
<path d="M53.5501 88.68L51.4751 90.73L56.5501 97.105L59.0501 95.03L53.5501 88.68Z" fill="#92B4C3"/>
<path d="M53.4001 88.83L51.4751 90.73L54.2251 94.18C54.6751 93.53 54.9501 92.755 54.9501 91.93C54.9501 90.68 54.3501 89.555 53.4001 88.83Z" fill="#9EC0CC"/>
<path d="M53.5501 88.68L51.4751 90.73L56.5501 97.105L59.0501 95.03L53.5501 88.68Z" stroke="#4D4D61" stroke-width="0.75" stroke-miterlimit="10" stroke-linecap="round" stroke-linejoin="round"/>
<path d="M94.5 96.83L96.075 99.305L103.375 95.655L101.875 92.78L94.5 96.83Z" fill="#92B4C3"/>
<path d="M94.5 96.83L96.075 99.305L103.375 95.655L101.875 92.78L94.5 96.83Z" fill="#92B4C3"/>
<path d="M97.325 97.13C97.325 96.58 97.025 96.105 96.525 95.705L94.5 96.83L95.875 98.98C96.75 98.555 97.325 97.88 97.325 97.13Z" fill="#9EC0CC"/>
<path d="M94.5 96.83L96.075 99.305L103.375 95.655L101.875 92.78L94.5 96.83Z" stroke="#4D4D61" stroke-width="0.75" stroke-miterlimit="10" stroke-linecap="round" stroke-linejoin="round"/>
<path d="M74.125 37.255C74.2355 37.255 74.325 37.1095 74.325 36.93C74.325 36.7505 74.2355 36.605 74.125 36.605C74.0145 36.605 73.925 36.7505 73.925 36.93C73.925 37.1095 74.0145 37.255 74.125 37.255Z" stroke="#4D4D61" stroke-width="0.5" stroke-miterlimit="10" stroke-linecap="round" stroke-linejoin="round"/>
<path d="M53.55 54.73H52.3C51.975 54.73 51.7 54.455 51.7 54.13V53.38C51.7 53.055 51.975 52.78 52.3 52.78H53.55C53.875 52.78 54.15 53.055 54.15 53.38V54.13C54.15 54.455 53.875 54.73 53.55 54.73Z" fill="#4D4D61"/>
</g>
<defs>
<filter id="filter0_d_110_114" x="0" y="0.625" width="159.75" height="127.83" filterUnits="userSpaceOnUse" color-interpolation-filters="sRGB">
<feFlood flood-opacity="0" result="BackgroundImageFix"/>
<feColorMatrix in="SourceAlpha" type="matrix" values="0 0 0 0 0 0 0 0 0 0 0 0 0 0 0 0 0 0 127 0" result="hardAlpha"/>
<feOffset dy="4"/>
<feGaussianBlur stdDeviation="2"/>
<feComposite in2="hardAlpha" operator="out"/>
<feColorMatrix type="matrix" values="0 0 0 0 0 0 0 0 0 0 0 0 0 0 0 0 0 0 0.25 0"/>
<feBlend mode="normal" in2="BackgroundImageFix" result="effect1_dropShadow_110_114"/>
<feBlend mode="normal" in="SourceGraphic" in2="effect1_dropShadow_110_114" result="shape"/>
</filter>
</defs>
</svg>
