<svg width="42" height="42" viewBox="0 0 42 42" fill="none" xmlns="http://www.w3.org/2000/svg">
<g clip-path="url(#clip0_110_302)">
<path d="M7.875 18.375C6.43125 18.375 5.25 19.5562 5.25 21C5.25 22.4437 6.43125 23.625 7.875 23.625C9.31875 23.625 10.5 22.4437 10.5 21C10.5 19.5562 9.31875 18.375 7.875 18.375ZM34.125 18.375C32.6812 18.375 31.5 19.5562 31.5 21C31.5 22.4437 32.6812 23.625 34.125 23.625C35.5688 23.625 36.75 22.4437 36.75 21C36.75 19.5562 35.5688 18.375 34.125 18.375ZM21 18.375C19.5562 18.375 18.375 19.5562 18.375 21C18.375 22.4437 19.5562 23.625 21 23.625C22.4438 23.625 23.625 22.4437 23.625 21C23.625 19.5562 22.4438 18.375 21 18.375Z" fill="black"/>
</g>
<defs>
<clipPath id="clip0_110_302">
<rect width="42" height="42" fill="white"/>
</clipPath>
</defs>
</svg>
