<svg width="195" height="107" viewBox="0 0 195 107" fill="none" xmlns="http://www.w3.org/2000/svg">
<g filter="url(#filter0_d_11_446)">
<path d="M97.3196 99C148.859 99 190.639 95.2718 190.639 90.673C190.639 86.0742 148.859 82.346 97.3196 82.346C45.7805 82.346 4 86.0742 4 90.673C4 95.2718 45.7805 99 97.3196 99Z" fill="#493B3B"/>
<path d="M69.6107 11.3944H45.4912V7.37447C45.4912 4.84766 47.5586 2.78027 50.0854 2.78027H65.0166C67.5434 2.78027 69.6107 4.84766 69.6107 7.37447V11.3944Z" fill="#C1A7A7"/>
<path d="M69.6107 11.3944H45.4912V7.37447C45.4912 4.84766 47.5586 2.78027 50.0854 2.78027H65.0166C67.5434 2.78027 69.6107 4.84766 69.6107 7.37447V11.3944Z" stroke="#493B3B" stroke-width="1.72282" stroke-miterlimit="10" stroke-linecap="round" stroke-linejoin="round"/>
<path d="M68.2617 3.72781V11.3944" stroke="#493B3B" stroke-width="1.14855" stroke-miterlimit="10" stroke-linecap="round" stroke-linejoin="round"/>
<path d="M65.6772 3.72781V11.3944" stroke="#493B3B" stroke-width="1.14855" stroke-miterlimit="10" stroke-linecap="round" stroke-linejoin="round"/>
<path d="M63.0933 3.72781V11.3944" stroke="#493B3B" stroke-width="1.14855" stroke-miterlimit="10" stroke-linecap="round" stroke-linejoin="round"/>
<path d="M60.5088 3.72781V11.3944" stroke="#493B3B" stroke-width="1.14855" stroke-miterlimit="10" stroke-linecap="round" stroke-linejoin="round"/>
<path d="M57.9248 3.72781V11.3944" stroke="#493B3B" stroke-width="1.14855" stroke-miterlimit="10" stroke-linecap="round" stroke-linejoin="round"/>
<path d="M55.3403 3.72781V11.3944" stroke="#493B3B" stroke-width="1.14855" stroke-miterlimit="10" stroke-linecap="round" stroke-linejoin="round"/>
<path d="M52.7563 3.72781V11.3944" stroke="#493B3B" stroke-width="1.14855" stroke-miterlimit="10" stroke-linecap="round" stroke-linejoin="round"/>
<path d="M50.1719 3.72781V11.3944" stroke="#493B3B" stroke-width="1.14855" stroke-miterlimit="10" stroke-linecap="round" stroke-linejoin="round"/>
<path d="M47.5879 3.72781V11.3944" stroke="#493B3B" stroke-width="1.14855" stroke-miterlimit="10" stroke-linecap="round" stroke-linejoin="round"/>
<path d="M167.64 1.08615H75.1816C72.6261 1.08615 70.2715 2.32084 68.721 4.3308C65.4763 8.63786 60.3079 11.4231 54.5077 11.4231H20.6255V83.7817C20.6255 87.6006 23.6979 90.673 27.5168 90.673H167.64C171.459 90.673 174.531 87.6006 174.531 83.7817V7.97745C174.531 4.15852 171.43 1.08615 167.64 1.08615Z" fill="#E2A86D"/>
<path d="M28.9525 23.971H20.6255V82.5757H28.9525V23.971Z" fill="#D6975F"/>
<path d="M174.531 23.971H166.204V82.5757H174.531V23.971Z" fill="#D6975F"/>
<mask id="mask0_11_446" style="mask-type:alpha" maskUnits="userSpaceOnUse" x="20" y="23" width="155" height="60">
<path d="M174.531 23.9136H20.6255V82.6044H174.531V23.9136Z" fill="#E2A86D"/>
</mask>
<g mask="url(#mask0_11_446)">
<path d="M34.2357 18.0562C50.3154 27.5605 57.7235 46.0809 52.7561 61.9883C46.8985 80.7958 26.7988 86.2514 25.6216 86.5385" stroke="#CC894C" stroke-width="1.72282" stroke-miterlimit="10" stroke-linecap="round" stroke-linejoin="round"/>
<path d="M39.9499 66.2953C33.0586 73.7609 20.3384 76.7471 8.82422 71.0331" stroke="#CC894C" stroke-width="1.72282" stroke-miterlimit="10" stroke-linecap="round" stroke-linejoin="round"/>
<path d="M12.7007 26.2397C30.1299 27.7041 43.1372 37.9262 45.0036 49.9285C45.0898 50.5602 45.8938 56.1307 43.4531 61.9021" stroke="#CC894C" stroke-width="1.72282" stroke-miterlimit="10" stroke-linecap="round" stroke-linejoin="round"/>
<path d="M9.68555 43.4679C16.5768 38.5866 23.0087 38.0698 28.9812 40.9698C33.1734 43.0372 38.3706 48.1483 37.7676 52.0821C36.7339 58.9734 24.9613 67.0706 14.8253 66.7261" stroke="#CC894C" stroke-width="1.72282" stroke-miterlimit="10" stroke-linecap="round" stroke-linejoin="round"/>
<path d="M25.6219 44.0706C26.4259 44.7023 30.7904 47.1717 29.8141 52.5986C29.4982 54.3788 24.9902 60.6672 17.4385 59.4038" stroke="#CC894C" stroke-width="1.72282" stroke-miterlimit="10" stroke-linecap="round" stroke-linejoin="round"/>
<path d="M13.1313 50.7896C17.0651 47.8895 23.0089 45.133 25.6218 49.5262" stroke="#CC894C" stroke-width="1.72282" stroke-miterlimit="10" stroke-linecap="round" stroke-linejoin="round"/>
<path d="M13.1313 82.2315C15.9453 82.4612 32.3408 83.4949 42.8501 71.8945C45.5779 68.8796 47.3294 65.6636 48.4492 62.8497" stroke="#CC894C" stroke-width="1.72282" stroke-miterlimit="10" stroke-linecap="round" stroke-linejoin="round"/>
<path d="M50.6025 18.0562C52.6412 22.8514 57.982 33.3319 69.1229 38.2994C85.8917 45.7937 109.408 37.9549 124.253 17.1948" stroke="#CC894C" stroke-width="1.72282" stroke-miterlimit="10" stroke-linecap="round" stroke-linejoin="round"/>
<path d="M64.3853 18.4869C64.5863 20.0375 65.4189 24.8614 69.5537 28.8239C75.1242 34.1646 82.2165 33.6478 83.3363 33.5617" stroke="#CC894C" stroke-width="1.72282" stroke-miterlimit="10" stroke-linecap="round" stroke-linejoin="round"/>
<path d="M67.773 71.6074C63.753 68.9944 57.7231 64.7448 57.7231 52.6276C57.7231 48.6364 58.9578 46.3967 59.9054 45.8799C63.2075 44.0996 73.7741 55.9584 87.2121 59.404C97.6639 62.1031 115.036 55.6138 139.643 34.7964" stroke="#CC894C" stroke-width="1.72282" stroke-miterlimit="10" stroke-linecap="round" stroke-linejoin="round"/>
<path d="M147.913 20.2098C138.897 21.3583 120.951 25.1198 109.581 39.5916C108.949 40.3668 102.115 49.1532 103.981 51.2206C105.216 52.5702 114.577 37.9549 132.293 31.4369C136.572 29.8576 140.304 29.1398 142.889 28.7665" stroke="#CC894C" stroke-width="1.72282" stroke-miterlimit="10" stroke-linecap="round" stroke-linejoin="round"/>
<path d="M40.2656 94.7216C42.3617 84.6144 48.7075 77.7805 55.3403 77.4934C55.57 77.4934 61.0831 77.3211 63.5238 80.939C66.4526 85.3035 64.0119 93.8602 55.771 100.752" stroke="#CC894C" stroke-width="1.72282" stroke-miterlimit="10" stroke-linecap="round" stroke-linejoin="round"/>
<path d="M54.2778 72.6121C62.1167 71.8081 69.1228 75.7706 72.7408 82.0589C77.3637 90.0126 76.5884 99.6317 68.2327 105.92" stroke="#CC894C" stroke-width="1.72282" stroke-miterlimit="10" stroke-linecap="round" stroke-linejoin="round"/>
<path d="M147.311 36.8637C146.076 38.2707 139.845 42.9798 137.404 44.358C124.713 51.5365 122.961 47.6888 110.413 61.9021C103.637 69.5687 97.7507 88.2901 87.6147 101.183" stroke="#CC894C" stroke-width="1.72282" stroke-miterlimit="10" stroke-linecap="round" stroke-linejoin="round"/>
<path d="M160.95 9.09756C160.72 16.6206 156.729 24.8614 150.842 32.5567" stroke="#CC894C" stroke-width="1.72282" stroke-miterlimit="10" stroke-linecap="round" stroke-linejoin="round"/>
<path d="M182.37 26.6704C179.7 27.0437 164.022 29.5705 155.236 43.4679C154.116 45.2195 150.383 51.3068 150.067 59.4041C149.522 73.3876 159.514 87.2564 175.048 95.1527" stroke="#CC894C" stroke-width="1.72282" stroke-miterlimit="10" stroke-linecap="round" stroke-linejoin="round"/>
<path d="M161.638 68.6209C164.165 77.5509 173.267 84.8154 184.523 87.4284" stroke="#CC894C" stroke-width="1.72282" stroke-miterlimit="10" stroke-linecap="round" stroke-linejoin="round"/>
<path d="M182.8 43.0372C173.555 44.76 163.993 50.6463 161.724 58.3416C161.236 59.9783 160.978 61.615 160.949 63.223" stroke="#CC894C" stroke-width="1.72282" stroke-miterlimit="10" stroke-linecap="round" stroke-linejoin="round"/>
<path d="M117.333 101.183C120.923 80.5374 132.437 70.344 138.639 66.2666C145.014 62.1031 151.905 63.826 145.731 75.3402C141.367 83.4949 145.99 95.1527 136.256 102.475" stroke="#CC894C" stroke-width="1.72282" stroke-miterlimit="10" stroke-linecap="round" stroke-linejoin="round"/>
<path d="M185.815 52.0821C175.134 53.6613 168.932 59.4041 169.448 63.2804C169.879 66.4676 174.961 69.1667 181.077 70.1717" stroke="#CC894C" stroke-width="1.72282" stroke-miterlimit="10" stroke-linecap="round" stroke-linejoin="round"/>
<path d="M141.022 58.5427C142.286 53.5465 145.588 43.4679 154.374 33.9924C164.137 23.4545 175.249 19.492 180.217 18.0563" stroke="#CC894C" stroke-width="1.72282" stroke-miterlimit="10" stroke-linecap="round" stroke-linejoin="round"/>
<path d="M133.126 83.6956C132.581 78.5271 134.763 74.5646 137.519 73.9329C138.007 73.8181 141.022 73.5596 141.022 77.4934" stroke="#CC894C" stroke-width="1.72282" stroke-miterlimit="10" stroke-linecap="round" stroke-linejoin="round"/>
</g>
<path d="M65.7631 77.8093L80.2062 71.4348L74.6357 58.8295L60.1927 65.2039C56.7183 66.7545 55.1391 70.8031 56.6609 74.2775C58.2114 77.7805 62.2888 79.3311 65.7631 77.8093Z" fill="#E5D6D6"/>
<path d="M65.7631 77.8093L80.2062 71.4348L74.6357 58.8295L60.1927 65.2039C56.7183 66.7545 55.1391 70.8031 56.6609 74.2775C58.2114 77.7805 62.2888 79.3311 65.7631 77.8093Z" stroke="#493B3B" stroke-width="1.72282" stroke-miterlimit="10" stroke-linecap="round" stroke-linejoin="round"/>
<path d="M62.978 75.627C65.2616 75.627 67.1128 73.7759 67.1128 71.4923C67.1128 69.2087 65.2616 67.3575 62.978 67.3575C60.6944 67.3575 58.8433 69.2087 58.8433 71.4923C58.8433 73.7759 60.6944 75.627 62.978 75.627Z" fill="#EFE6E6"/>
<path d="M62.978 75.627C65.2616 75.627 67.1128 73.7759 67.1128 71.4923C67.1128 69.2087 65.2616 67.3575 62.978 67.3575C60.6944 67.3575 58.8433 69.2087 58.8433 71.4923C58.8433 73.7759 60.6944 75.627 62.978 75.627Z" stroke="#493B3B" stroke-width="1.14855" stroke-miterlimit="10" stroke-linecap="round" stroke-linejoin="round"/>
<path d="M20.6255 82.5757V83.753C20.6255 87.5719 23.6979 90.6443 27.5168 90.6443H167.64C171.459 90.6443 174.531 87.5719 174.531 83.753V82.5757H20.6255Z" fill="#E5D6D6"/>
<path opacity="0.2" d="M97.578 24.8037C79.5744 24.8037 64.9879 39.4477 64.9879 57.4799C64.9879 59.777 65.2176 62.0167 65.677 64.199L60.1927 66.6109C56.7183 68.1615 55.1391 72.2101 56.6609 75.6845C58.2114 79.1588 62.2601 80.7381 65.7344 79.2162L71.2475 76.7756C77.1625 84.9016 86.7529 90.1562 97.5492 90.1562C115.553 90.1562 130.139 75.5122 130.139 57.4799C130.168 39.4477 115.581 24.8037 97.578 24.8037Z" fill="#2D2D2D" stroke="#2D2D2D" stroke-width="2.2971" stroke-miterlimit="10" stroke-linecap="round" stroke-linejoin="round"/>
<path d="M167.64 90.673H166.204V82.6044H174.531V83.7817C174.531 87.5719 171.43 90.673 167.64 90.673Z" fill="#DBC8C8"/>
<path d="M27.5168 90.673H28.9525V82.6044H20.6255V83.7817C20.6255 87.5719 23.6979 90.673 27.5168 90.673Z" fill="#DBC8C8"/>
<path d="M167.64 1H75.1816C72.6261 1 70.2428 2.23469 68.721 4.27336C65.4763 8.60914 60.3079 11.3944 54.5077 11.3944H20.6255V23.971H174.531V7.92001C174.531 4.10109 171.43 1 167.64 1Z" fill="#E5D6D6"/>
<path d="M28.9525 11.6815H20.6255V23.971H28.9525V11.6815Z" fill="#DBC8C8"/>
<path d="M126.062 19.4342H29.8714C29.3545 19.4342 28.9238 19.0035 28.9238 18.4866C28.9238 17.9698 29.3545 17.5391 29.8714 17.5391H126.062C126.579 17.5391 127.01 17.9698 127.01 18.4866C127.01 19.0035 126.579 19.4342 126.062 19.4342Z" fill="#C1A7A7"/>
<path d="M167.611 1H166.175V23.971H174.502V7.8913C174.502 4.10108 171.43 1 167.611 1Z" fill="#DBC8C8"/>
<path d="M97.5784 85.3036C115.577 85.3036 130.168 70.6739 130.168 52.6273C130.168 34.5807 115.577 19.9511 97.5784 19.9511C79.5795 19.9511 64.9883 34.5807 64.9883 52.6273C64.9883 70.6739 79.5795 85.3036 97.5784 85.3036Z" fill="#E5D6D6"/>
<path d="M97.5782 78.7568C112.009 78.7568 123.708 67.0583 123.708 52.6273C123.708 38.1964 112.009 26.4978 97.5782 26.4978C83.1473 26.4978 71.4487 38.1964 71.4487 52.6273C71.4487 67.0583 83.1473 78.7568 97.5782 78.7568Z" fill="#845B5B"/>
<path d="M97.5782 32.2406C111.016 32.2406 122.128 42.4339 123.535 55.4987C123.65 54.5511 123.708 53.6036 123.708 52.6273C123.708 38.213 111.993 26.4978 97.5782 26.4978C83.1639 26.4978 71.4487 38.213 71.4487 52.6273C71.4487 53.6036 71.5062 54.5511 71.621 55.4987C73.028 42.4339 84.1402 32.2406 97.5782 32.2406Z" fill="#704848"/>
<path d="M167.64 1.08615H75.1816C72.6261 1.08615 70.2715 2.32084 68.721 4.3308C65.4763 8.63786 60.3079 11.4231 54.5077 11.4231H20.6255V83.7817C20.6255 87.6006 23.6979 90.673 27.5168 90.673H167.64C171.459 90.673 174.531 87.6006 174.531 83.7817V7.97745C174.531 4.15852 171.43 1.08615 167.64 1.08615Z" stroke="#493B3B" stroke-width="1.72282" stroke-miterlimit="10" stroke-linecap="round" stroke-linejoin="round"/>
<path d="M97.5781 82.0589C113.833 82.0589 127.01 68.8819 127.01 52.6273C127.01 36.3728 113.833 23.1957 97.5781 23.1957C81.3235 23.1957 68.1465 36.3728 68.1465 52.6273C68.1465 68.8819 81.3235 82.0589 97.5781 82.0589Z" stroke="#493B3B" stroke-width="0.861412" stroke-miterlimit="10" stroke-linecap="round" stroke-linejoin="round"/>
<path d="M97.5782 78.7568C112.009 78.7568 123.708 67.0583 123.708 52.6273C123.708 38.1964 112.009 26.4978 97.5782 26.4978C83.1473 26.4978 71.4487 38.1964 71.4487 52.6273C71.4487 67.0583 83.1473 78.7568 97.5782 78.7568Z" stroke="#493B3B" stroke-width="2.2971" stroke-miterlimit="10" stroke-linecap="round" stroke-linejoin="round"/>
<path d="M97.5784 70.4298C107.411 70.4298 115.381 62.4595 115.381 52.6273C115.381 42.7954 107.411 34.8248 97.5784 34.8248C87.7462 34.8248 79.7759 42.7954 79.7759 52.6273C79.7759 62.4595 87.7462 70.4298 97.5784 70.4298Z" fill="#B57F7F"/>
<path opacity="0.34" d="M109.839 52.6273C118.453 52.6273 123.191 62.6771 117.678 69.2813C112.883 75.0527 105.647 78.7568 97.5785 78.7568C89.5099 78.7568 82.2741 75.0815 77.4789 69.2813C71.9658 62.6484 76.7323 52.6273 85.3177 52.6273H109.839Z" fill="white"/>
<path d="M97.5784 40.5675C106.422 40.5675 113.773 47.0569 115.151 55.4987C115.295 54.5511 115.381 53.6036 115.381 52.6273C115.381 42.8072 107.398 34.8248 97.5784 34.8248C87.7583 34.8248 79.7759 42.8072 79.7759 52.6273C79.7759 53.6036 79.862 54.5511 80.0056 55.4987C81.3839 47.0281 88.7346 40.5675 97.5784 40.5675Z" fill="#AD6D6D"/>
<path d="M97.5784 70.4298C107.411 70.4298 115.381 62.4595 115.381 52.6273C115.381 42.7954 107.411 34.8248 97.5784 34.8248C87.7462 34.8248 79.7759 42.7954 79.7759 52.6273C79.7759 62.4595 87.7462 70.4298 97.5784 70.4298Z" stroke="#493B3B" stroke-width="1.72282" stroke-miterlimit="10" stroke-linecap="round" stroke-linejoin="round"/>
<path d="M97.5782 63.2514C103.446 63.2514 108.202 58.495 108.202 52.6273C108.202 46.76 103.446 42.0032 97.5782 42.0032C91.7105 42.0032 86.9541 46.76 86.9541 52.6273C86.9541 58.495 91.7105 63.2514 97.5782 63.2514Z" fill="#4C3535"/>
<path d="M97.5782 63.2514C103.446 63.2514 108.202 58.495 108.202 52.6273C108.202 46.76 103.446 42.0032 97.5782 42.0032C91.7105 42.0032 86.9541 46.76 86.9541 52.6273C86.9541 58.495 91.7105 63.2514 97.5782 63.2514Z" stroke="#493B3B" stroke-width="0.861412" stroke-miterlimit="10" stroke-linecap="round" stroke-linejoin="round"/>
<path d="M97.5783 59.375C101.305 59.375 104.326 56.3541 104.326 52.6273C104.326 48.9008 101.305 45.8796 97.5783 45.8796C93.8515 45.8796 90.8306 48.9008 90.8306 52.6273C90.8306 56.3541 93.8515 59.375 97.5783 59.375Z" fill="#3F2E2E"/>
<path d="M42.2756 11.3944H27.2583V8.52303C27.2583 7.57547 28.0336 6.8002 28.9811 6.8002H40.5528C41.5003 6.8002 42.2756 7.57547 42.2756 8.52303V11.3944Z" fill="#6A4949"/>
<path d="M42.2756 11.3944H27.2583V8.52303C27.2583 7.57547 28.0336 6.8002 28.9811 6.8002H40.5528C41.5003 6.8002 42.2756 7.57547 42.2756 8.52303V11.3944Z" stroke="#493B3B" stroke-width="1.72282" stroke-miterlimit="10" stroke-linecap="round" stroke-linejoin="round"/>
<path d="M39.9493 3.38324H29.6123V6.80017H39.9493V3.38324Z" stroke="#493B3B" stroke-width="1.72282" stroke-miterlimit="10" stroke-linecap="round" stroke-linejoin="round"/>
<path d="M39.9493 3.38324H29.6123V6.80017H39.9493V3.38324Z" fill="#493B3B"/>
<path d="M97.5784 85.3036C115.577 85.3036 130.168 70.6739 130.168 52.6273C130.168 34.5807 115.577 19.9511 97.5784 19.9511C79.5795 19.9511 64.9883 34.5807 64.9883 52.6273C64.9883 70.6739 79.5795 85.3036 97.5784 85.3036Z" stroke="#493B3B" stroke-width="2.2971" stroke-miterlimit="10" stroke-linecap="round" stroke-linejoin="round"/>
<path opacity="0.38" d="M97.5783 45.8796C93.8455 45.8796 90.8306 48.8945 90.8306 52.6273C90.8306 52.656 90.8306 52.656 90.8306 52.6847C91.7207 51.9382 93.0415 51.5362 94.7931 51.6798C96.5446 51.8233 96.8605 52.3689 98.813 52.9432C100.536 53.4313 102.747 53.259 104.326 52.4837C104.24 48.8084 101.254 45.8796 97.5783 45.8796Z" fill="white"/>
<path d="M97.5783 74.4498C109.631 74.4498 119.401 64.6796 119.401 52.6273C119.401 40.5753 109.631 30.8049 97.5783 30.8049C85.526 30.8049 75.7559 40.5753 75.7559 52.6273C75.7559 64.6796 85.526 74.4498 97.5783 74.4498Z" stroke="#493B3B" stroke-width="0.861412" stroke-miterlimit="10" stroke-linecap="round" stroke-linejoin="round"/>
<path d="M97.5782 78.7568C112.009 78.7568 123.708 67.0583 123.708 52.6273C123.708 38.1964 112.009 26.4978 97.5782 26.4978C83.1473 26.4978 71.4487 38.1964 71.4487 52.6273C71.4487 67.0583 83.1473 78.7568 97.5782 78.7568Z" stroke="#493B3B" stroke-width="2.2971" stroke-miterlimit="10" stroke-linecap="round" stroke-linejoin="round"/>
<path d="M158.882 21.6739H134.274C132.408 21.6739 130.886 20.1521 130.886 18.2857V8.46558C130.886 6.59919 132.408 5.07736 134.274 5.07736H158.882C160.749 5.07736 162.27 6.59919 162.27 8.46558V18.2857C162.27 20.1521 160.749 21.6739 158.882 21.6739Z" fill="#443636"/>
<path d="M158.882 21.6739H134.274C132.408 21.6739 130.886 20.1521 130.886 18.2857V8.46558C130.886 6.59919 132.408 5.07736 134.274 5.07736H158.882C160.749 5.07736 162.27 6.59919 162.27 8.46558V18.2857C162.27 20.1521 160.749 21.6739 158.882 21.6739Z" stroke="#493B3B" stroke-width="1.14855" stroke-miterlimit="10" stroke-linecap="round" stroke-linejoin="round"/>
<path d="M156.728 19.9511H136.428C134.848 19.9511 133.556 18.659 133.556 17.0797V9.67158C133.556 8.09232 134.848 6.8002 136.428 6.8002H156.728C158.307 6.8002 159.6 8.09232 159.6 9.67158V17.0797C159.6 18.6877 158.307 19.9511 156.728 19.9511Z" fill="#845B5B"/>
<path opacity="0.38" d="M151.761 19.9511L159.571 9.26958C159.37 7.89133 158.193 6.8002 156.728 6.8002H155.81L146.219 19.9511H151.761Z" fill="white"/>
<path opacity="0.38" d="M144.123 19.9511L153.713 6.8002H152.019L142.429 19.9511H144.123Z" fill="white"/>
</g>
<defs>
<filter id="filter0_d_11_446" x="0" y="0.224731" width="194.639" height="106.775" filterUnits="userSpaceOnUse" color-interpolation-filters="sRGB">
<feFlood flood-opacity="0" result="BackgroundImageFix"/>
<feColorMatrix in="SourceAlpha" type="matrix" values="0 0 0 0 0 0 0 0 0 0 0 0 0 0 0 0 0 0 127 0" result="hardAlpha"/>
<feOffset dy="4"/>
<feGaussianBlur stdDeviation="2"/>
<feComposite in2="hardAlpha" operator="out"/>
<feColorMatrix type="matrix" values="0 0 0 0 0 0 0 0 0 0 0 0 0 0 0 0 0 0 0.25 0"/>
<feBlend mode="normal" in2="BackgroundImageFix" result="effect1_dropShadow_11_446"/>
<feBlend mode="normal" in="SourceGraphic" in2="effect1_dropShadow_11_446" result="shape"/>
</filter>
</defs>
</svg>
