<svg width="21" height="21" viewBox="0 0 21 21" fill="none" xmlns="http://www.w3.org/2000/svg">
<path d="M11.1563 2.65125V3.14825C11.1563 3.4405 11.2858 3.717 11.5107 3.90425L12.4452 4.683C12.8319 5.00588 12.9133 5.56675 12.6342 5.98675L12.1879 6.657C11.9449 7.02118 11.5875 7.29398 11.1721 7.43225L11.0469 7.47425C10.9058 7.52146 10.7774 7.60057 10.6717 7.70545C10.566 7.81033 10.486 7.93815 10.4377 8.07899C10.3895 8.21983 10.3744 8.36989 10.3935 8.51752C10.4127 8.66516 10.4656 8.80639 10.5482 8.93025C10.8711 9.41588 10.6961 10.0739 10.1746 10.3346L7.87507 11.4844L8.2452 12.411C8.31984 12.5992 8.3237 12.8081 8.25605 12.9989C8.1884 13.1897 8.05383 13.3496 7.87731 13.4487C7.70079 13.5479 7.4943 13.5797 7.29613 13.5381C7.09797 13.4966 6.92158 13.3847 6.7997 13.223L6.20557 12.4303C6.10488 12.2961 5.97157 12.1898 5.81828 12.1217C5.665 12.0535 5.49684 12.0256 5.32975 12.0407C5.16267 12.0558 5.00221 12.1133 4.86361 12.2078C4.72501 12.3023 4.61286 12.4307 4.53782 12.5808L3.93757 13.7813L3.40207 13.9151M11.1563 2.65125C9.773 2.53517 8.38356 2.78769 7.12882 3.38157C5.87408 3.97545 4.79862 4.89045 4.01142 6.03385C3.22421 7.17726 2.75325 8.50844 2.64624 9.8925C2.53923 11.2766 2.79998 12.6643 3.40207 13.9151M11.1563 2.65125C12.5281 2.76565 13.8458 3.23849 14.9783 4.02094C16.1108 4.8034 17.0184 5.86903 17.6106 7.1116C18.2029 8.35416 18.4591 9.73026 18.3537 11.1027C18.2483 12.4752 17.7851 13.796 17.0101 14.9336L16.8552 14.4708C16.7244 14.0788 16.4736 13.7379 16.1384 13.4963C15.8031 13.2548 15.4003 13.1249 14.9871 13.125H14.4376L14.1541 12.8415C14.0117 12.6989 13.8374 12.5921 13.6456 12.5301C13.4538 12.468 13.2501 12.4525 13.0511 12.4847C12.8521 12.5169 12.6637 12.596 12.5013 12.7154C12.3389 12.8348 12.2072 12.9911 12.1171 13.1714L12.0856 13.2353C11.9996 13.4073 11.8789 13.5596 11.731 13.6825C11.5831 13.8054 11.4112 13.8963 11.2263 13.9493L10.3601 14.196C9.87882 14.3334 9.57782 14.8102 9.66007 15.3046L9.72395 15.6879C9.79395 16.1026 10.1527 16.4063 10.5727 16.4063C11.3129 16.4063 11.9709 16.8805 12.2046 17.5831L12.3927 18.1458M3.40207 13.9151C4.18643 15.5459 5.50852 16.8569 7.14593 17.6274C8.78334 18.3979 10.6362 18.5809 12.3927 18.1458M12.3927 18.1458C14.2739 17.6791 15.9173 16.5359 17.0092 14.9345M13.7813 7.875C13.7813 8.659 13.4374 9.3625 12.8923 9.84375" stroke="black" stroke-width="1.5" stroke-linecap="round" stroke-linejoin="round"/>
</svg>
