<svg width="98" height="195" viewBox="0 0 98 195" fill="none" xmlns="http://www.w3.org/2000/svg">
<g filter="url(#filter0_d_11_563)">
<path d="M70.6714 106.102H45.9277V120.409H70.6714V106.102Z" fill="#30B5B2"/>
<path d="M54.1489 49.0069H18.7017V63.3139H54.1489V49.0069Z" fill="#30B5B2"/>
<path d="M94.0001 77.5409H23.6929V91.8479H94.0001V77.5409Z" fill="#30B5B2"/>
<path d="M83.9104 120.409H44.9932V134.716H83.9104V120.409Z" fill="#30B5B2"/>
<path d="M58.0457 176.889H31.9141V183.295H58.0457V176.889Z" fill="#26A8A1"/>
<path d="M50.9457 169.869H44.0591V180.146H50.9457V169.869Z" fill="#FBC3AA"/>
<path d="M58.179 185.084H38.0264C38.0264 180.573 41.6832 176.889 46.2209 176.889H58.179V185.084Z" fill="#DD3142"/>
<path d="M51.5596 185.084C51.5596 179.639 55.9905 175.208 61.4357 175.208C66.8809 175.208 71.3118 179.639 71.3118 185.084H51.5596Z" fill="#DD3142"/>
<path d="M71.3115 186.499H38.0263C37.626 186.499 37.3057 186.178 37.3057 185.778C37.3057 185.377 37.626 185.057 38.0263 185.057H71.3115C71.7119 185.057 72.0322 185.377 72.0322 185.778C72.0322 186.178 71.7119 186.499 71.3115 186.499Z" fill="#212D47"/>
<path d="M61.9694 177.637C63.1929 177.637 64.1848 177.302 64.1848 176.889C64.1848 176.477 63.1929 176.142 61.9694 176.142C60.7458 176.142 59.7539 176.477 59.7539 176.889C59.7539 177.302 60.7458 177.637 61.9694 177.637Z" fill="white"/>
<path d="M48.9434 177.61C48.9434 177.477 48.97 177.343 49.0234 177.21C49.237 176.783 49.7174 176.622 50.1445 176.836" stroke="#D32A3B" stroke-width="0.800766" stroke-miterlimit="10" stroke-linecap="round" stroke-linejoin="round"/>
<path d="M50.4917 177.61C50.4917 177.477 50.5184 177.343 50.5718 177.21C50.7853 176.783 51.2658 176.622 51.6928 176.836" stroke="#D32A3B" stroke-width="0.800766" stroke-miterlimit="10" stroke-linecap="round" stroke-linejoin="round"/>
<path d="M51.96 177.61C51.96 177.477 51.9866 177.343 52.04 177.21C52.2536 176.783 52.734 176.622 53.1611 176.836" stroke="#D32A3B" stroke-width="0.800766" stroke-miterlimit="10" stroke-linecap="round" stroke-linejoin="round"/>
<path d="M88.0743 73.7773H84.4174C83.0828 73.7773 82.0151 72.7096 82.0151 71.375V50.5017C82.0151 49.1671 83.0828 48.0994 84.4174 48.0994H88.0743C89.4089 48.0994 90.4766 49.1671 90.4766 50.5017V71.375C90.4766 72.6829 89.4089 73.7773 88.0743 73.7773Z" fill="#BCBCBC"/>
<path d="M90.3965 73.7773H86.7397C85.4051 73.7773 84.3374 72.7096 84.3374 71.375V50.5017C84.3374 49.1671 85.4051 48.0994 86.7397 48.0994H90.3965C91.7311 48.0994 92.7988 49.1671 92.7988 50.5017V71.375C92.7988 72.6829 91.7311 73.7773 90.3965 73.7773Z" fill="#F7F7F7"/>
<path d="M80.0663 78.7154V90.1396C80.0663 95.2645 76.0091 99.5887 70.8842 99.7221C65.5992 99.8556 61.2483 95.5848 61.2483 90.3265V74.7382C61.2483 71.8555 58.9261 69.5332 56.0434 69.5332C53.1606 69.5332 50.8384 71.8555 50.8384 74.7382V90.3265C50.8384 101.27 59.7002 110.132 70.644 110.132C81.5878 110.132 90.4496 101.27 90.4496 90.3265V78.7154H80.0663Z" fill="#DD3142"/>
<path d="M80.0663 78.7154V90.1396C80.0663 95.2645 76.0091 99.5887 70.8842 99.7221C65.5992 99.8556 61.2483 95.5848 61.2483 90.3265V74.7382C61.2483 71.8555 58.9261 69.5332 56.0434 69.5332C53.1606 69.5332 50.8384 71.8555 50.8384 74.7382V90.3265C50.8384 101.27 59.7002 110.132 70.644 110.132C81.5878 110.132 90.4496 101.27 90.4496 90.3265V78.7154H80.0663Z" fill="#DD3142"/>
<path d="M56.0437 72.2024C57.4317 72.2024 58.5795 73.3502 58.5795 74.7382V90.3264C58.5795 93.5562 59.834 96.5724 62.1296 98.868C64.4251 101.163 67.4413 102.418 70.6711 102.418C70.7778 102.418 70.8579 102.418 70.9647 102.418C77.4509 102.258 82.7627 96.7593 82.7627 90.1663V81.4112L84.7112 78.742H80.0934V90.1663C80.0934 95.2912 76.0362 99.6153 70.9113 99.7488C65.6262 99.8823 61.2754 95.6115 61.2754 90.3531V74.7649C61.2754 71.8821 58.9532 69.5599 56.0704 69.5599C55.3231 69.5599 54.6024 69.7201 53.9351 70.0137C54.9761 71.3216 55.7501 72.2024 56.0437 72.2024Z" fill="#D82B45"/>
<path d="M54.1487 117.045H39.9751V172.992H54.1487V117.045Z" fill="#212D47"/>
<path d="M54.1487 169.869H39.9751V172.992H54.1487V169.869Z" fill="#2D3854"/>
<path d="M44.8865 117.045H30.7129V172.992H44.8865V117.045Z" fill="#2D3854"/>
<path d="M41.2294 169.869H34.3428V180.146H41.2294V169.869Z" fill="#FBC3AA"/>
<path d="M44.8865 169.869H30.7129V172.992H44.8865V169.869Z" fill="#394663"/>
<path d="M53.2145 125.694H30.4727C27.7501 125.694 25.5347 123.478 25.5347 120.756V116.485H58.1525V120.756C58.1525 123.478 55.9371 125.694 53.2145 125.694Z" fill="#2D3854"/>
<path d="M34.77 113.255H12.7489C7.46386 113.255 3.5401 106.635 4.68786 99.642L7.59731 81.7849C8.77177 74.6314 13.4429 69.5065 18.8614 69.5065H27.6699L34.77 113.255Z" fill="#22314C"/>
<path d="M16.7794 107.943C12.8823 107.943 9.81273 104.633 10.0797 100.763L10.5601 94.1701H22.9987L23.4791 100.763C23.7461 104.633 20.6765 107.943 16.7794 107.943Z" fill="#2D3854"/>
<path d="M58.1525 110.719H25.5347V118.113H58.1525V110.719Z" fill="#DD3142"/>
<path d="M57.3784 115.577H24.9474C24.5203 115.577 24.1733 115.23 24.1733 114.803V76.4198C24.1733 72.6028 27.2696 69.5332 31.0599 69.5332H53.4547C56.0438 69.5332 58.1258 71.6419 58.1258 74.2044V114.803C58.1525 115.23 57.8055 115.577 57.3784 115.577Z" fill="#E53E46"/>
<path d="M45.7938 76.7668H39.9215C38.5602 76.7668 37.4658 75.6724 37.4658 74.3111V69.5599H49.851V72.7096C49.851 74.9517 48.0359 76.7668 45.7938 76.7668Z" fill="#DD3142"/>
<path d="M49.3174 65.0222L43.1782 65.7162L43.3384 69.5599H49.3174C54.1754 69.5599 58.1259 73.5103 58.1259 78.3683V111.413C60.6349 111.413 62.6635 109.385 62.6635 106.876V78.3683C62.6635 71.0013 56.7112 65.0222 49.3174 65.0222Z" fill="#2D3854"/>
<path d="M60.1807 77.6209C60.1807 71.9889 55.6163 67.4245 49.9842 67.4245H45.3932V65.0222H43.3379V69.5599H49.3169C54.1749 69.5599 58.1254 73.5103 58.1254 78.3683V111.413C58.8727 111.413 59.5667 111.226 60.1807 110.933V77.6209Z" fill="#25314C"/>
<path d="M45.3937 74.4713H40.3222C38.7741 74.4713 37.5195 73.2167 37.5195 71.6686V56.9612H48.1964V71.6686C48.1964 73.2167 46.9419 74.4713 45.3937 74.4713Z" fill="#FBC3AA"/>
<path opacity="0.76" d="M41.123 57.5484H48.1964V56.9612H37.5195V71.6686C37.5195 73.2167 38.7741 74.4713 40.3222 74.4713H41.1497V57.5484H41.123Z" fill="#F2AD91"/>
<path d="M37.5195 64.6752C39.5214 65.0222 42.9647 65.1824 46.6216 63.5808C47.2088 63.3139 47.716 63.047 48.1964 62.7267V56.9612H37.5195V64.6752Z" fill="#ED9C80"/>
<path d="M29.9924 65.5027H25.6682C23.4261 65.5027 21.6377 67.3178 21.6377 69.5332V70.6276L24.04 69.7201C27.857 69.7201 30.98 72.3092 30.98 76.1262V107.223C30.98 109.545 32.8484 111.413 35.1706 111.413C37.4929 111.413 39.3613 109.545 39.3613 107.223V74.8183C39.3079 69.6667 35.144 65.5027 29.9924 65.5027Z" fill="#2D3854"/>
<path d="M33.6219 76.1262V111.12C32.047 110.506 30.9526 109.011 30.9526 107.223V80.824C32.4207 79.356 33.3549 77.3274 33.3549 75.1119C33.3549 74.3645 33.2482 73.6438 33.0613 72.9498C33.4083 73.9107 33.6219 75.0051 33.6219 76.1262Z" fill="#25314C"/>
<path d="M85.1115 83.3064C89.2392 83.3064 92.5853 79.9603 92.5853 75.8326C92.5853 71.7049 89.2392 68.3588 85.1115 68.3588C80.9838 68.3588 77.6377 71.7049 77.6377 75.8326C77.6377 79.9603 80.9838 83.3064 85.1115 83.3064Z" fill="#FBC3AA"/>
<path opacity="0.76" d="M88.261 80.824C83.5632 80.824 79.7462 77.007 79.7462 72.3092C79.7462 71.6419 79.8263 71.0013 79.9598 70.3874C78.5184 71.7487 77.6108 73.6972 77.6108 75.8326C77.6108 79.9699 80.9474 83.3064 85.0847 83.3064C87.5136 83.3064 89.649 82.1586 91.037 80.3703C90.1829 80.6639 89.2486 80.824 88.261 80.824Z" fill="#F2AD91"/>
<path d="M48.4895 185.084H28.3369C28.3369 180.573 31.9937 176.889 36.5314 176.889H48.4895V185.084Z" fill="#DD3142"/>
<path d="M41.8701 185.084C41.8701 179.639 46.301 175.208 51.7462 175.208C57.1914 175.208 61.6224 179.639 61.6224 185.084H41.8701Z" fill="#E53E46"/>
<path d="M61.6221 186.498H28.3369C27.9365 186.498 27.6162 186.178 27.6162 185.778C27.6162 185.377 27.9365 185.057 28.3369 185.057H61.6221C62.0225 185.057 62.3428 185.377 62.3428 185.778C62.3161 186.178 61.9958 186.498 61.6221 186.498Z" fill="#212D47"/>
<path d="M54.6823 177.637C55.9058 177.637 56.8977 177.302 56.8977 176.889C56.8977 176.477 55.9058 176.142 54.6823 176.142C53.4587 176.142 52.4668 176.477 52.4668 176.889C52.4668 177.302 53.4587 177.637 54.6823 177.637Z" fill="white"/>
<path d="M39.2539 177.61C39.2539 177.477 39.2806 177.343 39.334 177.21C39.5475 176.783 40.028 176.622 40.4551 176.836" stroke="#D32A3B" stroke-width="0.800766" stroke-miterlimit="10" stroke-linecap="round" stroke-linejoin="round"/>
<path d="M40.8022 177.61C40.8022 177.477 40.8289 177.343 40.8823 177.21C41.0959 176.783 41.5763 176.622 42.0034 176.836" stroke="#D32A3B" stroke-width="0.800766" stroke-miterlimit="10" stroke-linecap="round" stroke-linejoin="round"/>
<path d="M42.2437 177.61C42.2437 177.477 42.2703 177.343 42.3237 177.21C42.5373 176.783 43.0177 176.622 43.4448 176.836" stroke="#D32A3B" stroke-width="0.800766" stroke-miterlimit="10" stroke-linecap="round" stroke-linejoin="round"/>
<path d="M46.0877 60.5646C36.959 62.2996 28.1506 56.2672 26.4423 47.1384L20.9971 18.3108L61.3824 10.7036L65.4396 32.2175C67.9487 45.3768 59.2737 58.0822 46.0877 60.5646Z" fill="#FBC3AA"/>
<path opacity="0.76" d="M37.5195 47.1384L32.0743 18.3109L61.7561 12.7055L61.3824 10.6769L20.9971 18.2842L26.4423 47.1118C28.1773 56.2405 36.959 62.2462 46.0877 60.5379C46.9419 60.3778 47.796 60.1642 48.5968 59.924C43.0715 58.0556 38.694 53.3043 37.5195 47.1384Z" fill="#F2AD91"/>
<path d="M62.103 12.839L60.6349 4.40422L20.5966 14.3604C19.3421 14.6807 18.568 15.8819 18.8083 17.1631L23.8531 43.9621L30.4728 42.7076L27.3765 22.1812L62.103 12.839Z" fill="#C65132"/>
<path d="M47.7689 45.9907C44.8594 45.9907 42.1368 45.4568 39.8413 44.5226C40.8556 48.7666 44.0053 51.8629 47.7689 51.8629C51.5325 51.8629 54.6555 48.7666 55.6965 44.5226C53.3743 45.4301 50.6783 45.9907 47.7689 45.9907Z" fill="white"/>
<path d="M39.2811 34.513C39.0675 33.3919 39.8149 32.2976 40.936 32.1107C42.0571 31.8972 43.1514 32.6446 43.3383 33.7656" stroke="#3F2E21" stroke-width="1.06769" stroke-miterlimit="10" stroke-linecap="round" stroke-linejoin="round"/>
<path d="M35.731 30.8295L42.751 27.3328" stroke="#DD6944" stroke-width="2.13538" stroke-miterlimit="10" stroke-linecap="round" stroke-linejoin="round"/>
<path d="M55.9369 30.5893C55.7234 29.4682 54.6557 28.7208 53.5346 28.9344C52.4135 29.1479 51.6662 30.2156 51.8797 31.3367" stroke="#3F2E21" stroke-width="1.06769" stroke-miterlimit="10" stroke-linecap="round" stroke-linejoin="round"/>
<path d="M57.7788 26.8257L49.958 26.1317" stroke="#DD6944" stroke-width="2.13538" stroke-miterlimit="10" stroke-linecap="round" stroke-linejoin="round"/>
<path d="M59.7007 14.4672C60.1011 16.1221 63.1707 27.3595 63.1707 27.3595H64.5053L61.6492 12.1983L59.7007 14.4672Z" fill="#C65132"/>
<path d="M24.4138 46.311C28.0108 46.311 30.9267 43.3951 30.9267 39.7981C30.9267 36.2013 28.0108 33.2852 24.4138 33.2852C20.8167 33.2852 17.9009 36.2013 17.9009 39.7981C17.9009 43.3951 20.8167 46.311 24.4138 46.311Z" fill="#FBC3AA"/>
<path d="M25.3209 43.2147C27.2078 43.2147 28.7375 41.685 28.7375 39.7981C28.7375 37.9112 27.2078 36.3815 25.3209 36.3815C23.434 36.3815 21.9043 37.9112 21.9043 39.7981C21.9043 41.685 23.434 43.2147 25.3209 43.2147Z" fill="#F2AD91"/>
<path d="M64.8789 0C68.0285 8.19451 63.9446 17.3766 55.7501 20.4996C47.5556 23.6493 38.3735 19.5654 35.2505 11.3709L64.8789 0Z" fill="#DD6944"/>
<path d="M46.4076 3.49667C49.4506 9.31558 47.1817 16.4958 41.3628 19.5387C35.5439 22.5816 28.3637 20.3128 25.3208 14.4939L46.4076 3.49667Z" fill="#DD6944"/>
<path d="M30.9526 80.824V76.1262C30.9526 72.3092 27.8563 69.7201 24.0127 69.7201L21.6104 70.6276V69.5332C21.6104 68.8926 21.7705 68.2787 22.0374 67.7182C23.025 67.2644 24.1194 67.0242 25.2939 67.0242C26.7886 67.0242 28.1766 67.4245 29.3778 68.1452C31.1395 69.1862 32.4741 70.8945 33.0346 72.8965C33.2215 73.5905 33.3282 74.3111 33.3282 75.0585C33.3549 77.3274 32.4207 79.356 30.9526 80.824Z" fill="#25314C"/>
<path d="M34.3163 126.628C38.5176 126.628 41.9235 123.222 41.9235 119.021C41.9235 114.819 38.5176 111.413 34.3163 111.413C30.1149 111.413 26.709 114.819 26.709 119.021C26.709 123.222 30.1149 126.628 34.3163 126.628Z" fill="#FBC3AA"/>
<path d="M43.3915 121.343L39.5745 119.474C38.5602 118.967 38.1331 117.739 38.6403 116.725L39.5478 114.883L45.2066 117.659C46.2209 118.166 46.6479 119.394 46.1408 120.409C45.6603 121.45 44.4325 121.85 43.3915 121.343Z" fill="#F2AD91"/>
<path d="M35.4373 127.242L36.4783 122.517C36.7452 121.236 37.9997 120.435 39.2809 120.729L41.2829 121.183C41.443 121.209 41.5498 121.37 41.4964 121.53L40.0283 128.256C39.7614 129.537 38.5069 130.338 37.2256 130.044C35.9711 129.751 35.1437 128.496 35.4373 127.242Z" fill="#F2AD91"/>
<path d="M37.359 120.302C39.7079 117.793 39.3609 113.816 36.6117 111.734C31.1664 107.596 27.3495 101.297 26.5754 94.0634C25.9348 88.2712 27.2961 82.7192 30.0454 78.0747C31.1931 76.1529 31.1664 73.6705 29.8852 71.8288C27.5096 68.3588 22.358 68.4922 20.1959 72.0423C16.2188 78.6353 14.2436 86.5095 15.0177 94.7574C16.032 105.514 21.6106 114.857 29.6717 120.969C32.0473 122.757 35.3571 122.437 37.359 120.302Z" fill="#DD3142"/>
<path d="M30.0721 78.0747C30.7928 76.8736 31.033 75.4856 30.8195 74.151C29.6984 75.3254 28.5506 76.4465 28.2303 76.9803C25.1074 82.212 23.7994 88.2178 24.4667 94.3036C25.2942 101.831 29.2446 108.824 35.3305 113.442C35.9711 113.922 37.8929 116.058 38.8005 117.499C39.2275 115.417 38.4535 113.148 36.6117 111.734C31.1665 107.596 27.3495 101.297 26.5754 94.0634C25.9615 88.2445 27.2961 82.7192 30.0721 78.0747Z" fill="#D82B45"/>
<path d="M46.061 88.9918C47.3876 88.9918 48.4633 87.9164 48.4633 86.5895C48.4633 85.2627 47.3876 84.1872 46.061 84.1872C44.7341 84.1872 43.6587 85.2627 43.6587 86.5895C43.6587 87.9164 44.7341 88.9918 46.061 88.9918Z" fill="#DD3142"/>
<path d="M41.6567 94.9442C42.32 94.9442 42.8579 94.4066 42.8579 93.7431C42.8579 93.0797 42.32 92.5419 41.6567 92.5419C40.9934 92.5419 40.4556 93.0797 40.4556 93.7431C40.4556 94.4066 40.9934 94.9442 41.6567 94.9442Z" fill="#DD3142"/>
<path d="M52.0395 91.0471C52.7028 91.0471 53.2407 90.5093 53.2407 89.846C53.2407 89.1827 52.7028 88.6448 52.0395 88.6448C51.3762 88.6448 50.8384 89.1827 50.8384 89.846C50.8384 90.5093 51.3762 91.0471 52.0395 91.0471Z" fill="#DD3142"/>
<path d="M49.3974 96.1453C50.0607 96.1453 50.5986 95.6078 50.5986 94.9442C50.5986 94.2809 50.0607 93.743 49.3974 93.743C48.7341 93.743 48.1963 94.2809 48.1963 94.9442C48.1963 95.6078 48.7341 96.1453 49.3974 96.1453Z" fill="#DD3142"/>
<path opacity="0.69" d="M43.11 38.4421C44.7785 37.9502 45.969 37.0013 45.7691 36.3228C45.5689 35.644 44.0541 35.4924 42.3856 35.9841C40.7171 36.476 39.5266 37.4246 39.7265 38.1034C39.9267 38.7822 41.4415 38.9338 43.11 38.4421Z" fill="#F2AD91"/>
<path opacity="0.69" d="M55.4422 35.2057C57.1668 34.9775 58.4894 34.2237 58.3968 33.5222C58.3039 32.8207 56.8305 32.4369 55.1059 32.6651C53.3813 32.8933 52.0587 33.6471 52.1516 34.3486C52.2442 35.0501 53.7176 35.4339 55.4422 35.2057Z" fill="#F2AD91"/>
<path d="M88.6881 54.2119C89.3367 54.2119 89.8626 53.6861 89.8626 53.0374C89.8626 52.3888 89.3367 51.863 88.6881 51.863C88.0395 51.863 87.5137 52.3888 87.5137 53.0374C87.5137 53.6861 88.0395 54.2119 88.6881 54.2119Z" fill="#BCBCBC"/>
</g>
<defs>
<filter id="filter0_d_11_563" x="0.487305" y="0" width="97.5127" height="194.499" filterUnits="userSpaceOnUse" color-interpolation-filters="sRGB">
<feFlood flood-opacity="0" result="BackgroundImageFix"/>
<feColorMatrix in="SourceAlpha" type="matrix" values="0 0 0 0 0 0 0 0 0 0 0 0 0 0 0 0 0 0 127 0" result="hardAlpha"/>
<feOffset dy="4"/>
<feGaussianBlur stdDeviation="2"/>
<feComposite in2="hardAlpha" operator="out"/>
<feColorMatrix type="matrix" values="0 0 0 0 0 0 0 0 0 0 0 0 0 0 0 0 0 0 0.25 0"/>
<feBlend mode="normal" in2="BackgroundImageFix" result="effect1_dropShadow_11_563"/>
<feBlend mode="normal" in="SourceGraphic" in2="effect1_dropShadow_11_563" result="shape"/>
</filter>
</defs>
</svg>
