<svg width="121" height="192" viewBox="0 0 121 192" fill="none" xmlns="http://www.w3.org/2000/svg">
<g filter="url(#filter0_d_6_787)">
<path fill-rule="evenodd" clip-rule="evenodd" d="M65.6212 21.3667C68.5097 23.1707 71.3482 24.0428 72.6805 23.6869C76.0212 22.7944 76.3286 10.13 73.7435 5.1373C71.1585 0.144621 57.8696 -2.03153 57.2 7.86058C56.9675 11.2938 58.3585 14.3578 60.4139 16.8579L56.7286 34.6588H67.4343L65.6212 21.3667Z" fill="#57331F"/>
<path fill-rule="evenodd" clip-rule="evenodd" d="M66.1564 8.95312C67.0824 7.52431 67.9716 6.43448 69.128 5.8016C73.8348 5.87865 74.3857 5.00434 74.3857 2.05746C73.6254 1.49377 70.9432 0.544634 67.9395 0.277636C66.4072 -0.17674 64.5916 -0.091262 62.8431 0.666682C60.6845 1.30138 58.8564 2.66819 58.049 5.22718C55.1279 10.4508 57.3451 15.8884 60.333 17.7459C61.1285 16.7696 61.8225 15.8233 62.4415 14.9175C61.944 14.4139 61.6354 13.7111 61.6354 12.9335C61.6354 11.4018 62.8337 10.1601 64.312 10.1601C64.4207 10.1601 64.5278 10.1668 64.6331 10.1798C64.6995 12.0949 64.973 18.574 65.6923 20.8246C66.54 23.4778 71.4865 24.1294 73.2118 24.1294C74.7017 24.1294 74.6512 22.6672 74.6148 21.6193C74.6092 21.4684 74.6045 21.3261 74.6045 21.198C74.6045 20.9303 74.2684 20.931 73.8887 20.9317C73.3959 20.9327 72.8295 20.9339 72.8295 20.3478C72.8295 19.7089 73.6815 19.2189 74.444 18.7804C74.9196 18.5068 75.3602 18.2532 75.5374 17.9962C76.0965 17.1851 76.2849 16.0911 75.4415 16.0911C74.9804 16.0911 74.3476 16.3665 73.5864 16.698C72.4374 17.1983 70.9954 17.8261 69.4088 17.8261C66.7874 17.8261 66.1641 9.06248 66.1564 8.95312Z" fill="#191847"/>
<path fill-rule="evenodd" clip-rule="evenodd" d="M55.8365 73.0247L77.7308 130.447L92.4154 178.993H98.2139L75.7644 73.0247H55.8365Z" fill="#3D2216"/>
<path fill-rule="evenodd" clip-rule="evenodd" d="M51.4278 73.0247C51.1945 93.2031 47.7944 120.37 47.2511 121.628C46.7078 122.886 9.74548 153.619 9.74548 153.619L13.7394 158.048C13.7394 158.048 57.3518 131.698 59.3699 128.184C61.3881 124.669 67.9585 92.3293 73.2334 73.0247H51.4278Z" fill="#57331F"/>
<path fill-rule="evenodd" clip-rule="evenodd" d="M10.3771 152.752C10.2377 152.253 9.73103 151.956 9.25984 152.133C8.36438 152.471 7.02713 153.027 6.43923 153.539C5.51487 154.342 4 156.203 4 156.203C4.89974 157.315 20.1724 176.175 20.1724 176.175C20.1724 176.175 23.2865 174.794 22.1263 172.944C20.9661 171.095 20.2274 169.847 20.2274 169.847L16.6992 157.074C16.6328 156.833 16.388 156.697 16.158 156.773L14.2605 157.396C14.2605 157.396 12.3041 156.451 11.5179 155.481C11.0323 154.881 10.6208 153.625 10.3771 152.752Z" fill="#E4E4E4"/>
<path fill-rule="evenodd" clip-rule="evenodd" d="M91.2414 176.219C90.7833 176.008 90.2383 176.22 90.0666 176.708C89.7404 177.635 89.2926 179.055 89.2926 179.851C89.2926 181.101 89.6946 183.5 89.6946 183.5C91.0941 183.5 114.854 183.5 114.854 183.5C114.854 183.5 115.835 180.14 113.722 179.872C111.609 179.604 110.212 179.388 110.212 179.388L98.5002 173.978C98.2802 173.876 98.0225 173.983 97.9304 174.215L97.1718 176.122C97.1718 176.122 95.2157 177.067 93.9925 177.067C93.2369 177.067 92.0433 176.586 91.2414 176.219Z" fill="#E4E4E4"/>
<path fill-rule="evenodd" clip-rule="evenodd" d="M70.5572 173.993L98.127 170.892L77.6944 73.0247H53.0011L70.5572 173.993Z" fill="#69A1AC"/>
<path fill-rule="evenodd" clip-rule="evenodd" d="M15.4481 146.474L33.5322 168.655C33.5322 168.655 62.1039 136.32 66.8466 126.458C71.5898 116.595 75.3744 73.0247 75.3744 73.0247H47.5742C47.5742 73.0247 45.5068 111.356 44.7871 113.14C44.0674 114.923 15.4481 146.474 15.4481 146.474Z" fill="#89C5CC"/>
<path fill-rule="evenodd" clip-rule="evenodd" d="M25.2343 93.7827C26.5414 91.0347 33.0728 55.6672 33.0728 55.6672L42.8409 55.7053C42.8409 55.7053 31.6814 93.1703 30.9935 94.9371C30.0995 97.2329 31.6177 100.568 32.6473 102.83C32.8066 103.18 32.9543 103.504 33.0793 103.794C31.6506 104.457 30.9643 103.656 30.2408 102.812C29.4239 101.858 28.5591 100.85 26.5234 101.831C25.7369 102.21 24.9929 102.659 24.2658 103.096C21.7544 104.609 19.4473 105.999 16.3087 103.992C15.8112 103.674 15.2659 102.476 16.5833 101.54C19.8655 99.2079 24.5951 95.1262 25.2343 93.7827ZM107.502 80.0023L94.8656 67.2281L90.6683 74.7534L103.809 82.7811C107.104 88.1596 109.039 90.4834 109.614 89.7525C110.099 89.1369 109.877 88.4614 109.672 87.8396C109.513 87.355 109.364 86.9032 109.568 86.5366C110.035 85.6991 112.673 86.1784 115.158 86.7447C117.643 87.3106 117.068 86.0457 116.54 85.3858C114.192 83.4219 111.179 81.6271 107.502 80.0023Z" fill="#57331F"/>
<path fill-rule="evenodd" clip-rule="evenodd" d="M62.8378 26.9542L66.6952 26.2685C72.7715 48.5262 103.992 63.698 105.909 72.0181C106.612 75.0698 104.492 76.612 105.587 77.5414L100.573 81.3449C99.7245 80.3183 97.9126 82.1961 94.1289 80.8824C90.3451 79.5692 62.8378 53.3092 62.8378 26.9542Z" fill="#191847"/>
<path fill-rule="evenodd" clip-rule="evenodd" d="M55.9053 22.302C54.9622 22.2337 54.1436 22.9711 54.0777 23.9492L53.8902 26.7301C46.6305 32.5192 28.6386 49.8168 23.9501 82.0181C23.4576 85.4009 24.3484 87.2125 25.0599 88.6602C25.5467 89.6504 25.95 90.4706 25.7689 91.506L32.3307 93.3829C32.3307 92.6182 33.1579 92.0363 34.2247 91.2859C35.7758 90.1945 37.8347 88.7463 38.5959 85.8598C39.3173 83.1232 40.3739 79.7059 41.636 75.9037C41.7554 80.9392 42.6768 85.57 44.6842 89.405C49.6928 98.974 78.6348 88.4801 81.6587 78.7184C83.2723 73.5093 80.9827 69.136 77.9546 63.3522C74.1109 56.0107 69.0774 46.3959 69.3262 29.9131L69.6524 25.0778C69.7183 24.0996 69.0072 23.2515 68.0636 23.1831L55.9053 22.302Z" fill="#2F3676"/>
</g>
<defs>
<filter id="filter0_d_6_787" x="0" y="0" width="121" height="191.5" filterUnits="userSpaceOnUse" color-interpolation-filters="sRGB">
<feFlood flood-opacity="0" result="BackgroundImageFix"/>
<feColorMatrix in="SourceAlpha" type="matrix" values="0 0 0 0 0 0 0 0 0 0 0 0 0 0 0 0 0 0 127 0" result="hardAlpha"/>
<feOffset dy="4"/>
<feGaussianBlur stdDeviation="2"/>
<feComposite in2="hardAlpha" operator="out"/>
<feColorMatrix type="matrix" values="0 0 0 0 0 0 0 0 0 0 0 0 0 0 0 0 0 0 0.25 0"/>
<feBlend mode="normal" in2="BackgroundImageFix" result="effect1_dropShadow_6_787"/>
<feBlend mode="normal" in="SourceGraphic" in2="effect1_dropShadow_6_787" result="shape"/>
</filter>
</defs>
</svg>
