<svg width="77" height="132" viewBox="0 0 77 132" fill="none" xmlns="http://www.w3.org/2000/svg">
<path d="M65.3531 104.415H11.2031L13.2281 95.7405C14.2781 91.2405 19.8281 87.9655 26.3281 87.9655H50.2281C56.7281 87.9655 62.2781 91.2655 63.3281 95.7405L65.3531 104.415Z" fill="#E08484"/>
<path d="M65.3531 104.415H11.2031L13.2281 95.7405C14.2781 91.2405 19.8281 87.9655 26.3281 87.9655H50.2281C56.7281 87.9655 62.2781 91.2655 63.3281 95.7405L65.3531 104.415Z" stroke="#4E5A7D" stroke-width="1.5" stroke-miterlimit="10" stroke-linecap="round" stroke-linejoin="round"/>
<path d="M57.7783 97.8155H50.9783C48.3783 97.8155 46.2783 95.7155 46.2783 93.1155V82.3405H30.2783V93.1155C30.2783 95.7155 28.1783 97.8155 25.5783 97.8155H18.7783C8.82832 97.8155 0.77832 105.865 0.77832 115.815V130.49H75.7783V115.815C75.7783 105.865 67.7033 97.8155 57.7783 97.8155Z" fill="#FBE3D5"/>
<path d="M37.9782 87.2905C42.5622 87.2905 46.2782 85.108 46.2782 82.4155C46.2782 79.7232 42.5622 77.5405 37.9782 77.5405C33.3942 77.5405 29.6782 79.7232 29.6782 82.4155C29.6782 85.108 33.3942 87.2905 37.9782 87.2905Z" fill="#D5B6A5"/>
<path d="M75.7783 115.815V130.49H0.77832V115.815C0.77832 105.865 8.82832 97.8155 18.7783 97.8155H25.5783C25.7533 97.8155 25.9283 97.8155 26.1033 97.7905C27.9533 102.815 32.8033 106.415 38.4783 106.415C44.1533 106.415 48.9783 102.84 50.8283 97.8155C50.8783 97.8155 50.9283 97.8155 51.0033 97.8155H57.7783C67.7033 97.8155 75.7783 105.865 75.7783 115.815Z" fill="#E08484"/>
<path d="M31.2783 116.715C24.2533 116.715 18.5283 110.99 18.5283 103.965V97.7655H58.5033V103.965C58.5033 110.99 52.7783 116.715 45.7533 116.715H31.2783Z" fill="#D87171"/>
<path d="M57.7783 97.8155H50.9783C48.3783 97.8155 46.2783 95.7155 46.2783 93.1155V82.3405H30.2783V93.1155C30.2783 95.7155 28.1783 97.8155 25.5783 97.8155H18.7783C8.82832 97.8155 0.77832 105.865 0.77832 115.815V130.49H75.7783V115.815C75.7783 105.865 67.7033 97.8155 57.7783 97.8155Z" stroke="#4E5A7D" stroke-width="1.5" stroke-miterlimit="10" stroke-linecap="round" stroke-linejoin="round"/>
<path d="M55.6535 22.1655C55.3785 18.3655 56.3785 15.4905 58.1535 14.8655C59.9035 14.2405 61.9535 15.9655 62.6535 16.5655C69.2785 22.1155 65.2035 40.6905 64.0785 45.4655L55.6535 22.1655Z" fill="#BCAFAA"/>
<path d="M55.1535 22.1655C54.8785 18.3655 55.8785 15.4905 57.6535 14.8655C58.0035 14.7405 58.3535 14.7155 58.7035 14.7405" stroke="#4E5A7D" stroke-width="1.5" stroke-miterlimit="10" stroke-linecap="round" stroke-linejoin="round"/>
<path d="M59.2033 14.7405C60.6533 14.8655 62.0783 16.0655 62.6533 16.5655C69.2783 22.1155 65.2033 40.6905 64.0783 45.4655L55.6533 22.1905" stroke="#4E5A7D" stroke-width="1.5" stroke-miterlimit="10" stroke-linecap="round" stroke-linejoin="round"/>
<path d="M12.1532 47.1655V38.7405C12.1532 29.1655 20.6282 31.6405 30.1782 31.6405L47.8532 32.3155C53.4032 32.3155 56.7532 24.0405 59.9032 28.0905C59.8032 25.1405 59.2532 21.3905 57.5282 17.4655C56.5782 15.2655 52.6032 6.94047 43.4532 3.11547C40.3532 1.81547 37.7782 1.51547 36.2032 1.34047C30.1782 0.665471 27.7032 -0.409528 17.3532 2.46547C10.8032 4.26547 6.10316 7.54047 6.02816 8.96547C5.95316 10.2655 9.12816 9.94047 11.7282 11.8905C15.9532 15.0405 10.0532 22.1405 9.22816 31.1405C8.87816 34.9905 9.20316 40.3905 12.1532 47.1655Z" fill="#BCAFAA"/>
<path d="M58.7033 20.6655C58.3783 19.3655 57.7283 17.9405 57.5283 17.4655C56.5783 15.2655 52.6033 6.94047 43.4533 3.11547C40.3533 1.81547 37.7783 1.51547 36.2033 1.34047C30.1783 0.665467 26.1033 0.0154705 15.7533 2.89047C9.20326 4.69047 5.50327 6.21547 6.02827 8.96547C6.35327 10.6905 10.2283 10.2155 12.4783 13.4655C15.4783 17.8155 10.0533 22.1405 9.22826 31.1655C8.87826 35.0155 9.20327 40.4155 12.1533 47.1905V38.7655C12.1533 29.1905 20.6283 31.6655 30.1783 31.6655L47.8533 32.3405C53.4033 32.3405 56.7533 24.0655 59.9033 28.1155" stroke="#4E5A7D" stroke-width="1.5" stroke-miterlimit="10" stroke-linecap="round" stroke-linejoin="round"/>
<path d="M59.0282 27.0155C57.7782 25.6655 55.9032 25.0905 54.1032 25.4655C49.6282 26.4155 44.1782 26.9655 38.2782 26.9655C32.1282 26.9655 26.4532 26.3655 21.8532 25.3405C20.0532 24.9405 18.1532 25.4905 16.9032 26.8405C13.9782 29.9405 12.1782 34.1155 12.1782 38.7155V60.0655C12.1782 73.7655 23.3032 84.8905 37.0032 84.8905H38.8032C52.5032 84.8905 63.6282 73.7655 63.6282 60.0655V38.7155C63.6032 34.2155 61.8532 30.1155 59.0282 27.0155Z" fill="#FBE3D5"/>
<path d="M38.7783 81.8405H36.9783C23.2783 81.8405 12.1533 70.7155 12.1533 57.0155V59.5905C12.1533 73.2905 23.2783 84.4155 36.9783 84.4155H38.7783C52.4783 84.4155 63.6033 73.2905 63.6033 59.5905V57.0155C63.6033 70.7155 52.4783 81.8405 38.7783 81.8405Z" fill="#D5B6A5"/>
<path d="M39.6284 61.3655C39.6284 61.3655 42.1534 60.5905 43.3284 60.9655C44.1784 57.2905 41.5784 53.9405 41.5784 53.9405" stroke="#4E5A7D" stroke-width="1.5" stroke-miterlimit="10" stroke-linecap="round" stroke-linejoin="round"/>
<path d="M44.6781 71.9655C43.2281 72.9155 41.3781 73.4905 39.3281 73.4905C34.7781 73.4905 31.0781 70.6405 31.0781 67.1405" stroke="#4E5A7D" stroke-width="1.5" stroke-miterlimit="10" stroke-linecap="round" stroke-linejoin="round"/>
<path d="M30.1784 48.6905C31.5867 48.6905 32.7284 47.2577 32.7284 45.4905C32.7284 43.7232 31.5867 42.2905 30.1784 42.2905C28.7702 42.2905 27.6284 43.7232 27.6284 45.4905C27.6284 47.2577 28.7702 48.6905 30.1784 48.6905Z" fill="#4E5A7D"/>
<path d="M49.0783 48.5655C50.4866 48.5655 51.6283 47.1327 51.6283 45.3655C51.6283 43.5982 50.4866 42.1655 49.0783 42.1655C47.6701 42.1655 46.5283 43.5982 46.5283 45.3655C46.5283 47.1327 47.6701 48.5655 49.0783 48.5655Z" fill="#4E5A7D"/>
<path d="M54.1032 25.4905C49.6282 26.4405 44.1782 26.9905 38.2782 26.9905C32.1282 26.9905 26.4532 26.3905 21.8532 25.3655C20.0532 24.9655 18.1532 25.5155 16.9032 26.8655C13.9782 29.9655 12.1782 34.1405 12.1782 38.7405V40.1405C20.6032 40.7405 29.1532 41.0655 37.6032 41.0655C46.2532 41.0655 54.9782 40.7405 63.6282 40.0905V38.7405C63.6282 34.2155 61.9032 30.1155 59.0532 27.0155C57.7782 25.6655 55.9032 25.0905 54.1032 25.4905Z" fill="#D5B6A5"/>
<path d="M59.0282 27.0155C57.7782 25.6655 55.9032 25.0905 54.1032 25.4655C49.6282 26.4155 44.1782 26.9655 38.2782 26.9655C32.1282 26.9655 26.4532 26.3655 21.8532 25.3405C20.0532 24.9405 18.1532 25.4905 16.9032 26.8405C13.9782 29.9405 12.1782 34.1155 12.1782 38.7155V60.0655C12.1782 73.7655 23.3032 84.8905 37.0032 84.8905H38.8032C52.5032 84.8905 63.6282 73.7655 63.6282 60.0655V38.7155C63.6032 34.2155 61.8532 30.1155 59.0282 27.0155Z" stroke="#4E5A7D" stroke-width="1.5" stroke-miterlimit="10" stroke-linecap="round" stroke-linejoin="round"/>
<path d="M64.4531 38.2655C46.5531 39.3155 28.5781 39.3155 10.6781 38.2655C9.42812 38.1905 8.45312 37.2405 8.45312 36.0655V30.3655C8.45312 29.0905 9.62812 28.0905 11.0031 28.1655C28.7031 29.2155 46.4531 29.2155 64.1531 28.1655C65.5281 28.0905 66.7031 29.0905 66.7031 30.3655V36.0655C66.7031 37.2405 65.7281 38.1905 64.4531 38.2655Z" fill="#84BDE1"/>
<path opacity="0.3" d="M64.1531 28.1905C46.4531 29.2405 28.7031 29.2405 11.0031 28.1905C9.62812 28.1155 8.45312 29.1155 8.45312 30.3905V32.2905C8.45312 31.0155 9.62812 30.0155 11.0031 30.0905C28.7031 31.1405 46.4531 31.1405 64.1531 30.0905C65.5281 30.0155 66.7031 31.0155 66.7031 32.2905V30.3655C66.7031 29.1155 65.5281 28.1155 64.1531 28.1905Z" fill="#84BDE1"/>
<path d="M64.4531 38.2655C46.5531 39.3155 28.5781 39.3155 10.6781 38.2655C9.42812 38.1905 8.45312 37.2405 8.45312 36.0655V30.3655C8.45312 29.0905 9.62812 28.0905 11.0031 28.1655C28.7031 29.2155 46.4531 29.2155 64.1531 28.1655C65.5281 28.0905 66.7031 29.0905 66.7031 30.3655V36.0655C66.7031 37.2405 65.7281 38.1905 64.4531 38.2655Z" stroke="#4E5A7D" stroke-width="1.5" stroke-miterlimit="10" stroke-linecap="round" stroke-linejoin="round"/>
<path d="M57.5283 17.0405C57.5283 17.0405 62.6783 17.0405 63.5783 26.8155" stroke="#4E5A7D" stroke-miterlimit="10" stroke-linecap="round" stroke-linejoin="round"/>
<path d="M28.7031 4.94047C39.3281 5.49047 49.2531 10.7905 50.4531 20.0155" stroke="#4E5A7D" stroke-miterlimit="10" stroke-linecap="round" stroke-linejoin="round"/>
<path d="M21.4531 5.74047C22.8281 5.31547 24.5781 4.91547 26.3781 4.94047" stroke="#4E5A7D" stroke-miterlimit="10" stroke-linecap="round" stroke-linejoin="round"/>
<path d="M29.5781 10.6405C35.3281 11.5655 42.7781 12.4655 45.5531 21.9405" stroke="#4E5A7D" stroke-miterlimit="10" stroke-linecap="round" stroke-linejoin="round"/>
<path d="M37.5781 76.4405C37.5781 76.4405 39.0031 77.2905 41.5781 76.4405" stroke="#4E5A7D" stroke-width="1.5" stroke-miterlimit="10" stroke-linecap="round" stroke-linejoin="round"/>
<path d="M26.0535 63.3155C28.6493 63.3155 30.7535 61.2112 30.7535 58.6155C30.7535 56.0197 28.6493 53.9155 26.0535 53.9155C23.4578 53.9155 21.3535 56.0197 21.3535 58.6155C21.3535 61.2112 23.4578 63.3155 26.0535 63.3155Z" fill="#F5CFC4"/>
<path d="M50.8533 63.3155C53.4491 63.3155 55.5533 61.2112 55.5533 58.6155C55.5533 56.0197 53.4491 53.9155 50.8533 53.9155C48.2576 53.9155 46.1533 56.0197 46.1533 58.6155C46.1533 61.2112 48.2576 63.3155 50.8533 63.3155Z" fill="#F5CFC4"/>
<path d="M11.4531 53.4405H11.9531V40.2905H11.4531C9.80313 40.2905 8.45312 41.6405 8.45312 43.2905V50.4405C8.45312 52.0905 9.80313 53.4405 11.4531 53.4405Z" fill="#FEF0E3"/>
<path d="M11.4531 53.4405H11.9531V40.2905H11.4531C9.80313 40.2905 8.45312 41.6405 8.45312 43.2905V50.4405C8.45312 52.0905 9.80313 53.4405 11.4531 53.4405Z" stroke="#4E5A7D" stroke-width="1.5" stroke-miterlimit="10" stroke-linecap="round" stroke-linejoin="round"/>
<path d="M64.1035 53.4405H63.6035V40.2905H64.1035C65.7535 40.2905 67.1035 41.6405 67.1035 43.2905V50.4405C67.1035 52.0905 65.7535 53.4405 64.1035 53.4405Z" fill="#FEF0E3"/>
<path d="M64.1035 53.4405H63.6035V40.2905H64.1035C65.7535 40.2905 67.1035 41.6405 67.1035 43.2905V50.4405C67.1035 52.0905 65.7535 53.4405 64.1035 53.4405Z" stroke="#4E5A7D" stroke-width="1.5" stroke-miterlimit="10" stroke-linecap="round" stroke-linejoin="round"/>
<path d="M45.7533 114.715H31.2783C25.3533 114.715 20.5283 109.89 20.5283 103.965V93.9655H56.5033V103.965C56.5033 109.915 51.7033 114.715 45.7533 114.715Z" fill="#E08484"/>
<path d="M56.5033 93.9655V103.965C56.5033 109.89 51.6783 114.715 45.7533 114.715H31.2783C25.3533 114.715 20.5283 109.89 20.5283 103.965V93.9655" stroke="#4E5A7D" stroke-width="1.5" stroke-miterlimit="10" stroke-linecap="round" stroke-linejoin="round"/>
<path d="M50.8031 97.8155C48.9531 102.84 44.1031 106.415 38.4531 106.415C32.7781 106.415 27.9281 102.815 26.0781 97.7905C28.4281 97.5405 30.2781 95.5405 30.2781 93.1155V92.2405H46.2781V93.1155C46.2781 95.6405 48.2781 97.7155 50.8031 97.8155Z" fill="#FBE3D5"/>
<path d="M49.1031 97.4155C47.4281 101.765 43.2531 104.665 38.4531 104.665C33.6031 104.665 29.4031 101.69 27.7531 97.2655C27.2531 97.5405 26.6781 97.7155 26.0781 97.7905C27.9281 102.815 32.7781 106.415 38.4531 106.415C44.1281 106.415 48.9531 102.84 50.8031 97.8155C50.2031 97.7905 49.6281 97.6405 49.1031 97.4155Z" fill="#EDD4C6"/>
<path d="M46.2781 92.2155V93.0905C46.2781 95.2655 47.7531 97.1155 49.7781 97.6405C50.3031 97.7905 50.6031 98.3655 50.3781 98.8655C48.2531 103.315 43.7281 106.39 38.4781 106.39C33.1781 106.39 28.6281 103.265 26.5281 98.7655C26.3031 98.2905 26.5531 97.7155 27.0781 97.5655C28.9531 96.9405 30.3031 95.1905 30.3031 93.0905V92.2155" stroke="#4E5A7D" stroke-width="1.5" stroke-miterlimit="10" stroke-linecap="round" stroke-linejoin="round"/>
<path d="M25.6035 96.1905C26.9535 102.04 32.1785 106.415 38.4535 106.415C44.7285 106.415 49.9535 102.04 51.3035 96.1905" stroke="#4E5A7D" stroke-width="1.5" stroke-miterlimit="10" stroke-linecap="round" stroke-linejoin="round"/>
<path d="M29.2031 110.34C30.3076 110.34 31.2031 109.826 31.2031 109.19C31.2031 108.555 30.3076 108.04 29.2031 108.04C28.0986 108.04 27.2031 108.555 27.2031 109.19C27.2031 109.826 28.0986 110.34 29.2031 110.34Z" fill="#4E5A7D"/>
<path d="M29.2031 109.19V122.215" stroke="#4E5A7D" stroke-width="2" stroke-miterlimit="10" stroke-linecap="round" stroke-linejoin="round"/>
<path d="M47.3281 110.34C48.4326 110.34 49.3281 109.826 49.3281 109.19C49.3281 108.555 48.4326 108.04 47.3281 108.04C46.2236 108.04 45.3281 108.555 45.3281 109.19C45.3281 109.826 46.2236 110.34 47.3281 110.34Z" fill="#4E5A7D"/>
<path d="M47.3281 109.19V118.715" stroke="#4E5A7D" stroke-width="2" stroke-miterlimit="10" stroke-linecap="round" stroke-linejoin="round"/>
<path d="M29.9283 125.665H28.4283C27.4783 125.665 26.7783 124.79 27.0033 123.865L27.6533 120.965H30.7033L31.3533 123.865C31.5783 124.79 30.8783 125.665 29.9283 125.665Z" fill="#FEF0E3"/>
<path d="M29.9283 125.665H28.4283C27.4783 125.665 26.7783 124.79 27.0033 123.865L27.6533 120.965H30.7033L31.3533 123.865C31.5783 124.79 30.8783 125.665 29.9283 125.665Z" stroke="#4E5A7D" stroke-width="1.5" stroke-miterlimit="10" stroke-linecap="round" stroke-linejoin="round"/>
<path d="M48.0782 123.315H46.5782C45.6282 123.315 44.9282 122.44 45.1532 121.515L45.8032 118.615H48.8532L49.5032 121.515C49.7282 122.44 49.0282 123.315 48.0782 123.315Z" fill="#FEF0E3"/>
<path d="M48.0782 123.315H46.5782C45.6282 123.315 44.9282 122.44 45.1532 121.515L45.8032 118.615H48.8532L49.5032 121.515C49.7282 122.44 49.0282 123.315 48.0782 123.315Z" stroke="#4E5A7D" stroke-width="1.5" stroke-miterlimit="10" stroke-linecap="round" stroke-linejoin="round"/>
<path opacity="0.58" d="M36.2783 96.7905C36.2783 96.7905 37.0783 96.8655 37.9783 97.7905C37.9783 97.7905 39.0283 96.7905 39.9283 96.7905" stroke="#D5B6A5" stroke-width="1.5" stroke-miterlimit="10" stroke-linecap="round" stroke-linejoin="round"/>
<path d="M39.3285 20.8905C39.3285 20.8905 38.7785 17.7405 33.2285 16.0155" stroke="#4E5A7D" stroke-miterlimit="10" stroke-linecap="round" stroke-linejoin="round"/>
<path d="M16.0532 120.965V130.49" stroke="#4E5A7D" stroke-width="1.5" stroke-miterlimit="10" stroke-linecap="round" stroke-linejoin="round"/>
<path d="M59.9282 120.965V130.49" stroke="#4E5A7D" stroke-width="1.5" stroke-miterlimit="10" stroke-linecap="round" stroke-linejoin="round"/>
</svg>
