<svg width="17" height="23" viewBox="0 0 17 23" fill="none" xmlns="http://www.w3.org/2000/svg">
<path d="M8.5005 17.4983V12.2483M8.5005 12.2483C9.00646 12.2487 9.51045 12.1852 10.0005 12.0593M8.5005 12.2483C7.99454 12.2487 7.49055 12.1852 7.0005 12.0593M10.7505 19.5373C9.26379 19.8196 7.73722 19.8196 6.2505 19.5373M10.0005 21.9203C9.00323 22.0247 7.99778 22.0247 7.0005 21.9203M10.7505 17.4983V17.3063C10.7505 16.3233 11.4085 15.4833 12.2585 14.9903C13.6865 14.1633 14.8019 12.8885 15.4319 11.3633C16.0619 9.83815 16.1713 8.14777 15.7432 6.55412C15.315 4.96046 14.3733 3.55248 13.0638 2.54836C11.7543 1.54423 10.1502 1 8.5 1C6.84984 1 5.24573 1.54423 3.93624 2.54836C2.62675 3.55248 1.68497 4.96046 1.25683 6.55412C0.828693 8.14777 0.938097 9.83815 1.56809 11.3633C2.19809 12.8885 3.3135 14.1633 4.7415 14.9903C5.5915 15.4833 6.2505 16.3233 6.2505 17.3063V17.4983" stroke="black" stroke-width="1.5" stroke-linecap="round" stroke-linejoin="round"/>
</svg>
