<svg width="64" height="117" viewBox="0 0 64 117" fill="none" xmlns="http://www.w3.org/2000/svg">
<g filter="url(#filter0_d_9_726)">
<path d="M39.1303 42.5739C39.1303 42.5739 39.1303 37.7634 39.1303 33.9973C39.1303 31.5552 37.159 29.5839 34.7169 29.5839H10.7376C8.29552 29.5839 6.32422 27.6126 6.32422 25.1705C6.32422 22.7285 8.29552 20.7572 10.7376 20.7572H52.8706C55.3126 20.7572 57.2839 18.7859 57.2839 16.3438C57.2839 13.9017 55.3126 11.9304 52.8706 11.9304H43.5436C41.1016 11.9304 39.1303 9.95912 39.1303 7.51706C39.1303 4.92788 39.1303 2.17688 39.1303 2.17688" stroke="#579AA3" stroke-width="1.11314" stroke-miterlimit="10"/>
<path d="M40.5715 44.4864H37.3792C37.1438 44.4864 36.9673 44.2952 36.9673 44.0745V43.7067C36.9673 43.4713 37.1585 43.2948 37.3792 43.2948H40.5715C40.8069 43.2948 40.9835 43.486 40.9835 43.7067V44.0745C40.9982 44.2952 40.8069 44.4864 40.5715 44.4864Z" fill="#579AA3"/>
<path d="M40.5127 42.6034H37.4528C37.188 42.6034 36.9673 42.3827 36.9673 42.1179V41.8678C36.9673 41.603 37.188 41.3823 37.4528 41.3823H40.5127C40.7775 41.3823 40.9982 41.603 40.9982 41.8678V42.1179C40.9982 42.3827 40.7775 42.6034 40.5127 42.6034Z" fill="#579AA3"/>
<path d="M40.4391 43.486H37.5263C37.3498 43.486 37.2026 43.3389 37.2026 43.1624V42.7358C37.2026 42.5592 37.3498 42.4121 37.5263 42.4121H40.4391C40.6156 42.4121 40.7775 42.5592 40.7775 42.7358V43.1624C40.7775 43.3389 40.6304 43.486 40.4391 43.486Z" fill="#579AA3"/>
<path d="M37.8061 41.3971C37.8061 41.3971 37.8061 36.5865 37.8061 32.8204C37.8061 30.3783 35.8347 28.407 33.3927 28.407H9.41337C6.97131 28.407 5 26.4357 5 23.9937C5 21.5516 6.97131 19.5803 9.41337 19.5803H51.5463C53.9884 19.5803 55.9597 17.609 55.9597 15.1669C55.9597 12.7249 53.9884 10.7535 51.5463 10.7535H42.2194C39.7774 10.7535 37.8061 8.78224 37.8061 6.34018C37.8061 3.751 37.8061 1 37.8061 1" stroke="#2F3140" stroke-width="1.48419" stroke-miterlimit="10" stroke-linecap="round" stroke-linejoin="round"/>
<path d="M39.3948 44.4864H36.2024C35.9671 44.4864 35.7905 44.2952 35.7905 44.0745V43.7067C35.7905 43.4713 35.9818 43.2948 36.2024 43.2948H39.3948C39.6302 43.2948 39.8067 43.486 39.8067 43.7067V44.0745C39.8214 44.2952 39.6302 44.4864 39.3948 44.4864Z" fill="#2F3140"/>
<path d="M39.3359 42.6034H36.276C36.0112 42.6034 35.7905 42.3827 35.7905 42.1179V41.8678C35.7905 41.603 36.0112 41.3823 36.276 41.3823H39.3359C39.6007 41.3823 39.8214 41.603 39.8214 41.8678V42.1179C39.8214 42.3827 39.6007 42.6034 39.3359 42.6034Z" fill="#2F3140"/>
<path d="M39.2624 43.4125H36.3495C36.173 43.4125 36.0259 43.2654 36.0259 43.0889V42.8094C36.0259 42.6328 36.173 42.4857 36.3495 42.4857H39.2624C39.4389 42.4857 39.586 42.6328 39.586 42.8094V43.0889C39.6007 43.2654 39.4536 43.4125 39.2624 43.4125Z" fill="#2F3140"/>
<path d="M53.6646 53.9752C53.4439 53.4603 53.135 52.9895 52.7966 52.5629C52.7672 52.5041 52.7525 52.4452 52.7231 52.3864C51.8993 50.268 49.516 48.9439 49.516 48.9439C47.2946 47.6052 45.0438 46.7961 42.9107 46.2518C42.3517 46.1047 41.8074 46.5313 41.8074 47.105V49.7236H36.5113V47.105C36.5113 46.5313 35.967 46.1047 35.408 46.2518C33.2601 46.7961 31.024 47.6052 28.8026 48.9439C28.8026 48.9439 26.4194 50.2532 25.5956 52.3864C24.8453 54.2988 23.8302 57.5353 22.9034 61.4191L21.5353 61.8604C20.8144 64.9645 20.1671 68.4363 19.7552 71.9376L21.0351 71.5404C20.9027 72.5555 20.7997 73.5853 20.7114 74.6151L19.461 74.9387C19.1226 79.3226 19.2403 83.6183 20.1377 87.1637L21.4911 87.3697C21.5058 87.4138 21.5206 87.4727 21.5353 87.5168C26.1987 98.6826 28.8467 105.288 30.8622 106.641C32.8482 107.98 36.8644 108.304 39.174 108.216C41.4543 108.318 45.4116 108.098 47.427 106.789C47.6036 106.7 47.6918 106.597 47.8537 106.494C50.0162 105.141 52.5465 99.8154 56.9746 89.9589L57.8573 87.9876L57.872 87.9434C61.1968 77.5132 55.9448 59.3889 53.6646 53.9752Z" fill="#579AA3" stroke="#579AA3" stroke-width="1.11314" stroke-miterlimit="10"/>
<path d="M21.9177 71.6581H20.2995L18.0928 72.2318C17.7545 76.6158 17.8721 80.9114 18.7695 84.4569L23.1535 85.1189L21.9177 71.6581Z" fill="#7C7C94"/>
<path d="M21.9177 71.6581H20.2995L18.0928 72.2318C17.7545 76.6158 17.8721 80.9114 18.7695 84.4569L23.1535 85.1189L21.9177 71.6581Z" stroke="#2F3140" stroke-width="0.556571" stroke-miterlimit="10" stroke-linecap="round" stroke-linejoin="round"/>
<path d="M20.5497 68.5687L22.4622 58.418L20.1819 59.1535C19.4611 62.2576 18.8138 65.7295 18.4019 69.2307L20.5497 68.5687Z" fill="#7C7C94"/>
<path d="M22.3591 71.6581H20.7409L18.5342 72.2318C18.1959 76.6158 18.3136 80.9114 19.2109 84.4569L23.5949 85.1189L22.3591 71.6581Z" fill="#6C6D81"/>
<path d="M20.9911 68.5687L22.9036 58.418L20.6233 59.1535C19.9025 62.2576 19.2552 65.7295 18.8433 69.2307L20.9911 68.5687Z" fill="#6C6D81"/>
<path d="M20.5497 68.5687L22.4622 58.418L20.1819 59.1535C19.4611 62.2576 18.8138 65.7295 18.4019 69.2307L20.5497 68.5687Z" stroke="#2F3140" stroke-width="0.556571" stroke-miterlimit="10" stroke-linecap="round" stroke-linejoin="round"/>
<path d="M52.3114 51.283C51.3845 49.0763 48.8836 47.7229 48.6188 47.5905C47.795 47.1344 46.9418 46.7225 46.0591 46.3547V104.155C46.2356 104.067 46.4269 103.964 46.5887 103.861C48.7512 102.508 51.1786 97.0791 55.6214 87.2373L56.5041 85.266L56.5188 85.2218C59.8435 74.821 54.5916 56.7114 52.3114 51.283Z" fill="#565864"/>
<path d="M52.3114 51.283C51.3845 49.0763 48.8836 47.7229 48.6188 47.5905C47.795 47.1344 46.9418 46.7225 46.0591 46.3547V104.155C46.2356 104.067 46.4269 103.964 46.5887 103.861C48.7512 102.508 51.1786 97.0791 55.6214 87.2373L56.5041 85.266L56.5188 85.2218C59.8435 74.821 54.5916 56.7114 52.3114 51.283Z" stroke="#2F3140" stroke-width="0.556571" stroke-miterlimit="10" stroke-linecap="round" stroke-linejoin="round"/>
<path d="M51.37 49.6941C50.5462 47.5757 48.163 46.2517 48.163 46.2517C45.9416 44.913 43.6908 44.1039 41.5576 43.5595C40.9986 43.4124 40.4543 43.8391 40.4543 44.4128V47.0461H35.1582V44.4275C35.1582 43.8538 34.6139 43.4271 34.0549 43.5742C31.9071 44.1186 29.6709 44.9277 27.4496 46.2664C27.4496 46.2664 25.0663 47.5757 24.2425 49.7088C21.9328 55.608 17.034 74.2766 20.1675 84.8245C24.831 95.9904 27.479 102.596 29.4944 103.949C31.4804 105.288 35.4966 105.612 37.8063 105.523C40.1159 105.626 44.1321 105.303 46.1181 103.949C48.1188 102.596 50.7816 95.9904 55.445 84.8245C58.5785 74.2619 53.6797 55.5933 51.37 49.6941Z" fill="#51566A"/>
<path d="M50.6492 58.4179C50.6492 54.5782 50.3255 50.871 49.7077 47.3992C48.8985 46.6636 48.163 46.2517 48.163 46.2517C45.9416 44.913 43.6908 44.1039 41.5576 43.5595C40.9986 43.4124 40.4543 43.8391 40.4543 44.4128V47.0461H35.1582V44.4275C35.1582 43.8538 34.6139 43.4271 34.0549 43.5742C31.9071 44.1186 29.6709 44.9277 27.4496 46.2664C27.4496 46.2664 25.0663 47.5757 24.2425 49.7088C21.9328 55.608 17.034 74.2766 20.1675 84.8245C21.5356 88.1199 22.742 91.0033 23.8012 93.4748C25.7725 94.5928 27.8615 95.196 30.0387 95.196C41.4252 95.1813 50.6492 78.7194 50.6492 58.4179Z" fill="#6C6D81"/>
<path d="M51.37 49.6941C50.5462 47.5757 48.163 46.2517 48.163 46.2517C45.9416 44.913 43.6908 44.1038 41.5576 43.5595C40.9986 43.4124 40.4543 43.8391 40.4543 44.4128V47.0461H35.1582V44.4275C35.1582 43.8538 34.6139 43.4271 34.0549 43.5742C31.9071 44.1186 29.6709 44.9277 27.4496 46.2664C27.4496 46.2664 25.0663 47.5757 24.2425 49.7088C21.9328 55.608 17.034 74.2766 20.1675 84.8245C24.831 95.9904 27.479 102.596 29.4944 103.949C31.4804 105.288 35.4966 105.612 37.8063 105.523C40.1159 105.626 44.1321 105.303 46.1181 103.949C48.1188 102.596 50.7816 95.9904 55.445 84.8245C58.5785 74.2619 53.6797 55.5933 51.37 49.6941Z" stroke="#2F3140" stroke-width="1.11314" stroke-miterlimit="10" stroke-linecap="round" stroke-linejoin="round"/>
<path d="M35.1581 46.1782V44.3982C35.1581 43.8244 34.6285 43.4125 34.0695 43.5449C31.9069 44.0892 29.6561 44.8983 27.42 46.2518C27.42 46.2518 25.0073 47.5611 24.1835 49.6942C22.8301 53.1366 20.6087 60.9336 19.6083 68.9218C19.52 69.6279 20.2556 70.1428 20.8882 69.8045C23.0507 68.6423 25.3604 67.4212 26.9492 66.671C30.5388 64.9645 35.4376 63.5081 37.1588 63.0226C37.5413 62.9196 37.7914 62.5665 37.7914 62.184V47.9289C37.7914 47.4434 37.3942 47.0609 36.9234 47.0609H36.0261C35.5553 47.0462 35.1581 46.6637 35.1581 46.1782Z" stroke="#2F3140" stroke-width="1.11314" stroke-miterlimit="10" stroke-linecap="round" stroke-linejoin="round"/>
<path d="M51.3699 49.6941C50.5461 47.5757 48.1629 46.2517 48.1629 46.2517C45.9415 44.913 43.6906 44.1038 41.5575 43.5595C40.9985 43.4124 40.4542 43.8391 40.4542 44.4128V47.0461H37.8062V62.846C37.8062 62.846 44.1761 64.5525 48.6189 66.6709C50.2077 67.4212 52.5174 68.6422 54.6652 69.8044C55.2978 70.1427 56.0334 69.6278 55.9451 68.9217C54.9447 60.9335 52.7233 53.1365 51.3699 49.6941Z" stroke="#2F3140" stroke-width="1.11314" stroke-miterlimit="10" stroke-linecap="round" stroke-linejoin="round"/>
<path d="M37.8057 79.558C36.3493 79.558 35.1577 78.3664 35.1577 76.9099V46.0163C35.1577 45.2367 35.7903 44.5894 36.5847 44.5894H39.0415C39.8212 44.5894 40.4685 45.2219 40.4685 46.0163V76.9099C40.4538 78.3811 39.2621 79.558 37.8057 79.558Z" fill="#7C7C94"/>
<path d="M40.4543 52.8276V46.0163C40.4543 45.2367 39.8217 44.5894 39.0273 44.5894H36.5705C35.7909 44.5894 35.1436 45.2219 35.1436 46.0163V75.2623L40.4543 52.8276Z" fill="#9093A2"/>
<path d="M38.9679 69.9368V65.7735C38.9679 65.1409 38.453 64.6113 37.8057 64.6113C37.1584 64.6113 36.6436 65.1262 36.6436 65.7735V69.9368H38.9679Z" fill="#3C4155"/>
<path d="M38.9679 71.1138V75.277C38.9679 75.9096 38.453 76.4392 37.8057 76.4392C37.1584 76.4392 36.6436 75.9243 36.6436 75.277V71.1138H38.9679Z" fill="#3C4155"/>
<path d="M37.8057 79.558C36.3493 79.558 35.1577 78.3664 35.1577 76.9099V46.0311C35.1577 45.2367 35.805 44.5894 36.5994 44.5894H39.0268C39.8212 44.5894 40.4685 45.2367 40.4685 46.0311V76.9099C40.4538 78.3811 39.2621 79.558 37.8057 79.558Z" stroke="#2F3140" stroke-width="1.11314" stroke-miterlimit="10" stroke-linecap="round" stroke-linejoin="round"/>
<path d="M38.2768 60.1833H37.3206C36.7763 60.1833 36.335 59.742 36.335 59.1977V52.6512C36.335 52.1069 36.7763 51.6655 37.3206 51.6655H38.2768C38.8212 51.6655 39.2625 52.1069 39.2625 52.6512V59.1977C39.2772 59.742 38.8212 60.1833 38.2768 60.1833Z" fill="#3B4254"/>
<path d="M36.4966 59.3301H39.1152" stroke="#C06D4F" stroke-width="0.371047" stroke-miterlimit="10" stroke-linecap="round" stroke-linejoin="round"/>
<path d="M36.4966 58.4474H39.1152" stroke="#C06D4F" stroke-width="0.371047" stroke-miterlimit="10" stroke-linecap="round" stroke-linejoin="round"/>
<path d="M36.4966 57.5647H39.1152" stroke="#C06D4F" stroke-width="0.371047" stroke-miterlimit="10" stroke-linecap="round" stroke-linejoin="round"/>
<path d="M36.4966 56.682H39.1152" stroke="#C06D4F" stroke-width="0.371047" stroke-miterlimit="10" stroke-linecap="round" stroke-linejoin="round"/>
<path d="M36.4966 55.7994H39.1152" stroke="#C06D4F" stroke-width="0.371047" stroke-miterlimit="10" stroke-linecap="round" stroke-linejoin="round"/>
<path d="M36.4966 54.9167H39.1152" stroke="#C06D4F" stroke-width="0.371047" stroke-miterlimit="10" stroke-linecap="round" stroke-linejoin="round"/>
<path d="M36.4966 54.0341H39.1152" stroke="#C06D4F" stroke-width="0.371047" stroke-miterlimit="10" stroke-linecap="round" stroke-linejoin="round"/>
<path d="M36.4966 53.1514H39.1152" stroke="#C06D4F" stroke-width="0.371047" stroke-miterlimit="10" stroke-linecap="round" stroke-linejoin="round"/>
<path d="M36.4966 52.2687H39.1152" stroke="#C06D4F" stroke-width="0.371047" stroke-miterlimit="10" stroke-linecap="round" stroke-linejoin="round"/>
<path d="M38.2767 60.1833C37.953 60.1833 37.6441 60.1833 37.3204 60.1833C36.7761 60.1833 36.2907 59.742 36.2318 59.1977C36.0406 57.0204 36.0406 54.8284 36.2318 52.6512C36.2907 52.1069 36.7761 51.6655 37.3204 51.6655C37.6441 51.6655 37.953 51.6655 38.2767 51.6655C38.821 51.6655 39.3065 52.1069 39.3653 52.6512C39.5566 54.8284 39.5566 57.0204 39.3653 59.1977C39.3212 59.742 38.821 60.1833 38.2767 60.1833Z" stroke="#2F3140" stroke-width="0.556571" stroke-miterlimit="10" stroke-linecap="round" stroke-linejoin="round"/>
<path d="M38.5416 60.1833H37.0705C36.6586 60.1833 36.335 59.8596 36.335 59.4477V52.3863C36.335 51.9744 36.6586 51.6508 37.0705 51.6508H38.5416C38.9536 51.6508 39.2772 51.9744 39.2772 52.3863V59.4477C39.2772 59.8596 38.9388 60.1833 38.5416 60.1833Z" stroke="#2F3140" stroke-width="0.556571" stroke-miterlimit="10" stroke-linecap="round" stroke-linejoin="round"/>
<path d="M38.9679 69.9368V65.7735C38.9679 65.1409 38.453 64.6113 37.8057 64.6113C37.1584 64.6113 36.6436 65.1262 36.6436 65.7735V69.9368H38.9679Z" stroke="#2F3140" stroke-width="0.556571" stroke-miterlimit="10" stroke-linecap="round" stroke-linejoin="round"/>
<path d="M38.9679 71.1138V75.277C38.9679 75.9096 38.453 76.4392 37.8057 76.4392C37.1584 76.4392 36.6436 75.9243 36.6436 75.277V71.1138H38.9679Z" stroke="#2F3140" stroke-width="0.556571" stroke-miterlimit="10" stroke-linecap="round" stroke-linejoin="round"/>
</g>
<defs>
<filter id="filter0_d_9_726" x="0.257812" y="0.257935" width="63.2441" height="116.536" filterUnits="userSpaceOnUse" color-interpolation-filters="sRGB">
<feFlood flood-opacity="0" result="BackgroundImageFix"/>
<feColorMatrix in="SourceAlpha" type="matrix" values="0 0 0 0 0 0 0 0 0 0 0 0 0 0 0 0 0 0 127 0" result="hardAlpha"/>
<feOffset dy="4"/>
<feGaussianBlur stdDeviation="2"/>
<feComposite in2="hardAlpha" operator="out"/>
<feColorMatrix type="matrix" values="0 0 0 0 0 0 0 0 0 0 0 0 0 0 0 0 0 0 0.25 0"/>
<feBlend mode="normal" in2="BackgroundImageFix" result="effect1_dropShadow_9_726"/>
<feBlend mode="normal" in="SourceGraphic" in2="effect1_dropShadow_9_726" result="shape"/>
</filter>
</defs>
</svg>
