<svg width="193" height="131" viewBox="0 0 193 131" fill="none" xmlns="http://www.w3.org/2000/svg">
<g filter="url(#filter0_d_7_807)">
<path d="M158.676 86.0788C153.302 86.1284 149.276 82.9042 145.935 78.415C145.29 77.5221 144.666 76.3316 144.103 74.9923C141.224 68.2958 140.46 60.5328 141.768 53.117C143.922 40.964 148.632 19.1878 156.824 3.2649C157.69 1.57837 159.682 1.57837 160.548 3.2649C168.72 19.1878 173.43 40.964 175.604 53.117C176.913 60.508 176.128 68.2958 173.269 74.9923C172.706 76.3068 172.082 77.4973 171.438 78.415C168.076 82.9042 164.05 86.1284 158.676 86.0788Z" fill="#FF6550"/>
<path opacity="0.4" d="M175.363 53.1169C173.209 40.9639 168.499 19.1878 160.307 3.26487C159.662 2.02477 158.394 1.70235 157.428 2.3224C158.193 3.09126 158.837 4.08334 159.32 5.29864C165.58 21.0231 169.385 39.0294 171.317 49.9175C172.746 57.9285 171.901 66.3116 168.821 73.5786C168.177 75.0915 167.492 76.4556 166.748 77.4973C163.608 81.7137 159.904 84.9379 155.194 85.7068C156.22 85.9796 157.287 86.1036 158.435 86.1036C163.809 86.1532 167.835 82.929 171.176 78.4398C171.82 77.5469 172.444 76.3564 173.008 75.0171C175.906 68.2958 176.691 60.5327 175.363 53.1169Z" fill="#FF7364"/>
<path d="M158.676 86.0788C153.302 86.1284 149.276 82.9042 145.935 78.415C145.29 77.5221 144.666 76.3316 144.103 74.9923C141.224 68.2958 140.46 60.5328 141.768 53.117C143.922 40.964 148.632 19.1878 156.824 3.2649C157.69 1.57837 159.682 1.57837 160.548 3.2649C168.72 19.1878 173.43 40.964 175.604 53.117C176.913 60.508 176.128 68.2958 173.269 74.9923C172.706 76.3068 172.082 77.4973 171.438 78.415C168.076 82.9042 164.05 86.1284 158.676 86.0788Z" stroke="#00233A" stroke-width="2.5" stroke-miterlimit="10" stroke-linecap="round" stroke-linejoin="round"/>
<path d="M158.676 71.9913L167.13 64.4763" stroke="#00233A" stroke-width="2.5" stroke-miterlimit="10" stroke-linecap="round" stroke-linejoin="round"/>
<path d="M158.676 61.5744L151.128 54.3818" stroke="#00233A" stroke-width="2.5" stroke-miterlimit="10" stroke-linecap="round" stroke-linejoin="round"/>
<path d="M139.937 93.0234H127.074C123.29 93.0234 120.21 89.2287 120.21 84.5659V54.8035C120.21 50.1407 123.29 46.346 127.074 46.346H139.916C143.701 46.346 146.78 50.1407 146.78 54.8035V84.5659C146.8 89.2287 143.721 93.0234 139.937 93.0234Z" fill="#E97E1C"/>
<path opacity="0.74" d="M139.735 46.346H136.716C140.5 46.346 143.58 50.1407 143.58 54.8035V84.5659C143.58 89.2287 140.5 93.0234 136.716 93.0234H139.735C143.519 93.0234 146.599 89.2287 146.599 84.5659V54.8035C146.599 50.1159 143.519 46.346 139.735 46.346Z" fill="#E8531F"/>
<path d="M139.937 93.0234H127.074C123.29 93.0234 120.21 89.2287 120.21 84.5659V54.8035C120.21 50.1407 123.29 46.346 127.074 46.346H139.916C143.701 46.346 146.78 50.1407 146.78 54.8035V84.5659C146.8 89.2287 143.721 93.0234 139.937 93.0234Z" stroke="#00233A" stroke-width="2.5" stroke-miterlimit="10" stroke-linecap="round" stroke-linejoin="round"/>
<path d="M133.515 86.0788L139.151 79.6799" stroke="#00233A" stroke-width="2.5" stroke-miterlimit="10" stroke-linecap="round" stroke-linejoin="round"/>
<path d="M133.515 75.4636L127.275 71.9913" stroke="#00233A" stroke-width="2.5" stroke-miterlimit="10" stroke-linecap="round" stroke-linejoin="round"/>
<path d="M158.676 113.907V43.965" stroke="#00233A" stroke-width="2.5" stroke-miterlimit="10" stroke-linecap="round" stroke-linejoin="round"/>
<path d="M133.515 64.5507V113.907" stroke="#00233A" stroke-width="2.5" stroke-miterlimit="10" stroke-linecap="round" stroke-linejoin="round"/>
<path d="M38.045 86.3269C44.715 86.3269 50.1222 68.56 50.1222 46.6437C50.1222 24.7271 44.715 6.96042 38.045 6.96042C31.3749 6.96042 25.9678 24.7271 25.9678 46.6437C25.9678 68.56 31.3749 86.3269 38.045 86.3269Z" fill="#FFB845"/>
<path opacity="0.53" d="M38.0452 6.96042C37.9445 6.96042 37.8439 6.96042 37.7231 6.98522C43.2988 10.5071 47.5056 26.6036 47.5056 45.9492C47.5056 67.527 42.2722 85.062 35.7505 85.6076C36.4953 86.0789 37.2601 86.3269 38.0452 86.3269C44.7078 86.3269 50.1224 68.5686 50.1224 46.6437C50.1224 24.7187 44.7078 6.96042 38.0452 6.96042Z" fill="#D89535"/>
<path d="M38.045 86.3269C44.715 86.3269 50.1222 68.56 50.1222 46.6437C50.1222 24.7271 44.715 6.96042 38.045 6.96042C31.3749 6.96042 25.9678 24.7271 25.9678 46.6437C25.9678 68.56 31.3749 86.3269 38.045 86.3269Z" stroke="#00233A" stroke-width="2.5" stroke-miterlimit="10" stroke-linecap="round" stroke-linejoin="round"/>
<path d="M37.9844 33.5482V111.178" stroke="#00233A" stroke-width="2.5" stroke-miterlimit="10" stroke-linecap="round" stroke-linejoin="round"/>
<path d="M38.0449 57.8542L42.8154 50.1655" stroke="#00233A" stroke-width="2.5" stroke-miterlimit="10" stroke-linecap="round" stroke-linejoin="round"/>
<path d="M38.045 72.9834L32.8921 66.3612" stroke="#00233A" stroke-width="2.5" stroke-miterlimit="10" stroke-linecap="round" stroke-linejoin="round"/>
<path d="M37.9845 46.5197L33.8179 40.7408" stroke="#00233A" stroke-width="2.5" stroke-miterlimit="10" stroke-linecap="round" stroke-linejoin="round"/>
<path opacity="0.6" d="M44.0838 42.2041C45.0065 42.2041 45.7545 41.2824 45.7545 40.1455C45.7545 39.0086 45.0065 38.0869 44.0838 38.0869C43.1611 38.0869 42.4131 39.0086 42.4131 40.1455C42.4131 41.2824 43.1611 42.2041 44.0838 42.2041Z" fill="#EF8C3A"/>
<path d="M32.892 31.8864C33.4812 31.8864 33.9588 31.2979 33.9588 30.5719C33.9588 29.846 33.4812 29.2574 32.892 29.2574C32.3029 29.2574 31.8252 29.846 31.8252 30.5719C31.8252 31.2979 32.3029 31.8864 32.892 31.8864Z" fill="#FFD766"/>
<path d="M39.8365 28.8606C40.3367 28.8606 40.7422 28.3608 40.7422 27.7445C40.7422 27.1279 40.3367 26.6284 39.8365 26.6284C39.3363 26.6284 38.9307 27.1279 38.9307 27.7445C38.9307 28.3608 39.3363 28.8606 39.8365 28.8606Z" fill="#FFD766"/>
<path opacity="0.38" d="M127.638 59.0694C128.771 59.0694 129.691 57.9367 129.691 56.5396C129.691 55.1425 128.771 54.0098 127.638 54.0098C126.504 54.0098 125.584 55.1425 125.584 56.5396C125.584 57.9367 126.504 59.0694 127.638 59.0694Z" fill="#FFB845"/>
<path opacity="0.38" d="M134.079 59.8135C134.89 59.8135 135.548 59.003 135.548 58.0029C135.548 57.0029 134.89 56.1924 134.079 56.1924C133.267 56.1924 132.609 57.0029 132.609 58.0029C132.609 59.003 133.267 59.8135 134.079 59.8135Z" fill="#FFB845"/>
<path opacity="0.74" d="M127.638 82.3585C128.449 82.3585 129.107 81.548 129.107 80.548C129.107 79.5482 128.449 78.7375 127.638 78.7375C126.826 78.7375 126.168 79.5482 126.168 80.548C126.168 81.548 126.826 82.3585 127.638 82.3585Z" fill="#E8531F"/>
<path opacity="0.74" d="M138.447 67.5765C139.125 67.5765 139.674 66.8992 139.674 66.0636C139.674 65.228 139.125 64.5507 138.447 64.5507C137.768 64.5507 137.219 65.228 137.219 66.0636C137.219 66.8992 137.768 67.5765 138.447 67.5765Z" fill="#E8531F"/>
<path opacity="0.6" d="M31.6638 56.0684C32.5865 56.0684 33.3345 55.1468 33.3345 54.0099C33.3345 52.8729 32.5865 51.9513 31.6638 51.9513C30.7411 51.9513 29.9932 52.8729 29.9932 54.0099C29.9932 55.1468 30.7411 56.0684 31.6638 56.0684Z" fill="#EF8C3A"/>
<path opacity="0.6" d="M35.428 25.2643C36.3507 25.2643 37.0987 24.3427 37.0987 23.2058C37.0987 22.0688 36.3507 21.1472 35.428 21.1472C34.5053 21.1472 33.7573 22.0688 33.7573 23.2058C33.7573 24.3427 34.5053 25.2643 35.428 25.2643Z" fill="#EF8C3A"/>
<path opacity="0.6" d="M42.8758 66.4357C43.7985 66.4357 44.5464 65.514 44.5464 64.3771C44.5464 63.2402 43.7985 62.3185 42.8758 62.3185C41.9531 62.3185 41.2051 63.2402 41.2051 64.3771C41.2051 65.514 41.9531 66.4357 42.8758 66.4357Z" fill="#EF8C3A"/>
<path d="M48.8339 27.7197C51.413 27.7197 53.5038 25.1435 53.5038 21.9656C53.5038 18.7878 51.413 16.2116 48.8339 16.2116C46.2548 16.2116 44.1641 18.7878 44.1641 21.9656C44.1641 25.1435 46.2548 27.7197 48.8339 27.7197Z" fill="#FF9F48"/>
<path d="M48.8339 16.2116C48.7936 16.2116 48.7735 16.2116 48.7333 16.2116C50.0819 17.2285 50.9877 19.0638 50.9877 21.1472C50.9877 24.2722 48.9547 26.8268 46.4185 26.9012C47.123 27.4221 47.9482 27.7197 48.8339 27.7197C51.4104 27.7197 53.5038 25.1403 53.5038 21.9656C53.5038 18.791 51.4104 16.2116 48.8339 16.2116Z" fill="#EF8C3A"/>
<path d="M48.8339 27.7197C51.413 27.7197 53.5038 25.1435 53.5038 21.9656C53.5038 18.7878 51.413 16.2116 48.8339 16.2116C46.2548 16.2116 44.1641 18.7878 44.1641 21.9656C44.1641 25.1435 46.2548 27.7197 48.8339 27.7197Z" stroke="#00233A" stroke-width="2.5" stroke-miterlimit="10" stroke-linecap="round" stroke-linejoin="round"/>
<path d="M126.772 113.907C126.772 107.409 131.04 102.175 136.293 102.175C141.547 102.175 145.814 107.409 145.814 113.907H126.772Z" fill="#FF6550"/>
<path opacity="0.4" d="M136.293 102.175C135.307 102.175 134.381 102.349 133.475 102.696C137.36 104.159 140.178 108.624 140.178 113.907H145.794C145.814 107.409 141.547 102.175 136.293 102.175Z" fill="#FF7364"/>
<path d="M126.772 113.907C126.772 107.409 131.04 102.175 136.293 102.175C141.547 102.175 145.814 107.409 145.814 113.907H126.772Z" stroke="#00233A" stroke-width="2.5" stroke-miterlimit="10" stroke-linecap="round" stroke-linejoin="round"/>
<path d="M141.144 113.907C141.144 109.591 143.962 106.144 147.444 106.144C150.927 106.144 153.745 109.616 153.745 113.907H141.144Z" fill="#FFB845"/>
<path opacity="0.53" d="M147.444 106.144C146.941 106.144 146.458 106.218 145.995 106.342C148.773 107.136 150.866 110.211 150.866 113.907H153.765C153.765 109.591 150.927 106.144 147.444 106.144Z" fill="#D89535"/>
<path d="M141.144 113.907C141.144 109.591 143.962 106.144 147.444 106.144C150.927 106.144 153.745 109.616 153.745 113.907H141.144Z" stroke="#00233A" stroke-width="2.5" stroke-miterlimit="10" stroke-linecap="round" stroke-linejoin="round"/>
<path d="M155.778 113.907C155.778 110.757 157.831 108.252 160.367 108.252C162.903 108.252 164.957 110.782 164.957 113.907H155.778Z" fill="#FFB845"/>
<path d="M155.778 113.907C155.778 110.757 157.831 108.252 160.367 108.252C162.903 108.252 164.957 110.782 164.957 113.907H155.778Z" stroke="#00233A" stroke-width="2.5" stroke-miterlimit="10" stroke-linecap="round" stroke-linejoin="round"/>
<path d="M44.4863 113.907C44.4863 110.782 46.5395 108.252 49.0757 108.252C51.6119 108.252 53.665 110.782 53.665 113.907H44.4863Z" fill="#FFB845"/>
<path d="M44.4863 113.907C44.4863 110.782 46.5395 108.252 49.0757 108.252C51.6119 108.252 53.665 110.782 53.665 113.907H44.4863Z" stroke="#00233A" stroke-width="2.5" stroke-miterlimit="10" stroke-linecap="round" stroke-linejoin="round"/>
<path d="M67.6743 113.907C67.6743 111.898 68.9827 110.286 70.6131 110.286C72.2435 110.286 73.5519 111.898 73.5519 113.907H67.6743Z" fill="#00233A"/>
<path d="M62.5215 113.584C62.5215 111.923 63.6084 110.583 64.9571 110.583C66.3057 110.583 67.3926 111.923 67.3926 113.584H62.5215Z" fill="#00233A"/>
<path d="M67.6743 113.907C67.6743 111.898 68.9827 110.286 70.6131 110.286C72.2435 110.286 73.5519 111.898 73.5519 113.907H67.6743Z" stroke="#00233A" stroke-width="2.5" stroke-miterlimit="10" stroke-linecap="round" stroke-linejoin="round"/>
<path d="M75.1016 113.907C75.1016 110.782 77.1547 108.252 79.6909 108.252C82.2271 108.252 84.2803 110.782 84.2803 113.907H75.1016Z" fill="#00233A"/>
<path d="M114.211 113.733C114.211 111.575 115.62 109.839 117.372 109.839C119.123 109.839 120.532 111.575 120.532 113.733H114.211Z" fill="#00233A"/>
<path d="M105.959 113.733C105.959 110.906 107.831 108.599 110.126 108.599C112.42 108.599 114.292 110.906 114.292 113.733H105.959Z" fill="#00233A"/>
<path d="M75.1016 113.907C75.1016 110.782 77.1547 108.252 79.6909 108.252C82.2271 108.252 84.2803 110.782 84.2803 113.907H75.1016Z" stroke="#00233A" stroke-width="2.5" stroke-miterlimit="10" stroke-linecap="round" stroke-linejoin="round"/>
<path d="M103.463 113.907H173.048" stroke="#00233A" stroke-width="2.5" stroke-miterlimit="10" stroke-linecap="round" stroke-linejoin="round"/>
<path d="M94.9487 113.907H99.9809" stroke="#00233A" stroke-width="2.5" stroke-miterlimit="10" stroke-linecap="round" stroke-linejoin="round"/>
<path d="M19.4663 113.907H91.9296" stroke="#00233A" stroke-width="2.5" stroke-miterlimit="10" stroke-linecap="round" stroke-linejoin="round"/>
<path d="M68.4999 101.63H64.4741V113.907H68.4999V101.63Z" fill="#81440E"/>
<path d="M68.4999 101.63H64.4741V113.907H68.4999V101.63Z" fill="#81440E"/>
<path d="M68.4999 101.63H64.4741V105.4H68.4999V101.63Z" fill="#663717"/>
<path d="M110.126 101.63H106.1V113.907H110.126V101.63Z" fill="#81440E"/>
<path d="M110.126 101.63H106.1V105.4H110.126V101.63Z" fill="#663717"/>
<path d="M68.4999 101.63H64.4741V113.907H68.4999V101.63Z" stroke="#00233A" stroke-width="2.5" stroke-miterlimit="10" stroke-linecap="round" stroke-linejoin="round"/>
<path d="M110.126 101.63H106.1V113.907H110.126V101.63Z" stroke="#00233A" stroke-width="2.5" stroke-miterlimit="10" stroke-linecap="round" stroke-linejoin="round"/>
<path d="M69.8883 69.7343H67.0703V96.0493H69.8883V69.7343Z" fill="#81440E"/>
<path d="M69.8883 75.0171H67.0703V91.8329H69.8883V75.0171Z" fill="#663717"/>
<path d="M69.8883 69.7343H67.0703V96.0493H69.8883V69.7343Z" stroke="#00233A" stroke-width="2.5" stroke-miterlimit="10" stroke-linecap="round" stroke-linejoin="round"/>
<path d="M107.529 69.7343H104.711V96.0493H107.529V69.7343Z" fill="#81440E"/>
<path d="M107.529 73.7274H104.711V91.8329H107.529V73.7274Z" fill="#663717"/>
<path d="M107.529 69.7343H104.711V96.0493H107.529V69.7343Z" stroke="#00233A" stroke-width="2.5" stroke-miterlimit="10" stroke-linecap="round" stroke-linejoin="round"/>
<path d="M114.232 73.7522H57.8721V81.1928H114.232V73.7522Z" fill="#81440E"/>
<path d="M114.232 73.7522H57.8721V76.282H114.232V73.7522Z" fill="#A05720"/>
<path d="M114.232 73.7522H57.8721V81.1928H114.232V73.7522Z" stroke="#00233A" stroke-width="2.5" stroke-miterlimit="10" stroke-linecap="round" stroke-linejoin="round"/>
<path d="M114.232 81.1928H57.8721V88.6334H114.232V81.1928Z" fill="#81440E"/>
<path d="M114.232 81.1928H57.8721V83.5986H114.232V81.1928Z" fill="#A05720"/>
<path d="M114.232 81.1928H57.8721V88.6334H114.232V81.1928Z" stroke="#00233A" stroke-width="2.5" stroke-miterlimit="10" stroke-linecap="round" stroke-linejoin="round"/>
<path d="M121.156 96.6693H53.4434V101.63H121.156V96.6693Z" fill="#81440E"/>
<path d="M121.156 96.6693H53.4434V101.63H121.156V96.6693Z" fill="#81440E"/>
<path d="M121.156 96.6693H53.4434V98.6535H121.156V96.6693Z" fill="#A05720"/>
<path d="M121.156 96.6693H53.4434V101.63H121.156V96.6693Z" stroke="#00233A" stroke-width="2.5" stroke-miterlimit="10" stroke-linecap="round" stroke-linejoin="round"/>
<path d="M68.7411 79.0599C69.3305 79.0599 69.808 78.4713 69.808 77.7454C69.808 77.0194 69.3305 76.4308 68.7411 76.4308C68.152 76.4308 67.6743 77.0194 67.6743 77.7454C67.6743 78.4713 68.152 79.0599 68.7411 79.0599Z" fill="#663717"/>
<path d="M68.7411 85.9548C69.3305 85.9548 69.808 85.3663 69.808 84.6403C69.808 83.9144 69.3305 83.3258 68.7411 83.3258C68.152 83.3258 67.6743 83.9144 67.6743 84.6403C67.6743 85.3663 68.152 85.9548 68.7411 85.9548Z" fill="#663717"/>
<path d="M106.382 79.0599C106.971 79.0599 107.449 78.4713 107.449 77.7454C107.449 77.0194 106.971 76.4308 106.382 76.4308C105.793 76.4308 105.315 77.0194 105.315 77.7454C105.315 78.4713 105.793 79.0599 106.382 79.0599Z" fill="#663717"/>
<path d="M106.382 85.9548C106.971 85.9548 107.449 85.3663 107.449 84.6403C107.449 83.9144 106.971 83.3258 106.382 83.3258C105.793 83.3258 105.315 83.9144 105.315 84.6403C105.315 85.3663 105.793 85.9548 106.382 85.9548Z" fill="#663717"/>
<path d="M68.4795 78.7374C68.9243 78.7374 69.2846 78.2935 69.2846 77.7453C69.2846 77.1975 68.9243 76.7533 68.4795 76.7533C68.0348 76.7533 67.6743 77.1975 67.6743 77.7453C67.6743 78.2935 68.0348 78.7374 68.4795 78.7374Z" fill="#00233A"/>
<path d="M68.4795 85.6324C68.9243 85.6324 69.2846 85.1884 69.2846 84.6403C69.2846 84.0924 68.9243 83.6482 68.4795 83.6482C68.0348 83.6482 67.6743 84.0924 67.6743 84.6403C67.6743 85.1884 68.0348 85.6324 68.4795 85.6324Z" fill="#00233A"/>
<path d="M106.12 78.7374C106.565 78.7374 106.925 78.2935 106.925 77.7453C106.925 77.1975 106.565 76.7533 106.12 76.7533C105.675 76.7533 105.315 77.1975 105.315 77.7453C105.315 78.2935 105.675 78.7374 106.12 78.7374Z" fill="#00233A"/>
<path d="M106.12 85.6324C106.565 85.6324 106.925 85.1884 106.925 84.6403C106.925 84.0924 106.565 83.6482 106.12 83.6482C105.675 83.6482 105.315 84.0924 105.315 84.6403C105.315 85.1884 105.675 85.6324 106.12 85.6324Z" fill="#00233A"/>
<path d="M117.372 121.124H118.6" stroke="#00233A" stroke-width="2.5" stroke-miterlimit="10" stroke-linecap="round" stroke-linejoin="round"/>
<path d="M86.5552 121.124H113.407" stroke="#00233A" stroke-width="2.5" stroke-miterlimit="10" stroke-linecap="round" stroke-linejoin="round"/>
<path d="M77.2354 121.124H81.8448" stroke="#00233A" stroke-width="2.5" stroke-miterlimit="10" stroke-linecap="round" stroke-linejoin="round"/>
<path d="M120.814 16.2116H123.129" stroke="#00233A" stroke-width="2.5" stroke-miterlimit="10" stroke-linecap="round" stroke-linejoin="round"/>
<path d="M127.356 16.2116H134.703" stroke="#00233A" stroke-width="2.5" stroke-miterlimit="10" stroke-linecap="round" stroke-linejoin="round"/>
<path d="M6 35.0859H12.9444" stroke="#00233A" stroke-width="2.5" stroke-miterlimit="10" stroke-linecap="round" stroke-linejoin="round"/>
<path d="M16.2251 35.0859H19.8886" stroke="#00233A" stroke-width="2.5" stroke-miterlimit="10" stroke-linecap="round" stroke-linejoin="round"/>
<path d="M186.293 32.8289H187.662" stroke="#00233A" stroke-width="2.5" stroke-miterlimit="10" stroke-linecap="round" stroke-linejoin="round"/>
<path d="M179.127 32.8289H183.092" stroke="#00233A" stroke-width="2.5" stroke-miterlimit="10" stroke-linecap="round" stroke-linejoin="round"/>
<path d="M128.604 25.2891H140.802" stroke="#00233A" stroke-width="2.5" stroke-miterlimit="10" stroke-linecap="round" stroke-linejoin="round"/>
<path d="M77.9602 29.4806C77.9401 29.2822 77.9199 29.059 77.9199 28.8358C77.9199 26.6284 79.3692 24.8178 81.1808 24.8178C82.9722 24.8178 84.4416 26.6036 84.4416 28.8358C84.4416 31.0432 82.9924 32.8537 81.1808 32.8537" stroke="#00233A" stroke-width="2.5" stroke-miterlimit="10" stroke-linecap="round" stroke-linejoin="round"/>
<path d="M67.2515 32.8289H81.1805" stroke="#00233A" stroke-width="2.5" stroke-miterlimit="10" stroke-linecap="round" stroke-linejoin="round"/>
<path d="M172.666 21.792C172.646 21.5936 172.625 21.3704 172.625 21.1472C172.625 18.9398 174.075 17.1292 175.886 17.1292C177.698 17.1292 179.147 18.915 179.147 21.1472C179.147 23.3794 177.698 25.1651 175.886 25.1651" stroke="#00233A" stroke-width="2.5" stroke-miterlimit="10" stroke-linecap="round" stroke-linejoin="round"/>
<path d="M163.99 25.1651H175.866" stroke="#00233A" stroke-width="2.5" stroke-miterlimit="10" stroke-linecap="round" stroke-linejoin="round"/>
<path d="M86.4748 43.4938C86.4547 43.6922 86.4346 43.9154 86.4346 44.1386C86.4346 46.346 87.8838 48.1565 89.6954 48.1565C91.507 48.1565 92.9563 46.3708 92.9563 44.1386C92.9563 41.9064 91.507 40.1207 89.6954 40.1207" stroke="#00233A" stroke-width="2.5" stroke-miterlimit="10" stroke-linecap="round" stroke-linejoin="round"/>
<path d="M77.2759 40.1455H89.6752" stroke="#00233A" stroke-width="2.5" stroke-miterlimit="10" stroke-linecap="round" stroke-linejoin="round"/>
<path d="M72.8071 40.1455H74.2765" stroke="#00233A" stroke-width="2.5" stroke-miterlimit="10" stroke-linecap="round" stroke-linejoin="round"/>
<path d="M61.998 40.1455H69.184" stroke="#00233A" stroke-width="2.5" stroke-miterlimit="10" stroke-linecap="round" stroke-linejoin="round"/>
<path d="M70.1701 27.8685H57.2676" stroke="#00233A" stroke-width="2.5" stroke-miterlimit="10" stroke-linecap="round" stroke-linejoin="round"/>
<path d="M16.2251 23.1561H21.0963" stroke="#00233A" stroke-width="2.5" stroke-miterlimit="10" stroke-linecap="round" stroke-linejoin="round"/>
<path d="M175.725 58.6726C178.371 58.6726 180.516 56.03 180.516 52.7697C180.516 49.5098 178.371 46.8669 175.725 46.8669C173.079 46.8669 170.935 49.5098 170.935 52.7697C170.935 56.03 173.079 58.6726 175.725 58.6726Z" fill="#EF4D3C"/>
<path d="M175.725 58.6726C178.371 58.6726 180.516 56.03 180.516 52.7697C180.516 49.5098 178.371 46.8669 175.725 46.8669C173.079 46.8669 170.935 49.5098 170.935 52.7697C170.935 56.03 173.079 58.6726 175.725 58.6726Z" stroke="#00233A" stroke-width="2.5" stroke-miterlimit="10" stroke-linecap="round" stroke-linejoin="round"/>
<path d="M29.9935 113.907C33.8065 113.907 36.8976 107.677 36.8976 99.9928C36.8976 92.3084 33.8065 86.0789 29.9935 86.0789C26.1805 86.0789 23.0894 92.3084 23.0894 99.9928C23.0894 107.677 26.1805 113.907 29.9935 113.907Z" fill="#E97E1C"/>
<path opacity="0.74" d="M29.9938 86.0789C29.8328 86.0789 29.6717 86.1037 29.5308 86.1037C32.2281 87.9886 34.1604 93.1722 34.1604 99.2239C34.1604 106.59 31.3223 112.617 27.7192 113.088C28.4237 113.584 29.2088 113.857 29.9938 113.857C33.7981 113.857 36.8979 107.632 36.8979 99.9432C36.8979 92.3042 33.7981 86.0789 29.9938 86.0789Z" fill="#E8531F"/>
<path d="M29.9935 113.907C33.8065 113.907 36.8976 107.677 36.8976 99.9928C36.8976 92.3084 33.8065 86.0789 29.9935 86.0789C26.1805 86.0789 23.0894 92.3084 23.0894 99.9928C23.0894 107.677 26.1805 113.907 29.9935 113.907Z" stroke="#00233A" stroke-width="2.5" stroke-miterlimit="10" stroke-linecap="round" stroke-linejoin="round"/>
<path d="M30.7183 113.907C30.7183 109.194 33.798 105.4 37.6224 105.4C41.4469 105.4 44.5265 109.194 44.5265 113.907H30.7183Z" fill="#FF6550"/>
<path opacity="0.4" d="M37.6022 105.4C36.9983 105.4 36.4347 105.499 35.8711 105.672C38.8501 106.615 41.0442 109.938 41.0442 113.907H44.5063C44.5063 109.194 41.4065 105.4 37.6022 105.4Z" fill="#FF7364"/>
<path d="M30.7183 113.907C30.7183 109.194 33.798 105.4 37.6224 105.4C41.4469 105.4 44.5265 109.194 44.5265 113.907H30.7183Z" stroke="#00233A" stroke-width="2.5" stroke-miterlimit="10" stroke-linecap="round" stroke-linejoin="round"/>
<path opacity="0.91" d="M156.502 30.5471C157.38 30.5471 158.092 29.6699 158.092 28.5878C158.092 27.5057 157.38 26.6284 156.502 26.6284C155.624 26.6284 154.912 27.5057 154.912 28.5878C154.912 29.6699 155.624 30.5471 156.502 30.5471Z" fill="#FF6550"/>
<path opacity="0.91" d="M153.181 40.1455C154.315 40.1455 155.234 39.0128 155.234 37.6157C155.234 36.2186 154.315 35.0859 153.181 35.0859C152.047 35.0859 151.128 36.2186 151.128 37.6157C151.128 39.0128 152.047 40.1455 153.181 40.1455Z" fill="#FF6550"/>
<path opacity="0.91" d="M163.99 60.384C165.124 60.384 166.043 59.2512 166.043 57.8541C166.043 56.4571 165.124 55.3243 163.99 55.3243C162.856 55.3243 161.937 56.4571 161.937 57.8541C161.937 59.2512 162.856 60.384 163.99 60.384Z" fill="#FF6550"/>
<path opacity="0.4" d="M164.956 46.6684C166.09 46.6684 167.01 45.5357 167.01 44.1386C167.01 42.7415 166.09 41.6088 164.956 41.6088C163.823 41.6088 162.903 42.7415 162.903 44.1386C162.903 45.5357 163.823 46.6684 164.956 46.6684Z" fill="#FF7364"/>
<path opacity="0.38" d="M29.3899 98.7279C30.3126 98.7279 31.0606 97.8062 31.0606 96.6693C31.0606 95.5324 30.3126 94.6107 29.3899 94.6107C28.4672 94.6107 27.7192 95.5324 27.7192 96.6693C27.7192 97.8062 28.4672 98.7279 29.3899 98.7279Z" fill="#FFB845"/>
<path opacity="0.6" d="M26.9541 101.431C27.4988 101.431 27.9404 100.887 27.9404 100.216C27.9404 99.5448 27.4988 99.0007 26.9541 99.0007C26.4094 99.0007 25.9678 99.5448 25.9678 100.216C25.9678 100.887 26.4094 101.431 26.9541 101.431Z" fill="#E8531F"/>
<path opacity="0.38" d="M31.06 104.953C31.7048 104.953 32.2275 104.309 32.2275 103.515C32.2275 102.72 31.7048 102.076 31.06 102.076C30.4153 102.076 29.8926 102.72 29.8926 103.515C29.8926 104.309 30.4153 104.953 31.06 104.953Z" fill="#FFB845"/>
</g>
<defs>
<filter id="filter0_d_7_807" x="0.75" y="0.75" width="192.162" height="129.624" filterUnits="userSpaceOnUse" color-interpolation-filters="sRGB">
<feFlood flood-opacity="0" result="BackgroundImageFix"/>
<feColorMatrix in="SourceAlpha" type="matrix" values="0 0 0 0 0 0 0 0 0 0 0 0 0 0 0 0 0 0 127 0" result="hardAlpha"/>
<feOffset dy="4"/>
<feGaussianBlur stdDeviation="2"/>
<feComposite in2="hardAlpha" operator="out"/>
<feColorMatrix type="matrix" values="0 0 0 0 0 0 0 0 0 0 0 0 0 0 0 0 0 0 0.25 0"/>
<feBlend mode="normal" in2="BackgroundImageFix" result="effect1_dropShadow_7_807"/>
<feBlend mode="normal" in="SourceGraphic" in2="effect1_dropShadow_7_807" result="shape"/>
</filter>
</defs>
</svg>
